<svg xmlns="http://www.w3.org/2000/svg" xmlns:xlink="http://www.w3.org/1999/xlink" width="99" height="91" viewBox="0 0 99 91"><defs><path id="2vkca" d="M224.43 2658.2v-2.88h2.74v2.87z"/><path id="2vkcb" d="M228.54 2658.2v-2.88h2.56v2.87z"/><path id="2vkcc" d="M199.91 2662.67a.9.9 0 0 1 .04.2c0 .66-1.02 1.15-1.8 1.15-.45 0-.8-.15-.92-.52l-.6-2.25h-3.8l-.61 2.25c-.11.37-.47.52-.92.52-.78 0-1.8-.49-1.8-1.15 0-.06.02-.13.04-.2l3.34-10.97c.2-.63 1-.94 1.84-.94.82 0 1.63.3 1.83.94zm-3.88-3.58l-1.31-4.82-1.32 4.82z"/><path id="2vkcd" d="M217.12 2650.87c2.37 0 4.24 1.11 4.24 4.14v.09c0 3.02-1.94 4.17-4.42 4.17h-1.78v3.89c0 .57-.7.86-1.4.86s-1.41-.29-1.41-.86v-11.45c0-.45.41-.84 1.04-.84zm1.44 4.24c0-1.22-.62-1.8-1.62-1.8h-1.78v3.8h1.78c1 0 1.62-.58 1.62-1.8z"/><path id="2vkce" d="M253.01 2650.87c-.45 0-.8.14-.92.52l-2.5 9.23-2.52-9.23c-.1-.38-.46-.52-.91-.52-.78 0-1.8.48-1.8 1.15l.03.2 3.37 10.97c.2.63 1 .94 1.83.94.83 0 1.64-.3 1.84-.94l3.34-10.97a.92.92 0 0 0 .04-.2c0-.67-1.03-1.15-1.8-1.15z"/><path id="2vkcf" d="M210.57 2655v.1c0 3.02-1.95 4.17-4.43 4.17h-1.78v3.89c0 .57-.7.86-1.4.86s-1.4-.29-1.4-.86v-11.45c0-.45.4-.84 1.04-.84h3.72c2.38 0 4.25 1.11 4.25 4.14zm-2.81.11c0-1.22-.61-1.8-1.62-1.8h-1.78v3.8h1.78c1 0 1.62-.58 1.62-1.8z"/><path id="2vkcg" d="M271.08 2650.87c2.48 0 4.42 1.15 4.42 4.24v4.66c0 3.1-1.94 4.25-4.42 4.25h-3.19c-.74 0-1.22-.4-1.22-.85v-11.46c0-.45.48-.84 1.22-.84h3.19zm1.61 4.24c0-1.22-.6-1.8-1.61-1.8h-1.6v8.26h1.6c1 0 1.61-.57 1.61-1.8z"/><path id="2vkch" d="M264.04 2653.32c.54 0 .84-.58.84-1.25 0-.57-.25-1.2-.84-1.2h-6.4c-.62 0-1.23.29-1.23.86v11.43c0 .57.61.86 1.23.86h6.4c.6 0 .84-.63.84-1.2 0-.67-.3-1.25-.84-1.25h-4.82v-3.06h2.7c.59 0 .84-.57.84-1.06 0-.57-.3-1.1-.84-1.1h-2.7v-3.03z"/><path id="2vkci" d="M242.9 2655.11v4.77c0 3.1-1.94 4.25-4.43 4.25-2.48 0-4.4-1.15-4.4-4.25v-4.77c0-3.09 1.92-4.24 4.4-4.24 2.49 0 4.43 1.15 4.43 4.24zm-2.8 0c0-1.24-.62-1.8-1.63-1.8-1 0-1.6.56-1.6 1.8v4.77c0 1.24.6 1.8 1.6 1.8 1.01 0 1.62-.56 1.62-1.8z"/><path id="2vkcj" d="M232.17 2662.35c.08.1.1.23.1.32 0 .7-.94 1.46-1.77 1.46a.96.96 0 0 1-.9-.52l-2.46-4.79h-1.19v4.34c0 .57-.7.86-1.4.86s-1.4-.29-1.4-.86v-11.45c0-.45.34-.84.86-.84h3.72c2.47 0 4.43.92 4.43 3.85 0 2.01-.92 3.16-2.18 3.65zm-4.44-5.69c1 0 1.62-.41 1.62-1.67s-.61-1.67-1.62-1.67h-1.78v3.34h1.78z"/><path id="2vkck" d="M277.14 2639.05a4.86 4.86 0 0 1 4.86 4.86v27.07a4.86 4.86 0 0 1-4.86 4.86h-3.08a45.43 45.43 0 0 1-41.56 27.05 45.43 45.43 0 0 1-41.56-27.05h-3.08a4.86 4.86 0 0 1-4.86-4.86v-27.07a4.86 4.86 0 0 1 4.86-4.86h3.08A45.43 45.43 0 0 1 232.5 2612a45.42 45.42 0 0 1 41.56 27.05h3.08zm-44.64-23.18c-15.98 0-30.32 9-37.3 23.18h4.38a37.7 37.7 0 0 1 46.36-16.84 1.93 1.93 0 0 1-1.38 3.62 33.7 33.7 0 0 0-12.06-2.23 33.7 33.7 0 0 0-28.4 15.45h4.73a30.1 30.1 0 0 1 23.67-11.58c9.23 0 18 4.31 23.67 11.58h13.63a41.43 41.43 0 0 0-37.3-23.18zm18.52 23.18a26.2 26.2 0 0 0-18.52-7.71 26.2 26.2 0 0 0-18.52 7.71zm-18.52 59.97c15.98 0 30.32-9 37.3-23.18h-4.38a37.7 37.7 0 0 1-46.36 16.84 1.93 1.93 0 1 1 1.37-3.62 33.7 33.7 0 0 0 12.07 2.23 33.7 33.7 0 0 0 28.4-15.45h-4.73a30.09 30.09 0 0 1-23.67 11.58c-9.23 0-18-4.31-23.67-11.58H195.2a41.43 41.43 0 0 0 37.3 23.18zm0-15.47a26.2 26.2 0 0 0 18.52-7.71h-37.04a26.2 26.2 0 0 0 18.52 7.71zm45.63-39.64a1 1 0 0 0-.99-1h-89.28a1 1 0 0 0-1 1v27.07a1 1 0 0 0 1 1h89.28a1 1 0 0 0 1-1z"/><path id="2vkcl" d="M249.36 2628.1l.09.05a1.92 1.92 0 0 0 2.63-.75c.52-.93.18-2.1-.75-2.63h-.01a1.93 1.93 0 1 0-1.96 3.33z"/><path id="2vkcm" d="M215.62 2686.78l-.05-.03a1.93 1.93 0 0 0-1.92 3.36l.05.02a1.92 1.92 0 0 0 2.64-.72c.53-.92.2-2.1-.72-2.63z"/></defs><g><g transform="translate(-183 -2612)"><g><use fill="#fc0027" xlink:href="#2vkca"/></g><g><use fill="#fc0027" xlink:href="#2vkcb"/></g><g><g><g><g><use fill="#0093ff" xlink:href="#2vkcc"/></g><g><use fill="#0093ff" xlink:href="#2vkcd"/></g><g><use fill="#0093ff" xlink:href="#2vkce"/></g><g><use fill="#0093ff" xlink:href="#2vkcf"/></g><g><use fill="#0093ff" xlink:href="#2vkcg"/></g><g><use fill="#0093ff" xlink:href="#2vkch"/></g><g><use fill="#0093ff" xlink:href="#2vkci"/></g><g><use fill="#0093ff" xlink:href="#2vkcj"/></g><g><use fill="#00aeef" xlink:href="#2vkck"/></g><g><use fill="#0093ff" xlink:href="#2vkcl"/></g><g><use fill="#0093ff" xlink:href="#2vkcm"/></g></g></g></g></g></g></svg>