<svg xmlns="http://www.w3.org/2000/svg" xmlns:xlink="http://www.w3.org/1999/xlink" width="12" height="12" viewBox="0 0 12 12"><defs><path id="mkxka" d="M941.64 131c-.5 0-1.1-.13-1.76-.38a13.24 13.24 0 0 1-4.45-3.05c-1.42-1.41-2.5-3-3.06-4.45-.5-1.32-.5-2.4 0-2.9l.22-.23c.45-.48.97-1.01 1.65-.99.46.02.92.31 1.38.89 1.37 1.7.75 2.31.04 3.02l-.13.12c-.12.12-.34.66 1.72 2.72.67.67 1.25 1.16 1.7 1.46.3.19.8.47 1.02.26l.13-.13c.7-.71 1.3-1.33 3.01.04.58.46.87.92.89 1.39.03.67-.51 1.19-1 1.64l-.22.22c-.24.25-.64.37-1.14.37zm-7.45-11.6c-.49 0-.92.46-1.3.87l-.23.23c-.37.37-.34 1.34.1 2.48.52 1.4 1.57 2.93 2.95 4.31a12.84 12.84 0 0 0 4.31 2.96c1.14.43 2.1.46 2.48.1l.23-.23c.42-.4.89-.84.87-1.34-.02-.34-.27-.7-.74-1.09-1.42-1.14-1.82-.74-2.48-.07l-.13.13c-.31.32-.82.25-1.52-.2-.48-.32-1.07-.83-1.76-1.52-1.71-1.7-2.26-2.75-1.72-3.28l.13-.13c.67-.66 1.07-1.06-.07-2.48-.39-.47-.75-.72-1.1-.74h-.02z"/></defs><g><g transform="translate(-932 -119)"><use xlink:href="#mkxka"/></g></g></svg>