<svg xmlns="http://www.w3.org/2000/svg" xmlns:xlink="http://www.w3.org/1999/xlink" width="20" height="12" viewBox="0 0 20 12"><defs><path id="154ga" d="M881 342a6 6 0 1 1-12 0 5.99 5.99 0 1 1 12 0z"/><path id="154gb" d="M875 336a6 6 0 1 1-6 6"/><path id="154gc" d="M875 336a6 6 0 1 1 0 12"/><path id="154gd" d="M866.94 336a6 6 0 1 0 4.1 10.44c.21-.19.4-.4.6-.63h-1.24a7.32 7.32 0 0 1-.45-.6h2.13c.13-.2.25-.42.35-.64h-2.83c-.1-.19-.19-.41-.25-.63h3.3c.2-.6.32-1.24.32-1.9 0-.45-.07-.87-.13-1.28h-3.68c.03-.22.1-.41.16-.63h3.3a3.78 3.78 0 0 0-.25-.64h-2.8c.1-.22.22-.41.35-.63h2.13a3.02 3.02 0 0 0-.48-.64h-1.17c.19-.22.38-.41.6-.6a5.86 5.86 0 0 0-4.03-1.56c0-.06 0-.06-.03-.06z"/><path id="154ge" d="M861 342a6 6 0 0 0 10.03 4.44c.22-.19.41-.4.6-.63h-1.23a7.32 7.32 0 0 1-.45-.6h2.13c.13-.2.25-.42.35-.64h-2.83c-.1-.19-.19-.41-.25-.63h3.3c.2-.6.32-1.24.32-1.9 0-.45-.07-.87-.13-1.28h-3.68c.03-.22.1-.41.16-.63h3.3a3.78 3.78 0 0 0-.25-.64h-2.8c.1-.22.22-.41.35-.63h2.13a3.02 3.02 0 0 0-.48-.64h-1.17c.19-.22.38-.41.6-.6a5.86 5.86 0 0 0-4.03-1.56h-.03"/><path id="154gf" d="M867 348c1.56 0 2.95-.6 4.03-1.56.22-.19.41-.4.6-.63h-1.23a7.33 7.33 0 0 1-.45-.6h2.13c.13-.2.25-.42.35-.64h-2.83c-.1-.19-.19-.41-.25-.63h3.3c.2-.6.32-1.24.32-1.9 0-.45-.07-.87-.13-1.28h-3.68c.03-.22.1-.41.16-.63h3.3a3.78 3.78 0 0 0-.25-.64h-2.8c.1-.22.22-.41.35-.63h2.13a3.02 3.02 0 0 0-.48-.64h-1.17c.19-.22.38-.41.6-.6a5.86 5.86 0 0 0-4.03-1.56h-.03"/><path id="154gg" d="M869.13 343.52l.1-.54c-.04 0-.1.04-.17.04-.22 0-.25-.13-.22-.2l.2-1.1h.34l.1-.6h-.32l.06-.39h-.63s-.38 2.1-.38 2.35c0 .38.22.54.5.54.2 0 .35-.06.42-.1z"/><path id="154gh" d="M869.35 342.5c0-.79.48-1.48 1.14-1.42.7 0 .92.5.92.92 0 .16-.1.57-.1.57h-1.3s-.12.5.58.5c.31 0 .66-.15.66-.15l-.12.6s-.2.1-.67.1c-.5 0-1.11-.22-1.11-1.11zm.7-.47h.7c0-.03.06-.44-.29-.44s-.41.41-.41.44z"/><path id="154gi" d="M874.5 343.52l.12-.7s-.32.16-.54.16c-.45 0-.64-.35-.64-.73 0-.76.39-1.17.83-1.17.32 0 .57.19.57.19l.1-.67s-.38-.16-.73-.16c-.73 0-1.46.64-1.46 1.85 0 .79.38 1.33 1.14 1.33.25 0 .6-.1.6-.1z"/><path id="154gj" d="M865.63 341.02c.23 0 .86.03.86.79l-.25 1.75h-.57l.03-.26c-.03 0-.22.29-.67.29-.22 0-.6-.13-.6-.7 0-.73.6-.95 1.14-.95h.29s.03-.04.03-.16c0-.2-.2-.22-.41-.22-.42 0-.7.12-.7.12l.1-.54s.31-.12.75-.12zm0 1.4c-.47 0-.57.21-.57.37 0 .1.07.26.26.26.38 0 .44-.51.44-.6l-.13-.04z"/><path id="154gk" d="M867.1 343.59c.15 0 .95.03.95-.83 0-.8-.76-.63-.76-.95 0-.16.12-.22.34-.22l.45.03.1-.57s-.23-.07-.6-.07c-.48 0-.96.2-.96.83 0 .73.8.67.8.95 0 .2-.23.22-.39.22-.28 0-.57-.1-.57-.1l-.1.58c.04.06.2.13.74.13z"/><path id="154gl" d="M880.43 340.54l-.48 3.05h-.63l.03-.22s-.22.25-.6.25c-.54 0-.8-.54-.8-1.05 0-.82.51-1.52 1.08-1.52.35 0 .6.32.6.32l.13-.86zm-.95 1.65c0-.38-.13-.54-.35-.54-.29 0-.51.32-.51.83 0 .31.13.5.35.5.35 0 .5-.44.5-.79z"/><path id="154gm" d="M862.17 343.56l.39-2.29.06 2.29h.44l.83-2.29-.35 2.29h.67l.5-3.05h-1.04l-.64 1.87-.03-1.87h-.92l-.5 3.05z"/><path id="154gn" d="M872.02 343.56c.19-1.05.22-1.9.66-1.75.07-.41.16-.57.22-.73h-.12c-.29 0-.51.38-.51.38l.06-.35h-.6l-.41 2.48h.7z"/><path id="154go" d="M876.81 341.8l-.25 1.76h-.58l.04-.26c-.04 0-.23.29-.67.29-.22 0-.6-.13-.6-.7 0-.73.6-.95 1.14-.95h.28s.04-.04.04-.16c0-.2-.2-.22-.42-.22-.4 0-.7.12-.7.12l.1-.54s.32-.12.76-.12c.22 0 .9.03.86.79zm-.7.64l-.13-.03c-.47 0-.57.22-.57.38 0 .1.07.26.26.26.38 0 .44-.51.44-.6z"/><path id="154gp" d="M877.35 343.56c.19-1.05.22-1.9.67-1.75.06-.41.15-.57.22-.73h-.13c-.28 0-.5.38-.5.38l.06-.35h-.6l-.42 2.48h.7z"/><path id="154gq" d="M868.14 343.08c0 .38.23.54.51.54.22 0 .41-.06.48-.1l.1-.54c-.04 0-.1.04-.17.04-.22 0-.25-.13-.22-.2l.2-1.1h.34l.1-.6h-.32l.06-.39"/><path id="154gr" d="M869.67 342.5c0-.79.16-1.48.82-1.42.7 0 .92.5.92.92 0 .16-.1.57-.1.57h-1.3s-.12.5.58.5c.31 0 .66-.15.66-.15l-.12.6s-.2.1-.67.1c-.5 0-.8-.22-.8-1.11zm.38-.47h.82c0-.03-.06-.44-.41-.44s-.41.41-.41.44z"/><path id="154gs" d="M874.5 343.52l.12-.7s-.32.16-.54.16c-.45 0-.64-.35-.64-.73 0-.76.39-1.17.83-1.17.32 0 .57.19.57.19l.1-.67s-.38-.16-.73-.16c-.73 0-1.15.64-1.15 1.85 0 .79.07 1.33.83 1.33.25 0 .6-.1.6-.1z"/><path id="154gt" d="M865.6 341.08c.26 0 .9.03.9.76l-.26 1.75h-.57l.03-.26c-.03 0-.22.29-.67.29-.22 0-.6-.13-.6-.7 0-.73.6-.95 1.14-.95h.29s.03-.03.03-.16c0-.2-.2-.22-.41-.22-.42 0-.7.12-.7.12zm.03 1.33c-.47 0-.57.22-.57.38 0 .1.07.26.26.26.38 0 .76-.51.76-.6 0 0-.35 0-.45-.04z"/><path id="154gu" d="M866.4 343.52s.19.07.73.07c.16 0 .95.03.95-.83 0-.8-.76-.63-.76-.95 0-.16.12-.22.35-.22l.44.03.1-.57s-.23-.07-.6-.07c-.48 0-.64.2-.64.83 0 .73.47.67.47.95 0 .2-.22.22-.38.22"/><path id="154gv" d="M880.43 340.54l-.48 3.05h-.63l.03-.22s-.22.25-.6.25c-.54 0-.48-.54-.48-1.05 0-.82.19-1.52.76-1.52.35 0 .6.32.6.32zm-.83 1.65c0-.38-.25-.54-.47-.54-.29 0-.51.32-.51.83 0 .31.13.5.35.5.35 0 .63-.44.63-.79z"/><path id="154gw" d="M862.17 343.56l.39-2.29.06 2.29h.44l.83-2.29-.35 2.29h.67l.5-3.05h-.79l-.89 1.87-.03-1.87h-.35l-1.08 3.05z"/><path id="154gx" d="M871.35 343.56h.67c.19-1.05.22-1.9.66-1.75.07-.41.16-.57.22-.73h-.12c-.29 0-.51.38-.51.38l.06-.35"/><path id="154gy" d="M875.92 341.08c.25 0 .89.03.89.76l-.25 1.75h-.58l.04-.26c-.04 0-.23.29-.67.29-.22 0-.6-.13-.6-.7 0-.73.6-.95 1.14-.95h.28s.04-.03.04-.16c0-.2-.2-.22-.42-.22-.4 0-.7.12-.7.12zm.03 1.33c-.47 0-.57.22-.57.38 0 .1.06.26.25.26.39 0 .77-.51.77-.6 0 0-.32 0-.45-.04z"/><path id="154gz" d="M876.68 343.56h.67c.19-1.05.22-1.9.67-1.75.06-.41.15-.57.22-.73h-.13c-.28 0-.5.38-.5.38l.06-.35"/></defs><g><g transform="translate(-861 -336)"><g><use fill="#ffb600" xlink:href="#154ga"/></g><g><use fill="#f7981d" xlink:href="#154gb"/></g><g><use fill="#ff8500" xlink:href="#154gc"/></g><g><use fill="#ff5050" xlink:href="#154gd"/></g><g><use fill="#e52836" xlink:href="#154ge"/></g><g><use fill="#cb2026" xlink:href="#154gf"/></g><g><g><use fill="#fff" xlink:href="#154gg"/></g><g><use fill="#fff" xlink:href="#154gh"/></g><g><use fill="#fff" xlink:href="#154gi"/></g><g><use fill="#fff" xlink:href="#154gj"/></g><g><use fill="#fff" xlink:href="#154gk"/></g><g><use fill="#fff" xlink:href="#154gl"/></g><g><use fill="#fff" xlink:href="#154gm"/></g><g><use fill="#fff" xlink:href="#154gn"/></g><g><use fill="#fff" xlink:href="#154go"/></g><g><use fill="#fff" xlink:href="#154gp"/></g></g><g><g><use fill="#dce5e5" xlink:href="#154gq"/></g><g><use fill="#dce5e5" xlink:href="#154gr"/></g><g><use fill="#dce5e5" xlink:href="#154gs"/></g><g><use fill="#dce5e5" xlink:href="#154gt"/></g><g><use fill="#dce5e5" xlink:href="#154gu"/></g><g><use fill="#dce5e5" xlink:href="#154gv"/></g><g><use fill="#dce5e5" xlink:href="#154gw"/></g><g><use fill="#dce5e5" xlink:href="#154gx"/></g><g><use fill="#dce5e5" xlink:href="#154gy"/></g><g><use fill="#dce5e5" xlink:href="#154gz"/></g></g></g></g></svg>