<svg xmlns="http://www.w3.org/2000/svg" xmlns:xlink="http://www.w3.org/1999/xlink" width="105" height="95" viewBox="0 0 105 95"><defs><path id="50vya" d="M645.96 1980.73l.02.24V2009.4c0 .81-.42 1.57-1.1 2l-12.31 7.75a2.36 2.36 0 0 1-3.63-2v-27.02l-35.9-20.4-20.07 12.64 33.66 19.13 16.32-10.28a2.37 2.37 0 1 1 2.52 4l-17.52 11.04a2.37 2.37 0 0 1-2.43.05l-38.32-21.78a2.37 2.37 0 0 1-.1-4.06l24.62-15.5.02-.01 12.3-7.75 24.6-15.5a2.37 2.37 0 0 1 2.44-.05l38.32 21.78a2.37 2.37 0 0 1 .1 4.06l-17.53 11.03a2.37 2.37 0 1 1-2.52-4l14.18-8.93-33.66-19.13-20.07 12.64 34.86 19.82c.1.05.18.11.26.17l.05.04c.07.05.13.1.18.16l.04.04.2.21.01.03.12.16.02.04.04.08.1.18c0 .03.02.05.03.08l.09.26.06.28v.06zm-4.71 27.37v-22.8l-2.67 1.67a2.35 2.35 0 0 1-3.26-.74c-.7-1.1-.36-2.56.74-3.26l2.95-1.86-33.65-19.12-7.77 4.89 34.88 19.82c.74.42 1.2 1.21 1.2 2.06v24.11z"/><path id="50vyb" d="M666.97 1972.97L649.45 1984a2.37 2.37 0 1 0 2.52 4l17.52-11.02a2.37 2.37 0 1 0-2.52-4z"/><path id="50vyc" d="M622.94 2000.7l-16.31 10.27-37.1-21.08a2.37 2.37 0 1 0-2.33 4.11l38.32 21.79a2.36 2.36 0 0 0 2.43-.06l17.52-11.03a2.37 2.37 0 1 0-2.53-4z"/><path id="50vyd" d="M666.97 1982.44l-17.52 11.03a2.37 2.37 0 1 0 2.52 4l17.52-11.03a2.37 2.37 0 1 0-2.52-4z"/><path id="50vye" d="M622.94 2010.16l-16.31 10.28-37.1-21.09a2.37 2.37 0 1 0-2.33 4.12l38.32 21.78a2.36 2.36 0 0 0 2.43-.05l17.52-11.03a2.37 2.37 0 1 0-2.53-4z"/><path id="50vyf" d="M666.97 1991.9l-17.52 11.03a2.37 2.37 0 1 0 2.52 4.01l17.52-11.03a2.37 2.37 0 1 0-2.52-4z"/><path id="50vyg" d="M622.94 2019.63l-16.31 10.27-37.1-21.08a2.37 2.37 0 1 0-2.33 4.12l38.32 21.78a2.36 2.36 0 0 0 2.43-.06l17.52-11.03a2.37 2.37 0 1 0-2.53-4z"/></defs><g><g transform="translate(-566 -1941)"><use fill="#00aeef" xlink:href="#50vya"/></g><g transform="translate(-566 -1941)"><use fill="#0093ff" xlink:href="#50vyb"/></g><g transform="translate(-566 -1941)"><use fill="#0093ff" xlink:href="#50vyc"/></g><g transform="translate(-566 -1941)"><use fill="#0093ff" xlink:href="#50vyd"/></g><g transform="translate(-566 -1941)"><use fill="#0093ff" xlink:href="#50vye"/></g><g transform="translate(-566 -1941)"><use fill="#0093ff" xlink:href="#50vyf"/></g><g transform="translate(-566 -1941)"><use fill="#0093ff" xlink:href="#50vyg"/></g></g></svg>