<svg xmlns="http://www.w3.org/2000/svg" xmlns:xlink="http://www.w3.org/1999/xlink" width="83" height="100" viewBox="0 0 83 100"><defs><path id="e2zja" d="M162.09 3307.1a5.87 5.87 0 1 1-11.75-.01 5.87 5.87 0 0 1 11.75.01zm-3.35 0a2.52 2.52 0 1 0-5.04 0 2.52 2.52 0 0 0 5.04 0z"/><path id="e2zjb" d="M120.24 3253.56l5.92 5.93a1.67 1.67 0 0 0 2.37 0c.66-.66.66-1.72 0-2.38l-3.67-3.67a8.41 8.41 0 0 0 0-9.25l7.35-7.35a8.56 8.56 0 0 0 9.25 0l3.67 3.68a1.67 1.67 0 1 0 2.37-2.37l-5.93-5.93-1.18 1.18a5.15 5.15 0 0 1-7.11 0l-1.19-1.18-11.85 11.85 1.18 1.19a5.04 5.04 0 0 1 0 7.11z"/><path id="e2zjc" d="M170.14 3265.53a8.41 8.41 0 0 0 0 9.25l-7.35 7.35a8.56 8.56 0 0 0-9.24 0l-3.68-3.68a1.67 1.67 0 1 0-2.37 2.37l5.93 5.93 1.19-1.18a5.15 5.15 0 0 1 7.1 0l1.2 1.18 11.85-11.85-1.19-1.19a5.04 5.04 0 0 1 0-7.11l1.19-1.19-5.93-5.92a1.67 1.67 0 1 0-2.37 2.37z"/><path id="e2zjd" d="M175.46 3270.15a1.68 1.68 0 1 1 3.35 0 1.68 1.68 0 0 1-3.35 0z"/><path id="e2zje" d="M156.5 3289.12a1.68 1.68 0 1 1 3.35 0 1.68 1.68 0 0 1-3.36 0z"/><path id="e2zjf" d="M138.02 3231.04c.65-.66 1.27-1.72.62-2.37a1.67 1.67 0 0 0-2.38 0c-.65.65-1.27 1.71-.61 2.37.65.65 1.71.65 2.37 0z"/><path id="e2zjg" d="M116.2 3248.82a1.68 1.68 0 1 1 3.34 0 1.68 1.68 0 0 1-3.35 0z"/><path id="e2zjh" d="M183.88 3280.28c0 4.22-1.82 8.13-5.02 10.85v5.08h3.35V3318h-43.59v-21.8h3.35v-3l-18.03-17.97a2.46 2.46 0 0 1-.37-.4 7.53 7.53 0 0 1-2.07-10.53l-15.5-15.5 31.47-30.8 8.4 8.5a8.96 8.96 0 0 1 5.94-2.38c4.01 0 6.93 3.17 6.93 7.54 0 .31-.03.61-.07.9.3-.03.6-.06.9-.06a7.55 7.55 0 0 1 7.48 8.45 7.55 7.55 0 0 1 8.38 8.38c.3-.03.6-.06.91-.06a7.53 7.53 0 1 1 5 13.17l7.64 7.72-5.79 5.8c.45 1.4.7 2.84.7 4.32zm-60.35-11.74a4.2 4.2 0 0 0 4.2 4.2h16.65l.5-.05a4.23 4.23 0 0 0 3.8-4.15 4.2 4.2 0 0 0-4.2-4.19h-16.76a4.1 4.1 0 0 0-2.8 1.12l-.26.23a4.17 4.17 0 0 0-1.13 2.84zm14.49-18.54a13.35 13.35 0 0 0-3.83 11h10.3a7.55 7.55 0 0 1 6.96 10.43l-.02.06c-.14.33-.3.64-.48.94a13.36 13.36 0 0 0 9.96-12.94 13.43 13.43 0 0 0-22.9-9.48zm38.32 2.62c-1.25 0-2.41.57-3.2 1.5l5.85 5.92a4.17 4.17 0 0 0-2.65-7.42zm-8.38-8.39c-1.23 0-2.36.56-3.15 1.46l5.85 5.92a4.17 4.17 0 0 0-2.7-7.38zm-8.39-8.37c-1.2 0-2.3.53-3.09 1.4l5.85 5.91a4.17 4.17 0 0 0-2.76-7.31zm-7.76-8.39a5.6 5.6 0 0 0-3.6 1.41l5.8 5.86a4.16 4.16 0 0 0 1.37-3.08c0-2.08-1.1-4.19-3.57-4.19zm-41.04 21.36l13.2 13.2c.11-.07.24-.12.36-.19a7.08 7.08 0 0 1 2.08-.7c.43-.08.87-.14 1.31-.14h3.1a16.68 16.68 0 0 1 4.83-13.37 16.79 16.79 0 0 1 28.61 11.86c0 4.47-1.74 8.68-4.9 11.85a16.8 16.8 0 0 1-14.37 4.7c-.17.01-.33.05-.5.05h-6.46l20.11 20.12h.06l26.06-26.06-5.91-5.99-.03.01-8.38-8.38-.96-.96-7.42-7.42-.97-.96-7.42-7.42-.96-.96-8.38-8.39.14-.32-6.54-6.63zm34.56 42.82v4.56h8.07l-20.11-20.12h-3.74l14.88 14.83c.15.1.23.16.3.23zm20.11 23v-5.75c0-4.1-2.66-7.6-6.35-8.84l-.92.92-1.38-1.39c-.23-.01-.46-.03-.7-.03h-14.12v15.09zm13.41-15.1h-14.18a12.65 12.65 0 0 1 4.13 9.35v5.75h10.05zm-3.35-3.34v-6.72l.67-.5a10.8 10.8 0 0 0 4.25-10.26l-11.23 11.22-6.25 6.26z"/></defs><g><g transform="translate(-106 -3218)"><use fill="#0093ff" xlink:href="#e2zja"/></g><g transform="translate(-106 -3218)"><use fill="#0093ff" xlink:href="#e2zjb"/></g><g transform="translate(-106 -3218)"><use fill="#0093ff" xlink:href="#e2zjc"/></g><g transform="translate(-106 -3218)"><use fill="#0093ff" xlink:href="#e2zjd"/></g><g transform="translate(-106 -3218)"><use fill="#0093ff" xlink:href="#e2zje"/></g><g transform="translate(-106 -3218)"><use fill="#0093ff" xlink:href="#e2zjf"/></g><g transform="translate(-106 -3218)"><use fill="#0093ff" xlink:href="#e2zjg"/></g><g transform="translate(-106 -3218)"><use fill="#00aeef" xlink:href="#e2zjh"/></g></g></svg>