<svg xmlns="http://www.w3.org/2000/svg" xmlns:xlink="http://www.w3.org/1999/xlink" width="100" height="96" viewBox="0 0 100 96"><defs><path id="oj9la" d="M178.76 1956.86v-2.9h20.72v2.9z"/><path id="oj9lb" d="M210.46 1950.65v-2.9h3.1v2.9z"/><path id="oj9lc" d="M215.22 1950.65v-2.9h3.32v2.9z"/><path id="oj9ld" d="M220.2 1950.65v-2.9h3.1v2.9z"/><path id="oj9le" d="M178.76 1962.69v-2.91h6.42v2.9z"/><path id="oj9lf" d="M178.76 1971.61v-2.9h17.4v2.9z"/><path id="oj9lg" d="M199.48 1971.61v-2.9H209v2.9z"/><path id="oj9lh" d="M178.76 1977.63v-2.91h23.83v2.91z"/><path id="oj9li" d="M205.7 1977.63v-2.91h11.39v2.91z"/><path id="oj9lj" d="M178.76 1983.65v-2.91h6.42v2.9z"/><path id="oj9lk" d="M188.29 1983.65v-2.91h22.17v2.9z"/><path id="oj9ll" d="M178.76 1989.47v-2.91h38.33v2.9z"/><path id="oj9lm" d="M178.76 1995.48v-2.9h14.3v2.9z"/><path id="oj9ln" d="M196.16 1995.48v-2.9h3.32v2.9z"/><path id="oj9lo" d="M178.76 2001.5v-2.91h31.7v2.91z"/><path id="oj9lp" d="M178.76 2017.8v-2.9h10.98v2.9z"/><path id="oj9lq" d="M178.76 2007.32v-2.9h7.87v2.9z"/><path id="oj9lr" d="M263.87 1965.27a4.26 4.26 0 0 1 0 6.3l-1.14 1.06 1.14 1.07-2.22 2.08-9.02-8.44-10.14 9.5-2.22-2.08 12.36-11.58 3.38 3.16 1.14-1.07a4.99 4.99 0 0 1 6.72 0zm-2.22 2.08a1.7 1.7 0 0 0-2.28 0l-1.14 1.07 2.28 2.13 1.14-1.06c.63-.6.63-1.55 0-2.14z"/><path id="oj9ls" d="M242.48 1991.6l1.12 1.06-12.4 11.62v31.49H166v-95.35h65.2v47.05l3.43-3.22 1.13 1.06 16.87-15.81 6.73 6.3zm-14.43 41.23v-25.6l-.17.15-1.12-1.05-2.38 2.23-7.95 4.96-.93-.87-2.26 2.12-2.22-2.08 2.26-2.12-.92-.86 5.3-7.45 2.37-2.23-1.12-1.05 9.14-8.57v-47.04h-58.9v89.46zm-7.95-28.7l-3.7 5.2.43.4 5.55-3.46 2.15-2.02-2.27-2.13zm19.06-11.47l-4.53-4.24-11.28 10.56 4.53 4.24.17-.16v-.06h.07zm1.1-3.14l14.65-13.72-2.28-2.14-14.65 13.73z"/><path id="oj9lt" d="M210.1 2013.6l-1.71 1.3h-7.25v2.9h8.35l2.57-1.95z"/></defs><g><g transform="translate(-166 -1940)"><use fill="#0093ff" xlink:href="#oj9la"/></g><g transform="translate(-166 -1940)"><use fill="#0093ff" xlink:href="#oj9lb"/></g><g transform="translate(-166 -1940)"><use fill="#0093ff" xlink:href="#oj9lc"/></g><g transform="translate(-166 -1940)"><use fill="#0093ff" xlink:href="#oj9ld"/></g><g transform="translate(-166 -1940)"><use fill="#0093ff" xlink:href="#oj9le"/></g><g transform="translate(-166 -1940)"><use fill="#0093ff" xlink:href="#oj9lf"/></g><g transform="translate(-166 -1940)"><use fill="#0093ff" xlink:href="#oj9lg"/></g><g transform="translate(-166 -1940)"><use fill="#0093ff" xlink:href="#oj9lh"/></g><g transform="translate(-166 -1940)"><use fill="#0093ff" xlink:href="#oj9li"/></g><g transform="translate(-166 -1940)"><use fill="#0093ff" xlink:href="#oj9lj"/></g><g transform="translate(-166 -1940)"><use fill="#0093ff" xlink:href="#oj9lk"/></g><g transform="translate(-166 -1940)"><use fill="#0093ff" xlink:href="#oj9ll"/></g><g transform="translate(-166 -1940)"><use fill="#0093ff" xlink:href="#oj9lm"/></g><g transform="translate(-166 -1940)"><use fill="#0093ff" xlink:href="#oj9ln"/></g><g transform="translate(-166 -1940)"><use fill="#0093ff" xlink:href="#oj9lo"/></g><g transform="translate(-166 -1940)"><use fill="#0093ff" xlink:href="#oj9lp"/></g><g transform="translate(-166 -1940)"><use fill="#0093ff" xlink:href="#oj9lq"/></g><g transform="translate(-166 -1940)"><use fill="#00aeef" xlink:href="#oj9lr"/></g><g transform="translate(-166 -1940)"><use fill="#00aeef" xlink:href="#oj9ls"/></g><g transform="translate(-166 -1940)"><use fill="#0093ff" xlink:href="#oj9lt"/></g></g></svg>