<svg xmlns="http://www.w3.org/2000/svg" xmlns:xlink="http://www.w3.org/1999/xlink" width="92" height="100" viewBox="0 0 92 100"><defs><path id="ek2za" d="M704.37 2848.39A1.67 1.67 0 0 1 703 2851h-61.67a8.34 8.34 0 0 1-8.33-8.33c0-1.89.65-3.6 1.71-5h-18.38v41.66a1.67 1.67 0 1 1-3.33 0v-96.66a1.67 1.67 0 1 1 3.33 0v3.33h35c.92 0 1.67.74 1.67 1.67v6.66h50a1.67 1.67 0 0 1 1.37 2.61l-17.68 25.73zm-88.04-14.06h33.34v-45h-33.34zm83.5 13.34l-16.54-24.06a1.67 1.67 0 0 1 0-1.89l16.54-24.05H653V2836c0 .92-.74 1.67-1.67 1.67h-10a5 5 0 0 0 0 10z"/></defs><g><g transform="translate(-613 -2781)"><use fill="#00aeef" xlink:href="#ek2za"/></g></g></svg>