<svg xmlns="http://www.w3.org/2000/svg" xmlns:xlink="http://www.w3.org/1999/xlink" width="15" height="15" viewBox="0 0 15 15"><defs><path id="zlgla" d="M1109 897.65h-3.22v-5.17c0-1.3-.46-2.2-1.62-2.2-.9 0-1.42.6-1.65 1.18-.09.21-.11.5-.11.79v5.4h-3.22s.05-8.76 0-9.67h3.22v1.37l-.02.03h.02v-.03a3.2 3.2 0 0 1 2.9-1.6c2.12 0 3.7 1.38 3.7 4.36zm-13.18-14.33c1.1 0 1.78.72 1.8 1.67 0 .93-.7 1.67-1.82 1.67h-.02c-1.08 0-1.78-.74-1.78-1.67 0-.95.72-1.67 1.82-1.67zm-1.63 4.66h3.22v9.67h-3.22z"/></defs><g><g transform="translate(-1094 -883)"><use fill="#fff" xlink:href="#zlgla"/></g></g></svg>