<svg xmlns="http://www.w3.org/2000/svg" xmlns:xlink="http://www.w3.org/1999/xlink" width="69" height="96" viewBox="0 0 69 96"><defs><path id="wc93a" d="M598 1251v-96h69v96z"/><path id="wc93b" d="M647.22 1165.66v-2.92h3.32v2.92z"/><path id="wc93c" d="M637.7 1192.63v-2.91h11.39v2.91z"/><path id="wc93e" d="M610.76 1171.87v-2.92h20.72v2.92z"/><path id="wc93f" d="M610.76 1177.69v-2.91h6.42v2.9z"/><path id="wc93g" d="M610.76 1186.61v-2.9h17.4v2.9z"/><path id="wc93h" d="M631.48 1186.61v-2.9H641v2.9z"/><path id="wc93i" d="M610.76 1192.63v-2.91h23.83v2.91z"/><path id="wc93j" d="M610.76 1198.65v-2.91h6.42v2.9z"/><path id="wc93k" d="M620.29 1198.65v-2.91h22.17v2.9z"/><path id="wc93l" d="M610.76 1204.47v-2.91h38.33v2.9z"/><path id="wc93m" d="M610.76 1210.48v-2.9h14.3v2.9z"/><path id="wc93n" d="M628.16 1210.48v-2.9h3.32v2.9z"/><path id="wc93o" d="M610.76 1216.5v-2.91h31.7v2.91z"/><path id="wc93p" d="M610.76 1232.8v-2.9h10.98v2.9z"/><path id="wc93q" d="M610.76 1222.32v-2.9h7.87v2.9z"/><path id="wc93r" d="M642.1 1228.6l-1.71 1.3h-7.25v2.9h8.35l2.57-1.95z"/><path id="wc93s" d="M642.46 1165.66v-2.92h3.1v2.92z"/><path id="wc93t" d="M652.2 1165.66v-2.92h3.1v2.92z"/><path id="wc93u" d="M647.46 1165.66v-2.92h3.1v2.92z"/><clipPath id="wc93d"><use fill="#fff" xlink:href="#wc93a"/></clipPath></defs><g><g transform="translate(-598 -1155)"><use fill="#0093ff" xlink:href="#wc93b"/></g><g transform="translate(-598 -1155)"><use fill="#0093ff" xlink:href="#wc93c"/></g><g transform="translate(-598 -1155)"><use fill="#fff" xlink:href="#wc93a"/><use fill="#fff" fill-opacity="0" stroke="#00aeef" stroke-miterlimit="50" stroke-width="6" clip-path="url(&quot;#wc93d&quot;)" xlink:href="#wc93a"/></g><g transform="translate(-598 -1155)"><use fill="#0093ff" xlink:href="#wc93e"/></g><g transform="translate(-598 -1155)"><use fill="#0093ff" xlink:href="#wc93f"/></g><g transform="translate(-598 -1155)"><use fill="#0093ff" xlink:href="#wc93g"/></g><g transform="translate(-598 -1155)"><use fill="#0093ff" xlink:href="#wc93h"/></g><g transform="translate(-598 -1155)"><use fill="#0093ff" xlink:href="#wc93i"/></g><g transform="translate(-598 -1155)"><use fill="#0093ff" xlink:href="#wc93j"/></g><g transform="translate(-598 -1155)"><use fill="#0093ff" xlink:href="#wc93k"/></g><g transform="translate(-598 -1155)"><use fill="#0093ff" xlink:href="#wc93l"/></g><g transform="translate(-598 -1155)"><use fill="#0093ff" xlink:href="#wc93m"/></g><g transform="translate(-598 -1155)"><use fill="#0093ff" xlink:href="#wc93n"/></g><g transform="translate(-598 -1155)"><use fill="#0093ff" xlink:href="#wc93o"/></g><g transform="translate(-598 -1155)"><use fill="#0093ff" xlink:href="#wc93p"/></g><g transform="translate(-598 -1155)"><use fill="#0093ff" xlink:href="#wc93q"/></g><g transform="translate(-598 -1155)"><use fill="#0093ff" xlink:href="#wc93r"/></g><g transform="translate(-598 -1155)"><g><use fill="#0093ff" xlink:href="#wc93s"/></g><g><use fill="#0093ff" xlink:href="#wc93t"/></g><g><use fill="#0093ff" xlink:href="#wc93u"/></g></g></g></svg>