<svg xmlns="http://www.w3.org/2000/svg" viewBox="-3549 126 82.984 100">
  <defs>
    <style>
      .cls-1 {
        fill: #0093ff;
      }

      .cls-2 {
        fill: #00aeef;
      }
    </style>
  </defs>
  <g id="money" transform="translate(-3554.075 126)">
    <path id="Path_143" data-name="Path 143" class="cls-1" d="M37.4,49.65a5.868,5.868,0,1,0,5.868,5.868A5.874,5.874,0,0,0,37.4,49.65Zm0,8.382a2.515,2.515,0,1,1,2.515-2.515A2.518,2.518,0,0,1,37.4,58.032Z" transform="translate(17.897 33.586)"/>
    <path id="Path_144" data-name="Path 144" class="cls-1" d="M13.569,29.821l5.926,5.926a1.676,1.676,0,1,0,2.37-2.37L18.191,29.7a8.411,8.411,0,0,0,0-9.246l7.35-7.351a8.564,8.564,0,0,0,9.247,0l3.675,3.675a1.676,1.676,0,0,0,2.37-2.37L34.9,8.482,33.72,9.667a5.152,5.152,0,0,1-7.113,0L25.421,8.482,13.567,20.336l1.185,1.185a5.038,5.038,0,0,1,0,7.113Z" transform="translate(5.744 5.738)"/>
    <path id="Path_145" data-name="Path 145" class="cls-1" d="M52.671,30.99a8.411,8.411,0,0,0,0,9.246l-7.35,7.351a8.557,8.557,0,0,0-9.247,0L32.4,43.912a1.676,1.676,0,0,0-2.37,2.37l5.928,5.928,1.185-1.185a5.152,5.152,0,0,1,7.113,0l1.185,1.185L57.3,40.356,56.11,39.171a5.038,5.038,0,0,1,0-7.113L57.3,30.873l-5.926-5.926A1.676,1.676,0,1,0,49,27.317Z" transform="translate(16.548 16.542)"/>
    <circle id="Ellipse_5" data-name="Ellipse 5" class="cls-1" cx="1.676" cy="1.676" r="1.676" transform="translate(74.537 50.478)"/>
    <circle id="Ellipse_6" data-name="Ellipse 6" class="cls-1" cx="1.676" cy="1.676" r="1.676" transform="translate(55.57 69.445)"/>
    <path id="Path_146" data-name="Path 146" class="cls-1" d="M25.243,8.931c.655-.655,1.271-1.717.617-2.37a1.675,1.675,0,0,0-2.37,0c-.655.655-1.271,1.717-.617,2.37A1.678,1.678,0,0,0,25.243,8.931Z" transform="translate(11.85 4.105)"/>
    <circle id="Ellipse_7" data-name="Ellipse 7" class="cls-1" cx="1.676" cy="1.676" r="1.676" transform="translate(15.266 29.14)"/>
    <path id="Path_147" data-name="Path 147" class="cls-2" d="M82.959,62.28a14.032,14.032,0,0,0-.692-4.325l5.792-5.792-7.636-7.732a7.529,7.529,0,0,0-5.008-13.165,7.375,7.375,0,0,0-.905.067,7.351,7.351,0,0,0,.067-.905,7.553,7.553,0,0,0-7.544-7.544,7.375,7.375,0,0,0-.905.067,7.351,7.351,0,0,0,.067-.905A7.553,7.553,0,0,0,58.651,14.5a7.376,7.376,0,0,0-.905.067,7.351,7.351,0,0,0,.067-.905c0-4.37-2.914-7.544-6.927-7.544A8.96,8.96,0,0,0,44.944,8.5L36.545,0,5.075,30.8l15.5,15.5a7.52,7.52,0,0,0,2.07,10.528,2.461,2.461,0,0,0,.379.4L41.05,75.2v3.011H37.7V100H81.285V78.206H77.932V73.128A14.115,14.115,0,0,0,82.959,62.28ZM22.607,50.545A4.165,4.165,0,0,1,23.739,47.7L24,47.465a4.229,4.229,0,0,1,2.023-1.033,4.107,4.107,0,0,1,.778-.079H43.561a4.2,4.2,0,0,1,4.191,4.191,4.13,4.13,0,0,1-.08.793,4.235,4.235,0,0,1-3.722,3.351l-.5.047H26.8A4.2,4.2,0,0,1,22.607,50.545ZM37.1,32A13.411,13.411,0,1,1,50.029,54.431a7.617,7.617,0,0,0,.478-.94c.008-.02.013-.044.023-.064a7.6,7.6,0,0,0,.374-1.2c.025-.107.047-.213.067-.32A7.478,7.478,0,0,0,43.565,43h-10.3A13.348,13.348,0,0,1,37.1,32ZM79.606,38.81a4.172,4.172,0,0,1-1.541,3.232l-5.847-5.921a4.178,4.178,0,0,1,7.388,2.689Zm-8.382-8.382a4.173,4.173,0,0,1-1.489,3.18l-5.847-5.921a4.173,4.173,0,0,1,7.336,2.741Zm-8.382-8.382a4.169,4.169,0,0,1-1.437,3.128l-5.847-5.92a4.169,4.169,0,0,1,7.284,2.791ZM50.886,9.472c2.469,0,3.574,2.106,3.574,4.191a4.162,4.162,0,0,1-1.383,3.075l-5.784-5.856A5.593,5.593,0,0,1,50.886,9.472ZM36.505,4.731l6.545,6.625-.144.329,8.382,8.382.961.961,7.422,7.422.961.961,7.422,7.422.961.961L77.4,46.174l.027-.012,5.911,5.985L57.274,78.206h-.055L37.1,58.089h6.461c.171,0,.332-.039.5-.05a16.6,16.6,0,0,0,2.5.2A16.762,16.762,0,1,0,29.893,43H26.8a7.251,7.251,0,0,0-1.308.132c-.139.025-.277.052-.412.084a7.516,7.516,0,0,0-.915.285,7.075,7.075,0,0,0-.753.34c-.122.064-.25.116-.369.184l-13.2-13.2ZM43.811,73.15c-.075-.065-.154-.124-.3-.235L28.627,58.089h3.733L52.478,78.206H44.4V73.65Zm-2.763,23.5V81.559H55.172c.233,0,.463.018.691.035l1.381,1.381.917-.917A9.354,9.354,0,0,1,64.517,90.9v5.743Zm36.882,0H67.871V90.9a12.651,12.651,0,0,0-4.131-9.345H77.93ZM62.015,78.206l6.251-6.251L79.494,60.728a10.644,10.644,0,0,1,.112,1.552,10.808,10.808,0,0,1-4.362,8.7l-.667.5v6.721Z"/>
  </g>
</svg>
