<svg xmlns="http://www.w3.org/2000/svg" xmlns:xlink="http://www.w3.org/1999/xlink" width="97" height="100" viewBox="0 0 97 100"><defs><path id="eg37a" d="M1106.14 2860.32c-15.5 0-16.67-3.67-16.67-4.83v-6.67h3.33c0-.34-.16-.5-.16-.5.66.66 5.5 2 13.5 2s12.84-1.34 13.51-2c0 0-.17.16-.17.5h3.34v6.67c0 1.16-1.17 4.83-16.68 4.83zm-13.34-5.17c1 .67 5.84 1.84 13.34 1.84s12.34-1.17 13.34-1.84V2852c-2.33.83-6.5 1.66-13.34 1.66-6.83 0-11-.66-13.34-1.66z"/><path id="eg37b" d="M1076.13 2810.97h-20.01c-1 0-1.67-.67-1.67-1.67 0-1 .67-1.67 1.67-1.67h20c1.01 0 1.68.67 1.68 1.67 0 1-.67 1.67-1.67 1.67zm0-5h-20.01c-1 0-1.67-.67-1.67-1.67 0-1 .67-1.67 1.67-1.67h20c1.01 0 1.68.67 1.68 1.67 0 1-.67 1.66-1.67 1.66z"/><path id="eg37c" d="M1071.46 2800.96h-12.34a4.8 4.8 0 0 1-4.5-3.33c-.5-1.34-3.17-5.84-5-7.34-1.34-1.17-2-3-1.67-4.67.33-1.67 1.5-3 3.17-3.67 5-1.66 9.5-1.16 12.84 1.67.66.5 1.5.5 2 0 3.33-2.67 7.84-3.33 12.84-1.67a4.51 4.51 0 0 1 3.17 3.67 4.9 4.9 0 0 1-1.67 4.67c-1.5 1.33-3.67 5.5-4.34 7.34a4.8 4.8 0 0 1-4.5 3.33zm-15-16.67c-1.34 0-2.84.33-4.34.83-.67.17-1 .67-1 1-.17.5.16 1.17.5 1.5 2.17 1.84 5.33 6.84 6 8.84.33.83.83 1.17 1.5 1.17h12.34c.67 0 1.17-.34 1.33-1 .5-1.17 2.67-6.67 5.17-8.84.5-.33.67-1 .5-1.5 0-.34-.33-.84-1-1.17-4-1.33-7.17-1-9.67 1a4.56 4.56 0 0 1-6 0 8.62 8.62 0 0 0-5.34-1.83z"/><path id="eg37d" d="M1081.3 2812.97c-2 0-3.84-.67-5.34-2-.83-.17-1.5-.84-1.5-1.67v-5c0-1 .67-1.67 1.67-1.67 1 0 1.67.67 1.67 1.67v3.83a5.14 5.14 0 0 0 7 0 1.61 1.61 0 0 1 2.33 0c.67.67.67 1.67 0 2.34a7.82 7.82 0 0 1-5.83 2.5z"/><path id="eg37e" d="M1106.14 2846.98c-15.5 0-16.67-3.66-16.67-4.83 0-3.34 8.34-6.84 16.67-6.84 8.34 0 16.68 3.5 16.68 6.84 0 1.17-1.17 4.83-16.68 4.83zm-12.84-5c1.67.67 6 1.67 12.84 1.67s11.34-1 12.84-1.67c-1.5-1.17-6.33-3.33-12.84-3.33-6.5 0-11.34 2.16-12.84 3.33z"/><path id="eg37f" d="M1106.14 2880.33c-5.67 0-10.83-.66-13.67-1.66l-2.83-1 2.5-1.84a9.39 9.39 0 0 0 3.5-4.84l.5-1.33 1.33.17c2.5.33 5.5.66 8.67.66 8 0 12.84-1.33 13.51-2 0 0-.17.17-.17.5h3.34v6.67c0 1-1.17 4.67-16.68 4.67zm-9.83-4.17c2.66.5 6 .84 9.83.84 7.5 0 12.34-1.17 13.34-1.84V2872c-2.33.83-6.5 1.66-13.34 1.66-2.83 0-5.5-.16-7.83-.5a9.46 9.46 0 0 1-2 3z"/><path id="eg37g" d="M1106.14 2867c-3.16 0-6.33-.17-9-.67l-1-.17-.33-1a9.9 9.9 0 0 0-5.34-6.5l-1-.5v-2.67h3.33c0-.34-.16-.5-.16-.5.66.66 5.5 2 13.5 2s12.84-1.34 13.51-2c0 0-.17.16-.17.5h3.34v6.67c0 1.16-1.17 4.83-16.68 4.83zm-7.5-3.84c2.17.33 4.84.5 7.5.5 7.67 0 12.34-1.17 13.34-1.84v-3.16c-2.33.83-6.5 1.66-13.34 1.66-4 0-7-.16-9.33-.66.83 1.16 1.5 2.33 1.83 3.5z"/><path id="eg37h" d="M1106.14 2873.66c-3.33 0-6.5-.16-9.17-.66l-2-.34.67-1.83c.33-1 .5-2.17.5-3.17 0-.83-.17-1.67-.33-2.5l-.67-2.5 2.5.33c2.5.33 5.5.5 8.5.5 8.17 0 12.84-1.33 13.51-2 0 0-.17.17-.17.5h3.34v6.67c0 1.33-1.17 5-16.68 5zm-6.83-3.67c2.16.17 4.5.34 6.83.34 7.5 0 12.34-1.17 13.34-1.84v-3.16c-2.33.83-6.5 1.66-13.34 1.66a81 81 0 0 1-6.67-.33v1c0 .83 0 1.5-.16 2.33z"/><path id="eg37i" d="M1079.13 2875.33h-37.18c-4.84-.33-9.17-4.17-12.51-10.84-7-13.67-3-30.51 9.17-40.18l11.84-8.67c2.5-2 5.67-3 8.84-3h13c3.67 0 6.84 1.83 8.67 3.33l12.01 8.17a34.67 34.67 0 0 1 10 12.5l1 2-2.16.34c-5.17.83-8.34 2.67-9 3.33v17.35l-2.34-1.17c-2-1-4.17-1.17-6.34-.83-4 .83-7.17 4.16-7.83 8.17-.34 2.33.16 4.66 1.33 6.67zm-19.84-59.36c-2.5 0-4.84.83-6.84 2.33l-11.84 8.67c-11 8.67-14.5 23.85-8.34 36.19 2.84 5.5 6.17 8.67 9.84 8.84h31.35c-.67-2-.83-4.17-.5-6.34.83-5.5 5-9.84 10.5-11 2-.5 4.17-.34 6 .16v-12.67c0-2.67 4.68-4.84 9.51-6-2-3.67-4.67-6.84-8-9.34l-12-8.17c-1.67-1.34-4.17-2.67-6.84-2.67z"/><path id="eg37j" d="M1086.13 2881c-7.33 0-13.34-6-13.34-13.34s6-13.34 13.34-13.34 13.34 6 13.34 13.34-6 13.34-13.34 13.34zm0-23.34c-5.5 0-10 4.5-10 10s4.5 10 10 10 10-4.5 10-10-4.5-10-10-10z"/><path id="eg37k" d="M1039.45 2850.99c-1 0-1.67-.67-1.67-1.67 0-11.5 12.67-25.01 23.34-25.01 1 0 1.67.66 1.67 1.66 0 1-.67 1.67-1.67 1.67-8.84 0-20 12.17-20 21.68 0 1-.67 1.67-1.67 1.67z"/></defs><g><g transform="translate(-1026 -2781)"><use fill="#0096e6" xlink:href="#eg37a"/></g><g transform="translate(-1026 -2781)"><use fill="#0093ff" xlink:href="#eg37b"/></g><g transform="translate(-1026 -2781)"><use fill="#0096e6" xlink:href="#eg37c"/></g><g transform="translate(-1026 -2781)"><use fill="#0093ff" xlink:href="#eg37d"/></g><g transform="translate(-1026 -2781)"><use fill="#0096e6" xlink:href="#eg37e"/></g><g transform="translate(-1026 -2781)"><use fill="#0096e6" xlink:href="#eg37f"/></g><g transform="translate(-1026 -2781)"><use fill="#0096e6" xlink:href="#eg37g"/></g><g transform="translate(-1026 -2781)"><use fill="#0096e6" xlink:href="#eg37h"/></g><g transform="translate(-1026 -2781)"><use fill="#0096e6" xlink:href="#eg37i"/></g><g transform="translate(-1026 -2781)"><use fill="#0096e6" xlink:href="#eg37j"/></g><g transform="translate(-1026 -2781)"><use fill="#0093ff" xlink:href="#eg37k"/></g></g></svg>