<svg xmlns="http://www.w3.org/2000/svg" viewBox="-1585 147 82.365 61">
  <defs>
    <style>
      .cls-1 {
        fill: #00aeef;
      }

      .cls-2 {
        fill: #0093ff;
      }
    </style>
  </defs>
  <g id="moving-truck" transform="translate(-1585 74.38)">
    <g id="Group_87" data-name="Group 87" transform="translate(15.657 109.514)">
      <g id="Group_86" data-name="Group 86">
        <path id="Path_148" data-name="Path 148" class="cls-1" d="M100.846,294.445a3.641,3.641,0,1,0,3.516,3.639A3.583,3.583,0,0,0,100.846,294.445Zm0,4.671a1.033,1.033,0,1,1,.995-1.032A1.015,1.015,0,0,1,100.846,299.116Z" transform="translate(-97.33 -294.445)"/>
      </g>
    </g>
    <g id="Group_89" data-name="Group 89" transform="translate(4.557 76.186)">
      <g id="Group_88" data-name="Group 88" transform="translate(0 0)">
        <path id="Path_149" data-name="Path 149" class="cls-1" d="M30.479,94.443a1.231,1.231,0,0,0-1.783,0,1.337,1.337,0,0,0,0,1.842,1.231,1.231,0,0,0,1.783,0,1.332,1.332,0,0,0,0-1.842Z" transform="translate(-28.328 -94.061)"/>
      </g>
    </g>
    <g id="Group_91" data-name="Group 91" transform="translate(4.557 100.253)">
      <g id="Group_90" data-name="Group 90">
        <path id="Path_150" data-name="Path 150" class="cls-1" d="M30.479,239.141a1.235,1.235,0,0,0-1.783,0,1.339,1.339,0,0,0,0,1.844,1.231,1.231,0,0,0,1.783,0,1.334,1.334,0,0,0,0-1.844Z" transform="translate(-28.328 -238.76)"/>
      </g>
    </g>
    <g id="Group_93" data-name="Group 93" transform="translate(47.602 76.186)">
      <g id="Group_92" data-name="Group 92" transform="translate(0 0)">
        <path id="Path_151" data-name="Path 151" class="cls-1" d="M298.055,94.443a1.229,1.229,0,0,0-1.782,0,1.332,1.332,0,0,0,0,1.842,1.229,1.229,0,0,0,1.782,0,1.332,1.332,0,0,0,0-1.842Z" transform="translate(-295.904 -94.061)"/>
      </g>
    </g>
    <g id="Group_95" data-name="Group 95" transform="translate(47.602 100.253)">
      <g id="Group_94" data-name="Group 94">
        <path id="Path_152" data-name="Path 152" class="cls-1" d="M298.055,239.141a1.233,1.233,0,0,0-1.782,0,1.334,1.334,0,0,0,0,1.844,1.229,1.229,0,0,0,1.782,0,1.334,1.334,0,0,0,0-1.844Z" transform="translate(-295.904 -238.76)"/>
      </g>
    </g>
    <g id="Group_97" data-name="Group 97" transform="translate(17.168 78.758)">
      <g id="Group_96" data-name="Group 96" transform="translate(0 0)">
        <path id="Path_153" data-name="Path 153" class="cls-2" d="M126.908,122.853a1.283,1.283,0,0,0,1.261-1.3V111.7a2.14,2.14,0,0,0-2.1-2.172H108.821a2.14,2.14,0,0,0-2.1,2.172v17.828a2.14,2.14,0,0,0,2.1,2.172h17.247a2.14,2.14,0,0,0,2.1-2.172v-2.938a1.261,1.261,0,1,0-2.521,0v2.5H109.241V112.134h16.406v9.416A1.283,1.283,0,0,0,126.908,122.853Z" transform="translate(-106.72 -109.527)"/>
      </g>
    </g>
    <g id="Group_99" data-name="Group 99" transform="translate(20.511 82.828)">
      <g id="Group_98" data-name="Group 98" transform="translate(0 0)">
        <path id="Path_154" data-name="Path 154" class="cls-2" d="M134.41,136.841l-2.378-2.465a1.232,1.232,0,0,0-1.785,0l-2.378,2.465a1.335,1.335,0,0,0,0,1.843,1.232,1.232,0,0,0,1.783,0l.225-.234v4.188a1.261,1.261,0,1,0,2.521,0v-4.187l.225.233a1.232,1.232,0,0,0,1.783,0A1.335,1.335,0,0,0,134.41,136.841Z" transform="translate(-127.501 -133.993)"/>
      </g>
    </g>
    <g id="Group_101" data-name="Group 101" transform="translate(27.997 82.828)">
      <g id="Group_100" data-name="Group 100" transform="translate(0 0)">
        <path id="Path_155" data-name="Path 155" class="cls-2" d="M180.945,136.841l-2.378-2.465a1.232,1.232,0,0,0-1.785,0l-2.378,2.465a1.335,1.335,0,0,0,0,1.843,1.232,1.232,0,0,0,1.783,0l.225-.233v4.187a1.261,1.261,0,1,0,2.521,0v-4.188l.225.234a1.232,1.232,0,0,0,1.783,0A1.336,1.336,0,0,0,180.945,136.841Z" transform="translate(-174.036 -133.993)"/>
      </g>
    </g>
    <g id="Group_103" data-name="Group 103" transform="translate(20.873 93.909)">
      <g id="Group_102" data-name="Group 102" transform="translate(0 0)">
        <path id="Path_156" data-name="Path 156" class="cls-2" d="M142.531,200.621H131.014a1.3,1.3,0,0,0,0,2.607h11.517a1.3,1.3,0,0,0,0-2.607Z" transform="translate(-129.753 -200.621)"/>
      </g>
    </g>
    <g id="Group_105" data-name="Group 105" transform="translate(23.449 125.009)">
      <g id="Group_104" data-name="Group 104">
        <path id="Path_157" data-name="Path 157" class="cls-2" d="M203.418,387.609H147.024a1.3,1.3,0,0,0,0,2.607h56.394a1.3,1.3,0,0,0,0-2.607Z" transform="translate(-145.763 -387.609)"/>
      </g>
    </g>
    <g id="Group_107" data-name="Group 107" transform="translate(0 125.009)">
      <g id="Group_106" data-name="Group 106">
        <path id="Path_158" data-name="Path 158" class="cls-2" d="M19.162,387.609H1.261a1.3,1.3,0,0,0,0,2.607h17.9a1.3,1.3,0,0,0,0-2.607Z" transform="translate(0 -387.609)"/>
      </g>
    </g>
    <g id="Group_109" data-name="Group 109" transform="translate(65.135 131.013)">
      <g id="Group_108" data-name="Group 108">
        <path id="Path_159" data-name="Path 159" class="cls-2" d="M420.866,423.706H406.158a1.3,1.3,0,0,0,0,2.607h14.708a1.3,1.3,0,0,0,0-2.607Z" transform="translate(-404.897 -423.706)"/>
      </g>
    </g>
    <g id="Group_111" data-name="Group 111" transform="translate(0 131.013)">
      <g id="Group_110" data-name="Group 110">
        <path id="Path_160" data-name="Path 160" class="cls-2" d="M60.513,423.706H1.261a1.3,1.3,0,0,0,0,2.607H60.513a1.3,1.3,0,0,0,0-2.607Z" transform="translate(0 -423.706)"/>
      </g>
    </g>
    <g id="Group_113" data-name="Group 113" transform="translate(57.963 86.624)">
      <g id="Group_112" data-name="Group 112">
        <path id="Path_161" data-name="Path 161" class="cls-2" d="M375.061,161.892l-3.015-4.136a2.354,2.354,0,0,0-1.815-.935h-8.154a1.8,1.8,0,0,0-1.765,1.825v7.813a1.8,1.8,0,0,0,1.765,1.825h3.979a1.3,1.3,0,0,0,0-2.607h-3.222v-6.249h7.274l2.93,4.019a.75.75,0,0,1,.06.185v2.044h-1.662a1.3,1.3,0,0,0,0,2.607h2.419a1.8,1.8,0,0,0,1.765-1.825v-2.844A3.165,3.165,0,0,0,375.061,161.892Z" transform="translate(-360.313 -156.821)"/>
      </g>
    </g>
    <g id="Group_115" data-name="Group 115" transform="translate(57.963 99.505)">
      <g id="Group_114" data-name="Group 114" transform="translate(0 0)">
        <path id="Path_162" data-name="Path 162" class="cls-1" d="M365.546,234.267h-3.974a1.3,1.3,0,0,0,0,2.607h3.974a1.3,1.3,0,0,0,0-2.607Z" transform="translate(-360.312 -234.267)"/>
      </g>
    </g>
    <g id="Group_117" data-name="Group 117" transform="translate(61.754 109.514)">
      <g id="Group_116" data-name="Group 116">
        <path id="Path_163" data-name="Path 163" class="cls-1" d="M387.4,294.445a3.641,3.641,0,1,0,3.516,3.639A3.583,3.583,0,0,0,387.4,294.445Zm0,4.671a1.033,1.033,0,1,1,.994-1.032A1.015,1.015,0,0,1,387.4,299.116Z" transform="translate(-383.882 -294.445)"/>
      </g>
    </g>
    <g id="Group_119" data-name="Group 119" transform="translate(0 72.62)">
      <g id="Group_118" data-name="Group 118" transform="translate(0 0)">
        <path id="Path_164" data-name="Path 164" class="cls-1" d="M82.365,109.43v-2.914a2.182,2.182,0,0,0-1.149-1.934V98.726a4.434,4.434,0,0,0-.758-2.341l-8.84-12.128a3.09,3.09,0,0,0-2.348-1.21H56.606a2.137,2.137,0,0,0-2.1,2.169v18.771h-.626V74.792a2.14,2.14,0,0,0-2.1-2.172H22.188a1.3,1.3,0,0,0,0,2.607H51.36v28.759H3.572V98.007H5.829a1.3,1.3,0,0,0,0-2.607H3.572V93.261H5.829a1.3,1.3,0,0,0,0-2.607H3.572V88.515H5.829a1.3,1.3,0,0,0,0-2.607H3.572V83.769H5.829a1.3,1.3,0,0,0,0-2.607H3.572V75.227H17.145a1.3,1.3,0,0,0,0-2.607H3.152a2.14,2.14,0,0,0-2.1,2.172V104.28A2.186,2.186,0,0,0,0,106.158v3.271A2.14,2.14,0,0,0,2.1,111.6h9.041a8.761,8.761,0,0,0-.14,1.551,8.586,8.586,0,0,0,2.28,5.853H1.261a1.3,1.3,0,0,0,0,2.607H81.1a1.3,1.3,0,0,0,0-2.607H71.162a8.586,8.586,0,0,0,2.28-5.853,8.76,8.76,0,0,0-.14-1.551h6.962A2.14,2.14,0,0,0,82.365,109.43ZM8.552,109H2.521v-2.4h6.03Zm3.51,0h-.988v-2.4h2.948A8.454,8.454,0,0,0,12.061,109Zm7.112,10.01a5.856,5.856,0,0,1,0-11.705,5.856,5.856,0,0,1,0,11.705Zm5.892,0a8.586,8.586,0,0,0,2.28-5.853,8.76,8.76,0,0,0-.14-1.551H32.61a1.3,1.3,0,0,0,0-2.607H26.286a8.46,8.46,0,0,0-1.96-2.4H54.508V109H37.652a1.3,1.3,0,0,0,0,2.607H57.239a8.759,8.759,0,0,0-.14,1.551,8.586,8.586,0,0,0,2.28,5.853Zm40.205,0a5.856,5.856,0,1,1,5.65-5.853A5.76,5.76,0,0,1,65.27,119.006Zm10.017-18.542v3.958a2.163,2.163,0,0,0-1.553,2.095V109H72.382a8.03,8.03,0,0,0-14.224,0H57.029V85.653H69.261a.762.762,0,0,1,.344.173l8.84,12.129a1.418,1.418,0,0,1,.156.34H77.385A2.137,2.137,0,0,0,75.287,100.464Zm3.407.438v3.443h-.886V100.9ZM79.843,109H76.256v-2.045h3.587Z" transform="translate(0 -72.62)"/>
      </g>
    </g>
  </g>
</svg>
