<svg xmlns="http://www.w3.org/2000/svg" xmlns:xlink="http://www.w3.org/1999/xlink" width="100" height="100" viewBox="0 0 100 100"><defs><path id="xvyja" d="M688.73 2815.88l-8.37-1.67a31.3 31.3 0 0 0-2.12-5.12l4.73-7.1a5.33 5.33 0 0 0-.66-6.7l-3.6-3.6a5.32 5.32 0 0 0-6.7-.66l-7.1 4.73a31.32 31.32 0 0 0-5.12-2.12l-1.68-8.37a5.32 5.32 0 0 0-5.2-4.27h-5.08a5.33 5.33 0 0 0-5.2 4.27l-1.68 8.37a31.3 31.3 0 0 0-5.13 2.12l-7.1-4.73a5.33 5.33 0 0 0-6.7.66l-3.6 3.6a5.33 5.33 0 0 0-.66 6.7l4.74 7.1a31.3 31.3 0 0 0-2.12 5.12l-8.37 1.67a5.33 5.33 0 0 0-4.27 5.21v5.08c0 2.52 1.8 4.71 4.27 5.2l5.42 1.1a1.58 1.58 0 0 0 .62-3.1l-5.42-1.09c-1-.2-1.74-1.09-1.74-2.11v-5.08c0-1.02.73-1.9 1.74-2.1l9.3-1.87a1.58 1.58 0 0 0 1.21-1.12c.6-2.17 1.48-4.26 2.58-6.22.3-.52.27-1.16-.06-1.65l-5.27-7.9c-.57-.85-.45-2 .27-2.72l3.6-3.59a2.16 2.16 0 0 1 2.7-.26l7.9 5.26c.5.33 1.14.35 1.66.06a28.12 28.12 0 0 1 6.21-2.57c.58-.16 1.01-.63 1.13-1.22l1.86-9.3c.2-1 1.09-1.73 2.11-1.73h5.08c1.02 0 1.9.73 2.1 1.73l1.87 9.3c.12.59.55 1.06 1.12 1.22 2.17.6 4.26 1.47 6.22 2.57.52.3 1.16.27 1.65-.06l7.9-5.26c.85-.57 2-.46 2.72.26l3.59 3.6c.72.72.83 1.86.26 2.71l-5.26 7.9c-.33.5-.35 1.13-.06 1.65a28.13 28.13 0 0 1 2.57 6.22c.17.57.63 1 1.22 1.12l9.3 1.86c1 .2 1.73 1.09 1.73 2.11v5.08c0 1.02-.73 1.91-1.73 2.11l-9.3 1.86c-.59.12-1.05.55-1.22 1.13a28.13 28.13 0 0 1-2.57 6.21c-.3.52-.27 1.16.06 1.65l5.26 7.9c.57.85.46 2-.26 2.72l-3.6 3.59c-.72.72-1.86.83-2.71.27l-7.9-5.27a1.58 1.58 0 1 0-1.75 2.63l7.9 5.26a5.3 5.3 0 0 0 6.7-.66l3.59-3.59a5.33 5.33 0 0 0 .66-6.7l-4.73-7.1a31.32 31.32 0 0 0 2.12-5.13l8.37-1.67a5.33 5.33 0 0 0 4.27-5.21v-5.08c0-2.52-1.8-4.71-4.27-5.2z"/><path id="xvyjb" d="M655.63 2835.74H640.9a1.58 1.58 0 1 0 0 3.15h14.74a2.63 2.63 0 0 1 2.63 2.64v2.1a2.63 2.63 0 0 1-2.63 2.63H640.9a1.58 1.58 0 1 0 0 3.16h14.74a2.63 2.63 0 0 1 2.63 2.63v2.1a2.63 2.63 0 0 1-2.63 2.64H640.9a1.58 1.58 0 1 0 0 3.16h14.74a2.63 2.63 0 0 1 2.63 2.63v2.1a2.63 2.63 0 0 1-2.63 2.64H640.9a1.58 1.58 0 1 0 0 3.15h14.74a2.63 2.63 0 0 1 2.63 2.64v2.1a2.63 2.63 0 0 1-2.63 2.63h-28.6c-1.5 0-2.9-.58-3.96-1.63a8.76 8.76 0 0 0-6.2-2.58H613v-17.37a1.58 1.58 0 1 0-3.16 0v21.06c0 .29-.23.52-.52.52h-4.74v-21.58a1.58 1.58 0 1 0-3.16 0v21.58h-4.74a.53.53 0 0 1-.52-.52v-35.8c0-.28.23-.52.52-.52h12.64c.29 0 .52.24.52.53v8.42a1.58 1.58 0 1 0 3.16 0v-4.74h3.8c2.5 0 4.71-1.6 5.5-3.96l.59-1.76a53.36 53.36 0 0 0 2.74-16.91 2.63 2.63 0 0 1 2.63-2.63 4.7 4.7 0 0 1 4.74 4.73v16.85a1.58 1.58 0 0 0 3.16 0v-16.85c0-2.1-.82-4.09-2.31-5.58a7.84 7.84 0 0 0-5.59-2.31 5.8 5.8 0 0 0-5.79 5.79c0 5.42-.87 10.77-2.58 15.9l-.59 1.77a2.63 2.63 0 0 1-2.5 1.8H613v-.52a3.69 3.69 0 0 0-3.68-3.69h-12.64a3.69 3.69 0 0 0-3.68 3.69v35.79a3.69 3.69 0 0 0 3.68 3.68h12.64a3.69 3.69 0 0 0 3.68-3.68v-.53h3.86c1.5 0 2.91.59 3.99 1.66a8.71 8.71 0 0 0 6.18 2.55h28.6a5.8 5.8 0 0 0 5.8-5.79v-2.1c0-1.66-.7-3.16-1.83-4.22a5.77 5.77 0 0 0 1.82-4.2v-2.11c0-1.66-.7-3.16-1.82-4.21a5.77 5.77 0 0 0 1.82-4.21v-2.1c0-1.66-.7-3.16-1.82-4.22a5.77 5.77 0 0 0 1.82-4.2v-2.11a5.8 5.8 0 0 0-5.79-5.8z"/><path id="xvyjc" d="M642.36 2824.88a8.11 8.11 0 0 1 16.02-2.5 8.11 8.11 0 0 1-16.02 2.5zm7.25-6.14a4.95 4.95 0 1 0 1.53 9.79 4.95 4.95 0 0 0-1.53-9.79z"/><path id="xvyjd" d="M664.65 2838.9c.41 0 .83-.17 1.14-.5a21.21 21.21 0 0 0 5.68-18.06 21.13 21.13 0 0 0-3.79-9.21 1.58 1.58 0 0 0-2.55 1.85 18 18 0 0 1 3.22 7.85 18.08 18.08 0 0 1-4.84 15.4 1.58 1.58 0 0 0 1.14 2.66z"/><path id="xvyje" d="M663.54 2808.8c.52-.7.38-1.7-.31-2.22a21.18 21.18 0 0 0-16.16-4.05c-6.6 1.03-12.24 5-15.45 10.87a1.58 1.58 0 0 0 2.77 1.52c2.74-5.01 7.54-8.39 13.17-9.27 4.9-.76 9.8.46 13.76 3.45.7.53 1.7.39 2.22-.3z"/></defs><g><g transform="translate(-593 -2781)"><g><g><g><use fill="#00aeef" xlink:href="#xvyja"/></g><g><use fill="#00aeef" xlink:href="#xvyjb"/></g><g><use fill="#00aeef" xlink:href="#xvyjc"/></g><g><use fill="#0093ff" xlink:href="#xvyjd"/></g><g><use fill="#0093ff" xlink:href="#xvyje"/></g></g></g></g></g></svg>