<svg xmlns="http://www.w3.org/2000/svg" xmlns:xlink="http://www.w3.org/1999/xlink" width="638" height="300" viewBox="0 0 638 300"><defs><path id="xdu0a" d="M470 463h28.9v17.44l2.87 7.44-5.53-2.45H470z"/><path id="xdu0b" d="M274.85 452.38a74.78 74.78 0 1 1 149.57 0 74.78 74.78 0 0 1-149.57 0z"/><path id="xdu0c" d="M575.78 466.48a18.5 18.5 0 0 1-5.02-12.65c.04-6.6 3.53-12.69 9.21-16.05a10.9 10.9 0 0 1-1.92-6.16c0-6.2 5.2-11.23 11.62-11.23a11.57 11.57 0 0 1 11.15 8.08 17.43 17.43 0 0 1 14.82-8.08c9.56 0 17.32 7.49 17.32 16.73 0 1.97-.36 3.93-1.06 5.77.35-.02.7-.05 1.06-.05 7.67 0 13.9 6 13.9 13.43 0 .45-.03.9-.08 1.35a16.68 16.68 0 0 1 10.44 15.32c0 9.2-7.72 16.67-17.26 16.67-1 0-2-.08-2.98-.25.05.55.08 1.12.08 1.68 0 10.34-8.67 18.72-19.37 18.72a19.72 19.72 0 0 1-11.03-3.34 14.7 14.7 0 0 1-9.36 3.34c-8 0-14.47-6.26-14.47-13.97 0-.34.03-.67.06-1h-.06c-8.55 0-15.49-6.7-15.49-14.96a14.92 14.92 0 0 1 8.44-13.35z"/><path id="xdu0e" d="M577.35 466.42a17.71 17.71 0 0 1-4.8-12.1 17.98 17.98 0 0 1 8.81-15.37 10.43 10.43 0 0 1-1.84-5.92c0-5.93 4.98-10.74 11.12-10.74a11.1 11.1 0 0 1 10.69 7.73 16.7 16.7 0 0 1 14.16-7.73c9.16 0 16.57 7.17 16.57 16.03 0 1.89-.34 3.76-1.01 5.52.33-.02.67-.05 1.01-.05 7.35 0 13.3 5.76 13.3 12.86 0 .43-.02.86-.07 1.3 5.88 2.46 10 8.09 10 14.66 0 8.81-7.4 15.96-16.53 15.96-.96 0-1.92-.08-2.87-.25.05.53.08 1.07.08 1.61 0 9.9-8.3 17.91-18.54 17.91a18.9 18.9 0 0 1-10.56-3.19 14.07 14.07 0 0 1-8.93 3.2c-7.64 0-13.84-6-13.84-13.38 0-.32.02-.63.05-.95h-.05c-8.2 0-14.83-6.41-14.83-14.33a14.28 14.28 0 0 1 8.08-12.77z"/><path id="xdu0f" d="M608.76 447.69v99.54"/><path id="xdu0g" d="M605.96 547.22V447.7h5.42v99.53z"/><path id="xdu0i" d="M607.26 547.22V447.7h3v99.53z"/><path id="xdu0j" d="M609.07 477.5l-17.78-18.13"/><path id="xdu0k" d="M608 478.55l-17.77-18.13 2.14-2.1 17.77 18.13z"/><path id="xdu0l" d="M609.07 493.08l18.42-12.92"/><path id="xdu0m" d="M609.93 494.3l-1.73-2.45 18.43-12.93 1.72 2.45z"/><path id="xdu0n" d="M611.57 468.23a19.62 19.62 0 0 0-4.05-29.34 11.6 11.6 0 0 0 1.86-6.31c0-6.34-5.03-11.48-11.22-11.48-5.03.04-9.43 3.41-10.77 8.26a16.64 16.64 0 0 0-14.3-8.26c-9.24 0-16.73 7.66-16.73 17.1 0 2.01.35 4.01 1.02 5.9-.33-.02-.67-.05-1.02-.05-7.4 0-13.42 6.16-13.42 13.72 0 .47.03.93.07 1.39a17.06 17.06 0 0 0-10.08 15.65c0 9.42 7.46 17.05 16.66 17.05.97 0 1.93-.09 2.88-.26-.05.57-.08 1.14-.08 1.72 0 10.56 8.37 19.12 18.7 19.12 3.82 0 7.54-1.19 10.65-3.4 2.5 2.2 5.71 3.4 9.04 3.4 7.72 0 13.97-6.4 13.97-14.28 0-.34-.03-.68-.05-1.02h.05c8.26 0 14.96-6.85 14.96-15.3.02-5.7-3.11-10.94-8.14-13.6z"/><path id="xdu0p" d="M609.4 468.14a18.41 18.41 0 0 0-3.8-27.53 10.89 10.89 0 0 0 1.75-5.93c0-5.95-4.72-10.77-10.54-10.77-4.71.04-8.83 3.2-10.08 7.75a15.61 15.61 0 0 0-13.44-7.75c-8.67 0-15.7 7.18-15.7 16.05 0 1.88.33 3.76.97 5.54-.32-.03-.64-.05-.96-.05-6.96 0-12.6 5.75-12.6 12.88 0 .44.02.87.07 1.3a16.03 16.03 0 0 0-9.45 14.7c0 8.83 6.98 16 15.64 16 .91 0 1.82-.1 2.71-.25-.05.53-.07 1.07-.07 1.61 0 9.92 7.85 17.95 17.55 17.95a17.2 17.2 0 0 0 9.99-3.2 12.88 12.88 0 0 0 8.48 3.2c7.24 0 13.12-6 13.12-13.41 0-.32-.03-.64-.05-.95h.05c7.75 0 14.04-6.43 14.04-14.36a14.38 14.38 0 0 0-7.68-12.78z"/><path id="xdu0q" d="M577.64 549.06v-101.4h4.08v101.4z"/><path id="xdu0s" d="M578.8 549.06v-99.98h2.05v99.98z"/><path id="xdu0t" d="M580.11 479.91l-1.5-1.39 16.83-18.17 1.5 1.4z"/><path id="xdu0u" d="M578.76 495.69l-17.45-12.96 1.22-1.64 17.45 12.95z"/><path id="xdu0v" d="M533.03 497.88a12.61 12.61 0 0 1 2.86-19.57 7.43 7.43 0 0 1-1.31-4.2 7.79 7.79 0 0 1 7.91-7.66 7.89 7.89 0 0 1 7.6 5.5 11.88 11.88 0 0 1 10.1-5.5c6.52 0 11.8 5.1 11.8 11.4 0 1.35-.24 2.68-.72 3.94.24 0 .48-.04.73-.04 5.23 0 9.45 4.1 9.45 9.15 0 .31-.02.62-.05.93a11.36 11.36 0 0 1 7.11 10.44c0 6.27-5.26 11.36-11.76 11.36-.69 0-1.38-.06-2.05-.17.03.37.05.76.05 1.14 0 7.04-5.9 12.74-13.2 12.74-2.65.01-5.26-.76-7.48-2.23a10.02 10.02 0 0 1-6.38 2.25c-5.44 0-9.86-4.27-9.86-9.52 0-.23 0-.46.04-.68h-.04c-5.83 0-10.56-4.56-10.56-10.2.03-3.87 2.26-7.4 5.76-9.08z"/><path id="xdu0x" d="M534.09 497.84a12.07 12.07 0 0 1-3.29-8.25c.03-4.3 2.31-8.28 6.01-10.47a7.1 7.1 0 0 1-1.25-4.03c0-4.04 3.4-7.32 7.58-7.32a7.54 7.54 0 0 1 7.27 5.27c2.1-3.3 5.75-5.3 9.67-5.27 6.24 0 11.3 4.88 11.3 10.91 0 1.29-.24 2.57-.7 3.77.24 0 .46-.03.7-.03 5 0 9.06 3.92 9.06 8.75 0 .3-.01.6-.04.89a10.88 10.88 0 0 1 6.8 9.99c0 6-5.04 10.88-11.25 10.88-.66 0-1.3-.06-1.95-.17.03.36.05.73.05 1.1 0 6.74-5.65 12.2-12.63 12.2-2.56 0-5.06-.75-7.2-2.17a9.59 9.59 0 0 1-6.1 2.17c-5.2 0-9.45-4.08-9.45-9.12 0-.21 0-.43.03-.64h-.03c-5.58 0-10.1-4.37-10.1-9.76a9.73 9.73 0 0 1 5.52-8.7z"/><path id="xdu0y" d="M555.5 485.07v67.83"/><path id="xdu0z" d="M553.6 552.9v-67.83h3.69v67.83z"/><path id="xdu0B" d="M554.48 552.9v-67.83h2.04v67.83z"/><path id="xdu0C" d="M555.7 505.39l-12.1-12.36"/><path id="xdu0D" d="M554.98 506.1l-12.11-12.35 1.46-1.43 12.1 12.35z"/><path id="xdu0E" d="M555.7 516l12.57-8.8"/><path id="xdu0F" d="M556.3 516.83l-1.18-1.67 12.56-8.81 1.17 1.67z"/><path id="xdu0G" d="M567.78 499.9a13.15 13.15 0 0 0-2.72-19.7 7.8 7.8 0 0 0 1.23-4.24 7.51 7.51 0 0 0-14.75-2.15c-2-3.42-5.65-5.53-9.6-5.55-6.2 0-11.22 5.14-11.22 11.48 0 1.35.23 2.7.68 3.96-.22 0-.45-.04-.68-.04a9.11 9.11 0 0 0-8.96 10.15 11.45 11.45 0 0 0-6.77 10.5c0 6.32 5.01 11.45 11.19 11.45a11 11 0 0 0 1.93-.18c-.03.39-.05.77-.05 1.16 0 7.09 5.62 12.83 12.55 12.83 2.56 0 5.06-.8 7.14-2.28a9.21 9.21 0 0 0 6.07 2.28 9.48 9.48 0 0 0 9.35-10.27h.03c5.55 0 10.04-4.6 10.04-10.27a10.3 10.3 0 0 0-5.46-9.13z"/><path id="xdu0I" d="M566.33 499.84a12.36 12.36 0 0 0-2.56-18.5 7.31 7.31 0 0 0 1.18-3.97 7.05 7.05 0 0 0-13.86-2.03 10.48 10.48 0 0 0-9.02-5.2 10.65 10.65 0 0 0-10.53 10.78c0 1.26.22 2.52.65 3.71-.22 0-.41-.03-.65-.03a8.55 8.55 0 0 0-8.45 8.63c0 .3 0 .59.04.87a10.75 10.75 0 0 0-6.35 9.86c0 5.93 4.7 10.74 10.5 10.74.61 0 1.22-.06 1.82-.16-.04.35-.05.71-.05 1.08 0 6.65 5.27 12.05 11.78 12.05 2.4 0 4.75-.75 6.7-2.15a8.63 8.63 0 0 0 5.7 2.15 8.9 8.9 0 0 0 8.8-9c0-.21 0-.41-.03-.64h.04a9.53 9.53 0 0 0 9.42-9.64 9.66 9.66 0 0 0-5.13-8.55z"/><path id="xdu0J" d="M545 554.15v-68.07h2.74v68.07z"/><path id="xdu0L" d="M545.78 554.15v-67.1h1.38v67.1z"/><path id="xdu0M" d="M546.66 507.73l-1-.93 11.29-12.2 1 .94z"/><path id="xdu0N" d="M545.75 518.33l-11.7-8.7.81-1.1 11.71 8.7z"/><path id="xdu0O" d="M427.53 555.84V452.7H543.4v103.14z"/><path id="xdu0Q" d="M351.51 552.55V452.7h189.02v99.85z"/><path id="xdu0R" d="M549.57 462.56H363.84v-48.48H542.8a6.78 6.78 0 0 1 6.78 6.78z"/><path id="xdu0T" d="M363.84 416h177.35a6.78 6.78 0 0 1 6.78 6.78v38.54H363.84z"/><path id="xdu0U" d="M363.43 361.48l-64.1 45.14v149.22h128.2V406.62z"/><path id="xdu0W" d="M424.65 405.86l-60.81-44.38-60.82 44.38v37.39h121.63z"/><path id="xdu0X" d="M303.02 552.55v-109.3h121.63v109.3z"/><path id="xdu0Y" d="M432.46 428.04l-68.62-49-69.45 49-4.52-17.23 73.97-53.83 73.96 53.83z"/><path id="xdu0aa" d="M431.83 425.52l-68-49.48-67.98 49.48-2.9-15.5 70.89-51.59 70.9 51.6z"/><path id="xdu0ab" d="M329.32 552.55v-85.47h69.03v85.47z"/><path id="xdu0ac" d="M329.32 481.88v-14.8h69.03v14.8z"/><path id="xdu0ad" d="M329.32 552.55v-14.79h69.03v14.8z"/><path id="xdu0ae" d="M479.44 521.82a.62.62 0 1 0 0-1.23.62.62 0 0 0 0 1.23z"/><path id="xdu0af" d="M462.45 552.55V490.1h33.7v62.45z"/><path id="xdu0ag" d="M504.78 499.96v-23.01h31.64v23z"/><path id="xdu0ah" d="M504.78 487.22v-10.27h31.64v10.27z"/><path id="xdu0ai" d="M285.95 510.13a10.51 10.51 0 0 1-2.88-7.19c.02-3.74 2.01-7.2 5.23-9.11a6.2 6.2 0 0 1-1.09-3.51 6.5 6.5 0 0 1 6.6-6.38 6.57 6.57 0 0 1 6.34 4.6 9.9 9.9 0 0 1 8.43-4.6c5.43 0 9.84 4.27 9.84 9.51a9.2 9.2 0 0 1-.6 3.29l.6-.03a7.76 7.76 0 0 1 7.85 8.4 9.47 9.47 0 0 1 5.93 8.7c0 5.23-4.4 9.47-9.8 9.47-.58 0-1.14-.05-1.7-.14.02.31.04.63.04.95 0 5.88-4.93 10.63-11 10.63-2.23 0-4.41-.65-6.26-1.9a8.35 8.35 0 0 1-5.33 1.9c-4.52 0-8.21-3.55-8.21-7.94 0-.19 0-.38.02-.56h-.02c-4.87 0-8.8-3.81-8.8-8.5a8.47 8.47 0 0 1 4.8-7.59z"/><path id="xdu0ak" d="M286.82 510.1a10.06 10.06 0 0 1 2.28-15.6 5.93 5.93 0 0 1-1.04-3.37 6.21 6.21 0 0 1 6.32-6.1 6.3 6.3 0 0 1 6.06 4.39 9.48 9.48 0 0 1 8.06-4.4c5.2 0 9.41 4.08 9.41 9.1a8.8 8.8 0 0 1-.57 3.14l.57-.03a7.44 7.44 0 0 1 7.52 8.04 9.07 9.07 0 0 1 5.67 8.33c0 5.01-4.2 9.07-9.38 9.07-.55 0-1.1-.04-1.64-.14.02.3.04.61.04.92 0 5.62-4.71 10.17-10.53 10.17-2.13 0-4.2-.63-5.98-1.81a8 8 0 0 1-5.09 1.8 7.74 7.74 0 0 1-7.86-7.6c0-.17 0-.36.03-.53h-.03c-4.65 0-8.42-3.65-8.42-8.14a8.11 8.11 0 0 1 4.58-7.24z"/><path id="xdu0al" d="M304.67 499.46V556"/><path id="xdu0am" d="M303.08 556v-56.54h3.08V556z"/><path id="xdu0ao" d="M303.82 556v-56.54h1.7V556z"/><path id="xdu0ap" d="M304.84 516.39l-10.1-10.3"/><path id="xdu0aq" d="M304.23 516.98l-10.1-10.3 1.22-1.19 10.1 10.3z"/><path id="xdu0ar" d="M304.84 525.24l10.47-7.34"/><path id="xdu0as" d="M305.33 525.93l-.98-1.4 10.47-7.34.98 1.4z"/><path id="xdu0at" d="M265.81 510.13a10.51 10.51 0 0 1-2.87-7.19c.02-3.74 2-7.2 5.23-9.11a6.2 6.2 0 0 1-1.1-3.51 6.5 6.5 0 0 1 6.6-6.38 6.57 6.57 0 0 1 6.35 4.6 9.9 9.9 0 0 1 8.42-4.6c5.44 0 9.84 4.27 9.84 9.51a9.2 9.2 0 0 1-.6 3.29l.6-.03a7.76 7.76 0 0 1 7.85 8.4 9.47 9.47 0 0 1 5.93 8.7c0 5.23-4.39 9.47-9.8 9.47-.57 0-1.14-.05-1.7-.14.03.31.05.63.05.95 0 5.88-4.93 10.63-11 10.63-2.23 0-4.42-.65-6.27-1.9a8.35 8.35 0 0 1-5.32 1.9c-4.52 0-8.22-3.55-8.22-7.94 0-.19 0-.38.03-.56h-.03c-4.86 0-8.8-3.81-8.8-8.5a8.47 8.47 0 0 1 4.81-7.59z"/><path id="xdu0av" d="M266.69 510.1a10.06 10.06 0 0 1 2.28-15.6 5.93 5.93 0 0 1-1.05-3.37 6.21 6.21 0 0 1 6.32-6.1 6.3 6.3 0 0 1 6.06 4.39 9.48 9.48 0 0 1 8.07-4.4c5.2 0 9.41 4.08 9.41 9.1a8.8 8.8 0 0 1-.58 3.14c.2 0 .39-.03.58-.03a7.44 7.44 0 0 1 7.52 8.04 9.07 9.07 0 0 1 5.67 8.33c0 5.01-4.2 9.07-9.39 9.07-.54 0-1.1-.04-1.64-.14.03.3.05.61.05.92 0 5.62-4.72 10.17-10.53 10.17-2.13 0-4.21-.63-5.98-1.81a8 8 0 0 1-5.1 1.8 7.74 7.74 0 0 1-7.86-7.6c0-.17 0-.36.03-.53h-.03c-4.65 0-8.42-3.65-8.42-8.14a8.11 8.11 0 0 1 4.59-7.24z"/><path id="xdu0aw" d="M284.54 499.46V556"/><path id="xdu0ax" d="M282.94 556v-56.54h3.08V556z"/><path id="xdu0az" d="M283.68 556v-56.54h1.7V556z"/><path id="xdu0aA" d="M284.7 516.39l-10.1-10.3"/><path id="xdu0aB" d="M284.1 516.98l-10.1-10.3 1.22-1.19 10.1 10.3z"/><path id="xdu0aC" d="M284.7 525.24l10.47-7.34"/><path id="xdu0aD" d="M285.2 525.93l-.98-1.39 10.47-7.34.97 1.39z"/><path id="xdu0aE" d="M311.62 510.58a10.98 10.98 0 0 0-2.27-16.44 6.5 6.5 0 0 0 1.04-3.53 6.26 6.26 0 0 0-12.3-1.8 9.31 9.31 0 0 0-8.01-4.62 9.45 9.45 0 0 0-9.36 9.56c0 1.12.2 2.24.57 3.29-.18 0-.37-.03-.57-.03a7.6 7.6 0 0 0-7.48 8.5 9.55 9.55 0 0 0-5.63 8.75 9.45 9.45 0 0 0 9.32 9.54c.54 0 1.08-.05 1.62-.14a10.57 10.57 0 0 0 10.42 11.64c2.13 0 4.21-.66 5.95-1.9a7.68 7.68 0 0 0 5.06 1.9 7.9 7.9 0 0 0 7.8-7.99c0-.2 0-.38-.02-.57h.03a8.47 8.47 0 0 0 8.37-8.56 8.58 8.58 0 0 0-4.54-7.6z"/><path id="xdu0aG" d="M310.4 510.53a10.3 10.3 0 0 0-2.12-15.4 6.1 6.1 0 0 0 .97-3.33 5.88 5.88 0 0 0-11.54-1.68 8.74 8.74 0 0 0-7.52-4.34 8.88 8.88 0 0 0-8.76 8.98c0 1.06.18 2.1.53 3.1-.17 0-.35-.03-.53-.03a7.13 7.13 0 0 0-7.01 7.93 8.96 8.96 0 0 0-5.3 8.22 8.85 8.85 0 0 0 10.27 8.81c-.02.3-.04.6-.04.9a9.93 9.93 0 0 0 9.82 10.05c2 0 3.96-.62 5.6-1.79a7.2 7.2 0 0 0 4.74 1.79 7.42 7.42 0 0 0 7.31-8.04h.02a7.95 7.95 0 0 0 7.86-8.04c0-2.99-1.65-5.73-4.3-7.13z"/><path id="xdu0aH" d="M292.63 555.8v-56.73h2.28v56.74z"/><path id="xdu0aJ" d="M293.28 555.8v-55.94h1.15v55.95z"/><path id="xdu0aK" d="M294.02 517.11l-.84-.78 9.42-10.16.84.77z"/><path id="xdu0aL" d="M293.26 525.94l-9.77-7.25.69-.92 9.76 7.25z"/><path id="xdu0aM" d="M654.94 616.92a15.33 15.33 0 1 1 0-30.67 15.33 15.33 0 0 1 0 30.67zm0-27.14a11.8 11.8 0 1 0 0 23.6 11.8 11.8 0 0 0 0-23.6z"/><path id="xdu0aO" d="M582.09 546.22c0-2.6 1.66-4.72 3.7-4.72 2.05 0 3.7 2.11 3.7 4.72 0 2.6-1.65 4.72-3.7 4.72-2.04 0-3.7-2.11-3.7-4.72z"/><path id="xdu0aP" d="M585.78 552.73c-3.03 0-5.5-2.92-5.5-6.51 0-3.6 2.47-6.51 5.5-6.51 3.04 0 5.51 2.92 5.51 6.51 0 3.6-2.47 6.51-5.5 6.51zm0-9.43c-.9 0-1.9 1.2-1.9 2.92 0 1.73 1 2.92 1.9 2.92 1.02 0 1.91-1.36 1.91-2.92 0-1.56-.88-2.92-1.9-2.92z"/><path id="xdu0aQ" d="M193.36 422.75a32.77 32.77 0 0 0-6.76-49.02 19.38 19.38 0 0 0 3.1-10.56c0-10.56-8.4-19.17-18.74-19.17a18.8 18.8 0 0 0-17.99 13.8 27.8 27.8 0 0 0-23.94-13.8c-15.43 0-27.94 12.79-27.94 28.57 0 3.36.58 6.7 1.71 9.86-.56-.04-1.13-.1-1.7-.1-12.34.02-22.41 10.27-22.41 22.94 0 .78.04 1.56.11 2.32A28.5 28.5 0 0 0 62 433.76c0 15.72 12.47 28.48 27.85 28.48 1.61 0 3.22-.15 4.81-.44-.08.95-.13 1.9-.13 2.88 0 17.65 13.98 31.95 31.24 31.95 6.38 0 12.6-1.99 17.8-5.69a22.93 22.93 0 0 0 15.1 5.69c12.88 0 23.33-10.69 23.33-23.87 0-.57-.04-1.14-.08-1.7h.08c13.8 0 25-11.44 25-25.56a25.63 25.63 0 0 0-13.64-22.75z"/><path id="xdu0aS" d="M189.75 422.6a30.77 30.77 0 0 0-6.34-46 18.2 18.2 0 0 0 2.91-9.91c0-9.94-7.88-18-17.6-18-7.9.06-14.8 5.35-16.9 12.96a26.1 26.1 0 0 0-22.45-12.95c-14.48 0-26.22 11.97-26.22 26.81 0 3.16.54 6.3 1.6 9.26-.53-.04-1.06-.08-1.6-.08-11.63 0-21.05 9.63-21.05 21.52 0 .7.03 1.46.1 2.18a26.76 26.76 0 0 0-15.8 24.55c0 14.79 11.7 26.76 26.14 26.76 1.51 0 3.02-.14 4.52-.4-.08.88-.13 1.78-.13 2.7 0 16.56 13.13 29.99 29.32 29.99 6 0 11.86-1.89 16.73-5.39a21.52 21.52 0 0 0 14.18 5.35c12.1 0 21.9-10.04 21.9-22.41 0-.54-.03-1.06-.07-1.6h.08c12.96 0 23.46-10.73 23.46-23.98a24.06 24.06 0 0 0-12.78-21.36z"/><path id="xdu0aT" d="M136.68 557.8V388.37h6.81V557.8z"/><path id="xdu0aV" d="M138.62 557.8V390.75h3.43V557.8z"/><path id="xdu0aW" d="M140.82 442.3l-2.51-2.33 28.12-30.36 2.51 2.33z"/><path id="xdu0aX" d="M138.54 468.63l-29.15-21.65 2.04-2.76 29.16 21.66z"/><path id="xdu0aY" d="M150.6 441.59a26.44 26.44 0 0 1-7.17-18.07 26.83 26.83 0 0 1 13.16-22.94 15.58 15.58 0 0 1-2.75-8.83c0-8.86 7.45-16.05 16.6-16.05a16.53 16.53 0 0 1 15.94 11.55 24.91 24.91 0 0 1 21.17-11.55c13.67 0 24.74 10.7 24.74 23.9 0 2.82-.5 5.61-1.51 8.25.5-.03 1-.07 1.51-.07 10.97 0 19.86 8.6 19.86 19.18 0 .65-.03 1.3-.1 1.94a23.82 23.82 0 0 1 14.88 21.9c0 13.15-11.05 23.82-24.65 23.82-1.42 0-2.83-.1-4.23-.33.07.8.12 1.6.12 2.4 0 14.8-12.38 26.76-27.67 26.76a28.2 28.2 0 0 1-15.75-4.76 21 21 0 0 1-13.38 4.76c-11.41 0-20.67-8.94-20.67-19.97 0-.48.04-.94.08-1.4h-.08c-12.22 0-22.13-9.58-22.13-21.4a21.3 21.3 0 0 1 12.03-19.1z"/><path id="xdu0ba" d="M152.84 441.5a25.3 25.3 0 0 1-6.86-17.3 25.68 25.68 0 0 1 12.6-21.94 14.9 14.9 0 0 1-2.63-8.45c0-8.45 7.11-15.35 15.89-15.35a15.82 15.82 0 0 1 15.24 11.05 23.84 23.84 0 0 1 20.28-11.05c13.07 0 23.67 10.24 23.67 22.88 0 2.7-.48 5.36-1.43 7.88.48 0 .96-.07 1.45-.07 10.5 0 19.02 8.22 19.02 18.36 0 .62-.04 1.24-.1 1.85a22.8 22.8 0 0 1 14.24 20.98c0 12.6-10.57 22.8-23.6 22.8-1.37 0-2.74-.11-4.09-.34.08.76.12 1.53.12 2.3 0 14.14-11.86 25.59-26.49 25.59a27 27 0 0 1-15.05-4.57 20.1 20.1 0 0 1-12.8 4.55c-10.94 0-19.79-8.55-19.79-19.11 0-.46.04-.9.07-1.36h-.07c-11.7 0-21.19-9.15-21.19-20.47a20.42 20.42 0 0 1 11.52-18.23z"/><path id="xdu0bb" d="M197.72 414.74v142.2"/><path id="xdu0bc" d="M193.72 556.95V414.74h7.75v142.2z"/><path id="xdu0be" d="M195.58 556.95V414.74h4.28v142.2z"/><path id="xdu0bf" d="M198.16 457.33l-25.4-25.9"/><path id="xdu0bg" d="M196.63 458.83l-25.4-25.9 3.06-3 25.4 25.9z"/><path id="xdu0bh" d="M198.16 479.59l26.32-18.47"/><path id="xdu0bi" d="M199.39 481.34l-2.46-3.5 26.33-18.48 2.46 3.5z"/><path id="xdu0bj" d="M86.79 558.66v-2.57h604.8v2.57z"/><path id="xdu0bk" d="M356.64 529.53V498.7h4.28v30.84z"/><path id="xdu0bl" d="M450.87 529.53V498.7h4.28v30.84z"/><path id="xdu0bm" d="M348.65 508.09v-4.93h114.08v4.93z"/><path id="xdu0bo" d="M348.65 515.13v-4.93h114.08v4.93z"/><path id="xdu0bq" d="M348.65 522.17v-4.93h114.08v4.93z"/><path id="xdu0bs" d="M348.65 528.51v-4.93h114.08v4.93z"/><path id="xdu0bu" d="M349.29 507.26v-3.43h112.82v3.43z"/><path id="xdu0bv" d="M349.29 520.97v-3.43h112.82v3.43z"/><path id="xdu0bw" d="M349.29 514.12v-3.43h112.82v3.43z"/><path id="xdu0bx" d="M462.7 501.05c-.34-3.18-2.33-5.64-4.72-5.64H353.36c-2.39 0-4.38 2.46-4.71 5.64z"/><path id="xdu0bz" d="M462.05 500.4a4.73 4.73 0 0 0-4.65-4.03H354a4.73 4.73 0 0 0-4.66 4.03z"/><path id="xdu0bA" d="M349.32 524.4v2.11c0 2.6 2.11 4.7 4.7 4.71H457.4c2.6 0 4.7-2.11 4.71-4.71v-2.11z"/><path id="xdu0bB" d="M343.04 535.27v-8.33h125.32v8.33z"/><path id="xdu0bC" d="M342.31 536.26v-9.86h126.76v9.86z"/><path id="xdu0bE" d="M354.4 556.1v-20.83h9.47v20.82z"/><path id="xdu0bF" d="M448.48 556.1v-20.83h9.46v20.82z"/><path id="xdu0bG" d="M447.24 556.68v-21.41h11.27v21.4z"/><path id="xdu0bI" d="M353.58 556.68v-21.41h11.27v21.4z"/><path id="xdu0bK" d="M274.7 454.65c0-3.21 3.22-6.42 6.43-6.42h18.85c3.2 0 6.42 3.21 6.42 6.42v28c0 3.21-3.21 6.42-6.42 6.42h-18.85c-3.21 0-6.42-3.2-6.42-6.42z"/><path id="xdu0bM" d="M275.83 455.5c0-3.22 3.2-6.43 6.42-6.43h16.73c3.2 0 6.42 3.21 6.42 6.42v26.13c0 3.2-3.21 6.42-6.42 6.42h-16.73c-3.21 0-6.42-3.21-6.42-6.42z"/><path id="xdu0bN" d="M279.38 461.1c0-2.72 2.71-5.43 5.42-5.43h11.63c2.7 0 5.42 2.71 5.42 5.42V474c0 2.7-2.71 5.42-5.42 5.42H284.8c-2.7 0-5.42-2.71-5.42-5.42z"/><path id="xdu0bO" d="M288.09 556.68v-68.64h4.93v68.64z"/><path id="xdu0bQ" d="M289.03 556.07v-68.03h3.3v68.03z"/><path id="xdu0bR" d="M281.25 470.02v-2.47h.87l.11-3.41s-.1-.87 1.22-.87h14.66s.74-.27.81.47l.32.21v3.6h.86v2.47a.9.9 0 0 1-.62.9h-1.1v-1.68a4.12 4.12 0 0 0-4.46.51v2.08h-6.65v-2.58a2.63 2.63 0 0 0-3.43 0v2.58h-1.7a5.12 5.12 0 0 1-.9-1.81z"/><path id="xdu0bS" d="M282.97 468.4v-2.57h.85v-.85h.86v3.43z"/><path id="xdu0bT" d="M285.54 468.4v-3.42h3.43v3.43z"/><path id="xdu0bU" d="M290.68 468.4v-3.42h3.43v3.43z"/><path id="xdu0bV" d="M294.1 468.4v-3.42h3.43v3.43z"/><path id="xdu0bW" d="M285.04 470.43a.73.73 0 1 1 1.46 0 .73.73 0 0 1-1.46 0z"/><path id="xdu0bX" d="M295.7 470.43a.73.73 0 1 1 1.46 0 .73.73 0 0 1-1.45 0z"/><path id="xdu0bY" d="M546.75 510.94c-1.21-3.11-2.5-6.34-5-8.57a21.34 21.34 0 0 0-4.79-2.95l-10.62-5.32-.34-.17c2.45-.02 4.88-.39 7.23-1.1a3.1 3.1 0 0 0 1.95-1.3 1.26 1.26 0 0 0-.66-1.75c.52-.04.9-.49.86-1a.87.87 0 0 0-.48-.63c.5-.17.82-.64.8-1.17a1.12 1.12 0 0 0-.55-.83c.18-.02.35-.05.52-.11.6-.19 1-.78.93-1.41-.15-.75-1.09-1.04-1.86-1.05-.78 0-1.64.08-2.22-.43 1.6.27 3.18-.6 3.81-2.11-2.1-.48-4.34.05-6.5.32-2.16.28-4.57.26-6.28-1.11-2.12-1.67-2.5-4.82-4.51-6.6a6.8 6.8 0 0 0-4.37-1.5c-1.57.04-3.13.25-4.66.64-1.1.18-2.17.53-3.16 1.04-1.8.9-1.55 2.16-.7 3.4-.36.71-.56 1.49-.6 2.28-.24 2.29-.88 2.9-2.6 4.28a3.4 3.4 0 0 0-.41.4 1.04 1.04 0 0 0 .67 1.67c.43.09.83.31 1.13.64.5.7.89 1.49 1.15 2.31.27.84.93 1.5 1.76 1.76.47.08.95 0 1.35-.25l.15.27c.7.96 1.96 1.27 3.12 1.5l2.4.5a6.56 6.56 0 0 0-.41 4.88c.45 1.25.83 2.53 1.12 3.84.2 1.4.07 2.88.55 4.17-1.4 0-2.75 0-4.13-.05a9.27 9.27 0 0 1-4.04-.83c-.56-.37-1.14-.7-1.74-.98a1.69 1.69 0 0 0-1.85.28c-.43.5-.15 1.51.52 1.5.1.62-.42 1.15-.95 1.47-.57.25-1.07.61-1.48 1.08-.34.51-.14 1.4.47 1.45a.7.7 0 0 0 1.17.7l-.07 1.26c.43-.4 1-.62 1.6-.6l.5 1.77c.56-.05 1.05-.4 1.28-.92l.16.05c1.17.19 2.36.16 3.52-.08 3.79-.48 7.6-.72 11.43-.7.53 0 1.3.09 2.11.13.9.72 1.71 1.56 2.41 2.48.9 1.19 1.71 2.61 3.12 3.11.36.12.73.18 1.1.18l-.14.22c-.39.44-.87.79-1.41 1.02-2.03 1-4.12 1.9-6.26 2.66-2.38.85-5.11 1.82-6.02 4.18-.58 1.54-.2 3.27.24 4.86 1.64 6.04 3.95 12.2 8.59 16.37l3.08-1.23 1.47 2.2c-2.11.3-4 .4-6.04 1.54-.4.19-.73.47-.98.83a1 1 0 0 0 .07 1.2c.3.22.66.32 1.03.29l14.63.3c-.62-1.5-1.28-3.06-2.52-4.1a3.24 3.24 0 0 0-1.83-.84c-.81-.93-1.62-1.88-2.47-2.78l1.63-.65a292.86 292.86 0 0 1-9.26-14.34c4.64-3.37 10.9-3.14 16.34-4.93a9.49 9.49 0 0 0 4.01-2.24c1.97-2.04 2.23-5.15 2.37-7.98.04-.84 0-1.81-.55-2.39z"/><path id="xdu0ca" d="M570.33 535.97l-6.28-7.66c-.27-.33-.6-.7-1.02-.67-.32.05-.6.22-.82.46-.44.42-1.16 1-1.71 1.62-1.45-.06-2.9-.04-4.35.05-1.8.15-1.7 1.4-1.5 3.05.02.34.14.67.34.95a2 2 0 0 0 1.66.44l6-.24a55.49 55.49 0 0 0 5.77 3.6c.4.26.86.42 1.33.47.49.04.94-.25 1.11-.7a1.63 1.63 0 0 0-.53-1.37z"/><path id="xdu0cc" d="M501.91 513.65c.24-.18.53-.23.76-.4.24-.17.38-.54.16-.7a.65.65 0 0 0-.52-.09c-.64.08-1.29.19-1.93.32.3-.28.76-.3 1.12-.5.37-.19.62-.76.27-.99a.78.78 0 0 0-.62 0c-.54.15-1.08.27-1.63.36.09-.51 1.11-1.48.97-1.96-.21-.7-1.58-.55-2.17-.53-.51-.01-1.02.1-1.47.34a1 1 0 0 0-.4 1.31c.16.24.46.39.56.66.22.58-.66 1.19-.4 1.77.2.46 1 .47 1.11.97.02.18 0 .35-.05.52-.07.86.51 1.63 1.36 1.8.82.15 1.67.01 2.4-.39 1.51-.7 2.8-1.78 3.75-3.14a6.97 6.97 0 0 0-3.4 1.46c-.22-.25-.1-.63.13-.8z"/><path id="xdu0ce" d="M511.99 511.6a8.96 8.96 0 0 1-3.31.08c-1.12-.2-2-1.08-2.21-2.2 0-1.15.72-2.16 1.79-2.55a7.98 7.98 0 0 1 3.27-.4l17.11.28c-.33 1.02-.6 3.2-1.5 3.9-.89.7-3.3.26-4.44.26a82.4 82.4 0 0 0-10.71.64z"/><path id="xdu0cf" d="M504.95 485.55c-.14.12-.27.24-.39.38a.97.97 0 0 0 .63 1.56c.4.09.77.3 1.05.6a7.8 7.8 0 0 1 1.09 2.17c.25.78.87 1.4 1.65 1.65.75.08 1.49-.2 1.98-.77.53-.51.92-1.15 1.41-1.67.75-.64 1.52-1.24 2.33-1.8a7.37 7.37 0 0 0 2.46-3.92c.31-1.07.2-2.23-.3-3.23-1.28-2.23-5.95-3.3-8.15-1.92-1.06.65-1.23 1.8-1.35 2.95-.24 2.16-.83 2.73-2.41 4z"/><path id="xdu0cg" d="M515.74 494.37c1.06.4 2.44.15 2.98-.83.78-1.41-.6-3.12-.46-4.73.12-1.38 1.29-2.38 1.96-3.59a5.97 5.97 0 0 0-.2-5.82 7.66 7.66 0 0 0-4.85-3.42c-1.22-.3-2.67-.25-3.52.66-1.06 1.14-.7 2.93-.48 4.47.21 1.44.24 2.9.09 4.34-.12 1.15-.86 2.7-.56 3.86.25.93 1.35 1.75 1.96 2.43.9.98 1.8 2.14 3.08 2.63z"/><path id="xdu0ch" d="M509.54 487.91a4.58 4.58 0 0 1-1.87 2.2"/><path id="xdu0ci" d="M515.13 498.4c.43 1.16.78 2.36 1.05 3.58.23 1.5 0 3.16.78 4.47.94 1.59 2.94 2.12 4.63 2.82 2.1.91 3.93 2.35 5.3 4.18.85 1.12 1.61 2.45 2.93 2.91 1.1.27 2.26.19 3.32-.23a71.7 71.7 0 0 0 12.8-5.13c-1.14-2.92-2.36-5.95-4.69-8.03a20 20 0 0 0-4.49-2.76l-9.98-4.99c-2.39-1.2-5.9-3.43-8.7-3.11-3.03.36-3.67 3.86-2.95 6.28z"/><path id="xdu0cj" d="M530.71 516.72c-.36.42-.82.75-1.33.96-1.9.94-3.87 1.78-5.87 2.5-2.22.79-4.79 1.7-5.63 3.91-.55 1.45-.19 3.06.22 4.55 1.52 5.64 3.69 11.43 8.04 15.34l7.57-3.03a347.24 347.24 0 0 1-8.66-13.51c4.34-3.15 10.2-2.94 15.31-4.6a8.89 8.89 0 0 0 3.76-2.1c1.84-1.92 2.1-4.83 2.21-7.48.05-.9 0-1.99-.77-2.45a2.5 2.5 0 0 0-1.87-.05 61.65 61.65 0 0 0-11.23 3.88c-1.46.7-.91.95-1.75 2.08z"/><path id="xdu0ck" d="M539.9 527.73c.83 1.1 1.81 2.1 2.91 2.93 1.17.7 2.44 1.23 3.76 1.55l10.1 2.98a4.38 4.38 0 0 1-.93-4.09c.42-1.4 1.06-2.72 1.92-3.9-2.6.1-5.2-.09-7.75-.55a12.03 12.03 0 0 1-6.67-3.68c-.84-.98-1.57-2.22-2.82-2.56-.99-.27-5.28.96-5.28 2.02 0 .66 1.9 2.1 2.36 2.6.83.87 1.63 1.77 2.4 2.7z"/><path id="xdu0cl" d="M534.7 544.38c.2.18.34.43.37.7 0 .42-.46.71-.88.71-.41 0-.83-.1-1.24-.06-.55.05-1.1.38-1.6.17-.3-.16-.55-.4-.71-.7l-2.36-3.52c1.35-.8 2.16-1.85 3.4-.64 1.06 1.03 2.01 2.26 3.01 3.34z"/><path id="xdu0cm" d="M524.76 546.33c-.37.18-.69.44-.93.78-.23.35-.2.8.08 1.12.27.2.62.3.96.26l13.71.3c-.58-1.4-1.2-2.87-2.36-3.85-1.75-1.48-3.06-.5-4.86-.2-2.4.42-4.4.35-6.6 1.6z"/><path id="xdu0cn" d="M560.04 528.59c.42-.04.85.03 1.24.2.57.42.9 1.06.94 1.76.03.7.25 1.37.65 1.94l-7.68.3c-.55.1-1.12-.05-1.55-.41-.19-.26-.3-.57-.31-.9-.2-1.55-.28-2.7 1.4-2.85 1.7-.15 3.55-.04 5.3-.04z"/><path id="xdu0co" d="M560.41 527.06c.2-.23.47-.38.77-.43.4 0 .7.32.94.62l5.9 7.19c.35.32.54.8.5 1.27-.17.43-.6.7-1.05.66-.44-.05-.87-.2-1.24-.44a52 52 0 0 1-6.3-4.01c-.88-.66-2.2-1.2-1.84-2.28.3-.9 1.65-1.95 2.32-2.58z"/><path id="xdu0cp" d="M535.3 503.24c.8 1.45.67 3.59-.75 4.46-.6.31-1.24.5-1.9.55-6.97 1.02-14.09 2.05-21 .85a2.71 2.71 0 0 0-1.73.07c-.66.35-.88 1.16-1.13 1.87-.24.7-.7 1.48-1.48 1.48l-.46-1.65c-.55-.02-1.1.18-1.5.56l.08-1.18a.65.65 0 0 1-1.1-.66c-.58-.04-.76-.88-.45-1.37.4-.44.87-.78 1.41-1 .5-.3.98-.8.89-1.38-.63 0-.9-.94-.49-1.4a1.58 1.58 0 0 1 1.74-.28c.56.27 1.1.58 1.62.92 1.19.54 2.48.8 3.79.78 5.47.22 10.95-.25 16.3-1.41a4.69 4.69 0 0 1-2.82-2.99c1.4-.58 3.7-2.11 5.25-1.6 1.34.44 3.05 2.16 3.73 3.38z"/><path id="xdu0cq" d="M500.56 509.26c-.49-.02-.98.1-1.4.32a.94.94 0 0 0-.39 1.23c.15.23.43.36.53.62.2.54-.62 1.12-.38 1.65.24.54.95.44 1.05.92.01.16 0 .32-.06.47-.06.81.49 1.53 1.28 1.7.77.14 1.57.01 2.26-.36a8.75 8.75 0 0 0 3.52-2.95 6.54 6.54 0 0 0-3.2 1.37c-.2-.17-.09-.53.13-.7.22-.18.5-.22.7-.39.21-.16.35-.5.15-.7a.6.6 0 0 0-.48-.08c-.6.08-1.2.18-1.8.3.28-.26.7-.3 1.05-.47.35-.17.57-.7.25-.93a.7.7 0 0 0-.58 0c-.5.14-1 .25-1.52.33.08-.47 1.04-1.4.9-1.84-.18-.67-1.45-.5-2-.49z"/><path id="xdu0cr" d="M508.55 476.24c.93-.47 1.93-.8 2.96-.97 1.43-.37 2.9-.57 4.37-.6a6.34 6.34 0 0 1 4.09 1.41c1.89 1.66 2.26 4.6 4.22 6.18 1.6 1.27 3.86 1.3 5.88 1.04 2.03-.26 4.1-.75 6.1-.31a3.32 3.32 0 0 1-3.57 2c.54.49 1.35.4 2.08.4.72.01 1.6.28 1.74 1 .05.58-.31 1.12-.87 1.29-.55.15-1.13.18-1.69.07a1.1 1.1 0 1 1 .16 1.92.83.83 0 1 1 .22 1.5c.74-.07 1.18.97.84 1.64a2.9 2.9 0 0 1-1.82 1.2c-6.43 2.03-13.38.7-20-.67-1.08-.22-2.27-.5-2.92-1.4a4.52 4.52 0 0 1-.62-2.42c-.15-2.4 1.6-6.4-.18-8.22-1.56-1.6-3.63-3.74-.99-5.06z"/><path id="xdu0cs" d="M508.36 482.26a.48.48 0 1 1 .96 0 .48.48 0 0 1-.96 0z"/><path id="xdu0ct" d="M545.48 551.04c-.7 0-1.41 0-2.12-.07l-30.38-2.04v-1.36l30.45 2.07c3.76.25 7.97.14 10.36-4.23l.65.9c-2.18 3.97-5.6 4.73-8.96 4.73z"/><path id="xdu0cv" d="M545.48 550.4c-.7 0-1.41 0-2.12-.05l-30.41-1.26v-.86l30.41 1.26c3.76.16 7.98.1 10.37-2.64l.65.57c-2.12 2.5-5.55 2.98-8.9 2.98z"/><path id="xdu0cw" d="M518.25 552.52a2.87 2.87 0 1 1 5.75 0 2.87 2.87 0 0 1-5.75 0z"/><path id="xdu0cy" d="M518.57 552.52a2.56 2.56 0 1 1 5.11 0 2.56 2.56 0 0 1-5.11 0z"/><path id="xdu0cz" d="M541.37 552.52a2.89 2.89 0 1 1 5.77 0 2.89 2.89 0 0 1-5.77 0z"/><path id="xdu0cB" d="M541.7 552.52a2.56 2.56 0 1 1 5.11 0 2.56 2.56 0 0 1-5.1 0z"/><path id="xdu0cC" d="M448.61 529.7h-4.93a2.71 2.71 0 0 1-1.35-2.58s-3.82-2.04-5.42-1.55l-2.07-4.6s-2.6-.9-3.01 1c0 0-.78 6.95-1.1 7.62 0 0-.75 9.4-13.82 5.78 0 0-3.66-1.74-6.92-.18 0 0-1.68.2-4.86-2.19 0 0-3.52 3.22.8 7.42 0 0-1.6 3.3-.17 6.42l1.83 7.44s.24 1.98.96 1.81h6.57a2.11 2.11 0 0 0-1.13-1.4l-.8-.09v-3.87s.82 1.9 4.49-1.56a22.83 22.83 0 0 0 12.33 1.47l.78 4.69s.38 1.73 1.1 1.73h5.64a2.39 2.39 0 0 0-1.2-1.97l-.8-.33-.78-4.23s4.38 0 6.06-6.65l-.24-8.01s4.06-.56 6.3-2.04c-.01.05 2.06-.4 1.74-4.13z"/><path id="xdu0cE" d="M447.4 530.52h-4.68a2.47 2.47 0 0 1-1.28-2.37s-3.62-1.86-5.12-1.4l-1.96-4.23s-1.81-.83-2.19.9c0 0-.07 6.34-.37 6.98 0 0-2.03 9.24-14.39 5.93 0 0-3.46-1.59-6.55-.16 0 0-1.59.83-4.6-1.36 0 0-3.32 1.66.75 5.5 0 0-1.5 3.02-.14 5.88l1.73 7.45s.22 1.81.9 1.66h4.22a1.94 1.94 0 0 0-1.06-1.3l-.76-.07v-3.52s2.11.45 5.59-2.71c0 0 6.3 3.62 13 2.63l.7 4.3s.36 1.58 1.03 1.58h4a2.17 2.17 0 0 0-1.13-1.8l-.75-.31-.08-4.48s4.14 0 5.72-6.08l-.22-7.34s3.84-.51 5.95-1.87c.03.01 1.99-.4 1.68-3.81z"/><path id="xdu0cF" d="M413.6 551.35c.88-.24 1.73-.53 2.58-.86v4.01a4.98 4.98 0 0 1 1.35 1.71h-2.86s.62-2.17-1.1-3.3z"/><path id="xdu0cG" d="M435.88 550.42s1.71-1.1 2.57-1.59v5.64h.5s1.06 0 1.37 1.7h-2.87c0-1.28-.58-2.5-1.57-3.3z"/><path id="xdu0cH" d="M435.57 523.52l1.28 2.12c.7.06 1.38.2 2.04.45l-.45-3.16s-1.59-2.42-2.87.6z"/><path id="xdu0cI" d="M440.5 529.09a.5.5 0 1 1 1.02 0 .5.5 0 0 1-1.01 0z"/><path id="xdu0cJ" d="M569.13 603c0-2.33 1.7-4.21 3.78-4.21 2.09 0 3.78 1.88 3.78 4.2 0 2.33-1.69 4.2-3.78 4.2s-3.78-1.87-3.78-4.2z"/><path id="xdu0cK" d="M572.55 617.08a14.08 14.08 0 1 1 0-28.16 14.08 14.08 0 0 1 0 28.16zm0-24.93a10.84 10.84 0 1 0 0 21.69 10.84 10.84 0 0 0 0-21.7z"/><path id="xdu0cL" d="M575.1 603.01l-3.6-.84 4.93-21.27 3.62.84z"/><path id="xdu0cM" d="M645.7 599.12l-4.94-21.27 3.61-.84 4.95 21.27z"/><path id="xdu0cN" d="M655.2 615.65a14.08 14.08 0 1 1 0-28.17 14.08 14.08 0 0 1 0 28.17zm0-24.94a10.84 10.84 0 1 0 0 21.7 10.84 10.84 0 0 0 0-21.7z"/><path id="xdu0cO" d="M572.55 618.32a15.33 15.33 0 1 1 0-30.66 15.33 15.33 0 0 1 0 30.66zm0-27.14a11.8 11.8 0 1 0 0 23.6 11.8 11.8 0 0 0 0-23.6z"/><path id="xdu0cQ" d="M575.9 582.54s11.57 21.52 16.74 26.66h29.65s1.9.56 8.08-1.5l1.58-15.1s3.38-15.99 21.57-15.99h13.23v-11.74l-57.68 6.51s-5.27 6.29-1 9.21l11.02 12.09s.7 6.29-2.9 5.83l-20.87-1.12-6.94-30.44-12.48 9.67s-3.03 4.35 0 5.92z"/><path id="xdu0cR" d="M582.52 549.56l-3.35 27.09h11.34v-28.56z"/><path id="xdu0cS" d="M575.09 550.95h13.42l-2.9 6h-10.52z"/><path id="xdu0cT" d="M585.23 549.81l3.15 10.34"/><path id="xdu0cU" d="M608.1 573.85l8.34-14.36s32.9-5.16 43.3-2.47c0 0 10.4 9.1 6.66 11.97z"/><path id="xdu0cV" d="M630.13 558.37a53.88 53.88 0 0 0-4.06-19.66c-.9-2.18-2.16-4.49-4.39-5.26a4.46 4.46 0 0 0-.8-.19c0-.3.05-.59.07-.88l.7-9.42c.33-4.4-4.02-5.38-7.7-5.7-3.44-.3-7.24 3.37-9.32 5.88-.66.8-1.34 1.67-1.31 2.7.03 1.35 1.27 2.3 2.22 3.28a9.62 9.62 0 0 1 2.57 5.19c.16 1.02.17 2.1.7 2.99.78 1.25 2.29 1.62 3.83 1.69-1.41 2.6-.47 4.18-1.67 6.89-1.2 2.7-3.71 5.45-6.77 5.35-1.61-.06-3.08-.88-4.49-1.66-1.4-.77-2.91-1.55-4.52-1.5-.66.02-1.3.22-1.86.56a3.15 3.15 0 1 0-.88 3.9c.85.95 1.95 1.61 3.18 1.93a23.73 23.73 0 0 0 16.72-1.2 8.5 8.5 0 0 0 1.47 5.69c-3.92.97-7.88 2.7-11.06 3.6-2.38.71-5.03 1.59-6.05 3.82-.7 1.5-.44 3.2-.2 4.82l2.51 16.55c.1.98.36 1.93.77 2.82.21.4.49.75.81 1.05-.9 1.31-1.88 2.56-2.94 3.74-.77.7-1.67 1.64-1.46 2.68.27 1.32 1.99 1.62 3.33 1.63l5.28.04c.69.09 1.39-.06 1.98-.42.7-.55.82-1.6.85-2.51.05-1.87.09-3.8-.65-5.52.44-.51.75-1.12.9-1.78.96-4.18-4.25-7.64-4.02-11.92.18-3.37 3.7-5.63 7.04-6.18 3.33-.54 6.79-.04 10.08-.8 2.7-.64 5.4-2.64 6.02-5.19l.53.04c2.26.12 2.03.4 2.48-1.77.22-1.75.25-3.52.1-5.27z"/><path id="xdu0cX" d="M606.1 523.13c-.62.75-1.28 1.6-1.25 2.6 0 1.3 1.22 2.22 2.11 3.15a9.25 9.25 0 0 1 2.48 5c.15.98.15 2.03.7 2.88 1 1.6 3.27 1.7 5.16 1.6 1.41-.06 2.99-.2 3.99-1.21s1.1-2.43 1.2-3.77l.65-9.1c.31-4.22-3.87-5.17-7.4-5.47-3.33-.27-5.63 1.9-7.63 4.32z"/><path id="xdu0cY" d="M625.37 539.45c-.87-2.11-2.11-4.31-4.23-5.05-2.81-.95-5.78 1.15-7.23 3.7-1.45 2.56-1.9 5.57-3.1 8.26-1.18 2.7-3.57 5.25-6.5 5.15-1.55-.06-2.97-.85-4.32-1.6-1.35-.74-2.82-1.49-4.36-1.44-1.54.05-3.18 1.2-3.2 2.74 0 1.78 1.92 2.9 3.62 3.42a22.83 22.83 0 0 0 16.1-1.15c-.48 3.83 2.24 7.5 5.63 9.33a21.83 21.83 0 0 0 9 2.39c2.17.11 1.95.39 2.38-1.71.23-1.7.29-3.41.17-5.12a51.85 51.85 0 0 0-3.96-18.92z"/><path id="xdu0cZ" d="M602.93 562.41c-2.28.65-4.83 1.51-5.8 3.68-.66 1.4-.43 3.08-.2 4.63l2.38 15.93c.08.95.32 1.87.7 2.74a4.23 4.23 0 0 0 7.86-1.02c.91-4.03-4.1-7.35-3.88-11.47.17-3.25 3.57-5.4 6.77-5.95 3.2-.54 6.54-.04 9.7-.78 3.16-.74 6.34-3.42 5.89-6.64a5.96 5.96 0 0 0-3.36-4.23c-5.81-3.04-14.26 1.47-20.06 3.11z"/><path id="xdu0da" d="M598.03 594c-.75.7-1.61 1.57-1.4 2.57.25 1.27 1.9 1.56 3.2 1.57l5.07.05c.66.08 1.33-.07 1.9-.4.7-.54.79-1.55.81-2.43.06-1.88.1-3.84-.7-5.53-2.93-6.19-6.48 1.92-8.88 4.17z"/><path id="xdu0db" d="M608.67 521.41a1.4 1.4 0 1 1 2.8 0 1.4 1.4 0 0 1-2.8 0z"/><path id="xdu0dc" d="M629.6 524.59c0-7.35-5.77-12.28-13.11-12.28-5.8 0-10.68 2.43-12.5 10.28h6.24v11.76h16.42c1.8-3.92 2.94-6.7 2.94-9.76z"/><path id="xdu0de" d="M627.94 524.43c0-6.41-5-10.72-11.42-10.72-5.06 0-9.32 2.11-10.91 8.97h5.45v10.28h14.34c1.57-3.43 2.54-5.86 2.54-8.53z"/><path id="xdu0df" d="M610.86 529.51c-.25.93-.9 1.7-1.79 2.11"/><path id="xdu0dg" d="M644.48 585.87s17.17-5.12 31.62 10.57l-17.17 4.81-9.94-4.81z"/><path id="xdu0di" d="M645.39 586.3s16.2-4.83 29.8 9.93l-16.2 4.55-9.36-4.55z"/><path id="xdu0dj" d="M626.2 599.28c0-2.9 2.9-5.8 5.8-5.8h21.14c2.9 0 5.8 2.9 5.8 5.8s-2.9 5.8-5.8 5.8H632c-2.9 0-5.8-2.9-5.8-5.8z"/><path id="xdu0dk" d="M608.73 571.15s-5.43 6.48-1.04 9.49l11.34 12.44s.7 6.48-2.98 6.01l-21.5-1.15-4.93-21.72v-22.71a5.27 5.27 0 0 0-6.23-5.2l-2 .38-.17 1.4h-7.49v6.18h6.72l-2.15 17.37-3.73 2.89s-3.12 4.47 0 6.1c0 0 11.91 22.15 17.23 27.46h30.54s1.95.57 8.33-1.55l.29-2.74H654.9a5.19 5.19 0 0 0 5.18-5.17v-1.56a5.19 5.19 0 0 0-5.18-5.17h-22.7l.09-.88s3.47-16.45 22.2-16.45h13.63v-12.15z"/><path id="xdu0dm" d="M609.07 571.38s-5.28 6.29-1.01 9.21l11.03 12.09s.7 6.29-2.9 5.83l-20.88-1.12-4.8-21.13v-22.01a5.13 5.13 0 0 0-6.06-5.04l-1.93.35-.17 1.4h-7.26v6h6.52l-2.11 16.9-3.63 2.82s-3.03 4.35 0 5.92c0 0 11.57 21.52 16.74 26.66h29.65s1.9.56 8.09-1.5l.27-2.65H653.88a5.04 5.04 0 0 0 5.03-5.03v-1.56a5.04 5.04 0 0 0-5.03-5.03h-22.01l.09-.84s3.37-15.98 21.57-15.98h13.23v-11.8z"/><path id="xdu0dn" d="M138.8 596.11v-2.96h79.57v2.96z"/><path id="xdu0dp" d="M226.12 584.14v-2.96h51.4v2.96z"/><path id="xdu0dr" d="M269.07 596.11v-2.96h28.88v2.96z"/><path id="xdu0dt" d="M298.65 629.92v-2.97h11.97v2.97z"/><path id="xdu0dv" d="M133.16 636.25v-2.96h16.9v2.96z"/><path id="xdu0dx" d="M147.25 644v-2.96h21.83V644z"/><path id="xdu0dz" d="M283.86 636.96v-2.97h18.31v2.97z"/><path id="xdu0dB" d="M362.03 617.24v-2.96h64.79v2.96z"/><path id="xdu0dD" d="M433.86 601.04v-2.96h21.83v2.96z"/><path id="xdu0dF" d="M519.07 629.92v-2.97h21.83v2.97z"/><path id="xdu0dH" d="M496.53 641.18v-2.96h38.03v2.96z"/><path id="xdu0dJ" d="M139.9 595.5v-1.72h77.96v1.71z"/><path id="xdu0dK" d="M228.14 583.5v-1.71h47.97v1.71z"/><path id="xdu0dL" d="M271.83 595.5v-1.72h23.98v1.71z"/><path id="xdu0dM" d="M363.5 616.92v-1.72h62.53v1.72z"/><path id="xdu0dN" d="M435.45 600.63v-1.7h18.84v1.7z"/><path id="xdu0dO" d="M134.76 635.76v-1.71h14.56v1.71z"/><path id="xdu0dP" d="M149.32 643.47v-1.71h18v1.71z"/><path id="xdu0dQ" d="M285.54 635.76v-1.71h14.56v1.71z"/><path id="xdu0dR" d="M300.1 628.9v-1.7h9.42v1.7z"/><path id="xdu0dS" d="M498.85 640.04v-1.7h31.7v1.7z"/><path id="xdu0dT" d="M521.12 628.9v-1.7h17.14v1.7z"/><path id="xdu0dU" d="M364.81 495.7l-1.96-.25c.61.3 1.3.38 1.96.25z"/><path id="xdu0dW" d="M402.23 545.19c1.64 1.06 2.5 2.62 3.12 3.23a31.43 31.43 0 0 1-9.43.84l.14-1.65a59.15 59.15 0 0 0-7.74-12.4c-1.2 4.13-2.12 6.76-2.57 11.04a27.57 27.57 0 0 1-.45 3.68c-.15.65-.4 1.28-.75 1.85l.29.25c.48.4 3.8 4.53 3.93 4.53-3.04.43-7.58.4-10.08-1.33a1.03 1.03 0 0 1-.5-.58c0-.34.16-.67.43-.87l-.1-.07-.8-21.45a1.75 1.75 0 0 0-1.71-1.98c-4.76-1.27-8.99-1.45-13.92-1.97a14 14 0 0 1 .52-2.62l-1.4 1.41a41.34 41.34 0 0 1 4.28-19.35c.63-1.4 1.6-2.6 2.82-3.52 1.42-.91 3.13-1.04 4.71-1.47.33-.09.66-.2.98-.33.16-1.73-.26-3.2-.26-3.84.01-.35-.02-.7-.1-1.04-3.2-.4-8.5-.8-11.7-1.2 1.15-.2 5.06-1.65 5.76-2.61 1.1-1.53 1.43-3.46 1.74-5.31.3-1.86.67-3.79 1.79-5.3 1.1-1.5 3.27-2.4 4.93-1.5.95.5 1.78 1.54 2.81 1.31.61-.13 1.04-.7 1.62-.94 1.27-.5 2.54.57 3.38 1.6.65.8 1.98 1.83 1.6 2.78-.18.48.1.81-.4 1 .06.2-.65.43-.65.67 0 1.14-.85 2.4-.15 3.31.26.3 1.28.56 1.41.91.13.54.03 1.11-.26 1.59-.79 1.73-1.74 4.33-3.52 5-.5.12-.97.31-1.4.57-.87.63-1.55 1.16-1.47 2.24 1.22.14 2.4.38 3.53.6.54.1 5.4 1 5.4 1.45v.56c.51.33.96.75 1.33 1.24.82 1.4 1.22 3 1.16 4.62-.06 1.6.06 3.22.36 4.8a4.97 4.97 0 0 0 2.74 3.52l.54.06c1.6.17 3.42.45 4.34 1.8a2.82 2.82 0 0 1-2.11 4.38l-.1.36c.44 1.21 1.56 2.44 1.94 3.67.8 2.6.78 5.24 1.4 7.88.68 2.85 1.98 5.7 2.57 8.58zM388.3 521.9h-.94l.4.31.54-.3zm-3.87-13.93zm0 0a1.53 1.53 0 0 0-1.26 2.36l.08.12c.7 1.02 1.6 1.95 1.99 3.13a4.56 4.56 0 0 1-.7 3.9l2.59.28c.3-2.18-.02-4.4-.91-6.43-.25-.63-1.09-1.95-1.79-3.36z"/><path id="xdu0dY" d="M389.27 505.83a8.45 8.45 0 0 1 1.13 4.53c-.06 1.57.06 3.15.35 4.7.4 1.53 1.41 3.01 2.88 3.52.7.23 1.7.49 1.62 1.22-.05.52-.66.77-1.17.87-2.58.51-5.26.14-7.6-1.05 1.23-2.5.7-5.52-.3-8.1-.55-1.37-3.85-6.19-2.76-7.4 1.46-1.67 4.96.39 5.85 1.7z"/><path id="xdu0dZ" d="M383.88 488.7c0 1.13-.13 2.36.55 3.26.26.27.48.56.65.89.12.53.03 1.09-.25 1.55-.77 1.7-1.7 3.57-3.44 4.23-.5.12-.97.3-1.41.56-.89.65-.82 1.97-.7 3.07.1 1.1 0 2.48-1.05 2.9-1.8-.82-3.97 1.58-4.07-.4-.05-.94.5-5.43.55-6.38.09-1.65-1.01-3.1-1.93-4.48-.91-1.38-1.72-3.12-1.03-4.63.5-1.08 1.64-1.71 2.75-2.16 2.94-1.23 9.32-3.67 9.38 1.6z"/><path id="xdu0ea" d="M383.02 488.21c.8.03 1.53-.42 1.89-1.13.36-.93-.26-1.94-.88-2.71-.83-1.02-2.11-2.11-3.32-1.58-.57.24-.98.8-1.58.92-1.02.23-1.83-.78-2.74-1.28-1.62-.88-3.74 0-4.85 1.47-1.1 1.48-1.45 3.37-1.75 5.19-.3 1.81-.62 3.7-1.7 5.2s-3.16 2.45-4.81 1.64l13.13 1.64c.79-.62.53-1.9-.08-2.7-.61-.78-1.5-1.37-1.95-2.25-.46-.9-.15-2.3.84-2.41 1.27-.15 2.24 1.9 3.4 1.36.51-.36.78-.98.66-1.6a3.9 3.9 0 0 1 .07-1.83c.6-1.31 2.7.09 3.67.07z"/><path id="xdu0eb" d="M381.13 490.05a.74.74 0 1 1 1.48 0 .74.74 0 0 1-1.48 0z"/><path id="xdu0ec" d="M368.7 504.57a8.74 8.74 0 0 0-2.8 3.48 37.8 37.8 0 0 0-4.27 18.2c2.86-2.85 6.03-5.87 10.04-6.38 2.82-.36 5.63.58 8.45.15a6.71 6.71 0 0 0 4.04-2.05 4.56 4.56 0 0 0 1.03-4.3c-.37-1.16-1.25-2.06-1.95-3.06l-.08-.12a1.5 1.5 0 0 1 1.34-2.33c.63.03 1.25-.13 1.78-.47a4.18 4.18 0 0 0 1.7-3.64c0-.45-4.76-1.33-5.3-1.41a25.17 25.17 0 0 0-5.67-.7c-1.34.05-2.4.84-3.7 1.19-1.56.44-3.23.57-4.62 1.44z"/><path id="xdu0ed" d="M362.51 527.48a96.1 96.1 0 0 1 14.34 2.63 1.71 1.71 0 0 1 1.68 1.94l.8 21.03c1 .75 2.37.75 3.37 0a5.05 5.05 0 0 0 1.87-3.03c.23-1.2.37-2.4.44-3.61.61-5.94 3.56-11.44 4.35-17.36.32-2.46.14-5.27-1.7-6.94-1.22-1.12-2.95-1.48-4.59-1.76a93.02 93.02 0 0 0-14.58-1.66c-3.64-.01-5.7 5.73-5.98 8.76z"/><path id="xdu0ee" d="M387.96 556.57c-2.98.41-6-.3-8.49-2a1 1 0 0 1-.48-.58c0-.33.15-.64.42-.85.58-.6 1.55-2.11 2.4-2.27.84-.16 1.71.74 2.3 1.24.48.42 3.74 4.48 3.85 4.46z"/><path id="xdu0ef" d="M401.27 545.16l-4.64 2.19a65.88 65.88 0 0 0-10.73-15.76c-.86-.94-1.79-1.93-2.01-3.18a4.77 4.77 0 0 1 .7-3.11 8.92 8.92 0 0 1 4.34-3.78c1.26-.53 4.41-1.41 5.63-.38.7.64 1.13 2.71 1.46 3.62.47 1.24.9 2.5 1.28 3.78.78 2.55 1.46 5.14 2.1 7.75l1.87 8.87z"/><path id="xdu0eg" d="M404.95 547.9c-2.79.73-5.68 1.01-8.56.81l.26-3.02c.01-.4.1-.8.29-1.15 1.74-2.92 6.73 2.05 8.01 3.36z"/><path id="xdu0eh" d="M374.28 516.15c.64.3 1.32.47 2.02.5l17.66 1.88c1.58.17 3.36.45 4.23 1.76a2.75 2.75 0 0 1-2.07 4.3l-.16.6a6.72 6.72 0 0 1-3.46.94c.7-1.3-.22-2.97-1.5-3.65-1.3-.68-2.82-.66-4.29-.61l-7.98.25c-2.2.07-4.48.12-6.53-.67-2.06-.8-3.88-2.66-3.9-4.86 1.22-.49 2.62-1.3 3.91-1.56 1.47-.3.87.46 2.07 1.12z"/><path id="xdu0ei" d="M381.27 495.91c.98.14 1.99 0 2.9-.43"/><path id="xdu0ej" d="M588.14 550.38a3.04 3.04 0 1 1 6.07 0 3.04 3.04 0 0 1-6.07 0z"/><path id="xdu0ek" d="M238.8 428.45v-9.42h4.05v9.42z"/><path id="xdu0em" d="M239.27 428.45v-9.42h2.57v9.42z"/><path id="xdu0en" d="M217.86 419.36v-3.38h25.16v3.38z"/><path id="xdu0ep" d="M217.86 419.03v-2.57h23.98v2.57z"/><path id="xdu0eq" d="M231.22 435.58a8.71 8.71 0 1 1 17.42 0 8.71 8.71 0 0 1-17.42 0z"/><path id="xdu0es" d="M231.9 434.17a8.03 8.03 0 1 1 16.06 0 8.03 8.03 0 0 1-16.05 0z"/><path id="xdu0et" d="M216.96 519.26V391.6h4.08v127.65z"/><path id="xdu0ev" d="M217.86 519.26V391.6h2.57v127.65z"/><path id="xdu0ew" d="M212.55 386.74a6.4 6.4 0 1 1 12.8 0 6.4 6.4 0 0 1-12.8 0z"/><path id="xdu0ex" d="M226.82 429.92v-4.77h26.76v4.77z"/><path id="xdu0ez" d="M228.14 428.45v-2.57h23.98v2.57z"/><path id="xdu0eA" d="M218.8 557.97c-5.18 0-9.42 1.16-9.42-3.69v-35.26c0-4.86 4.22-8.82 9.42-8.82 5.17 0 9.4 3.96 9.4 8.82v35.26c0 4.85-4.23 3.69-9.4 3.69z"/><path id="xdu0eC" d="M218.8 556.1c-4.5 0-8.18 1.08-8.18-3.42v-32.71a8.2 8.2 0 0 1 8.18-8.18 8.2 8.2 0 0 1 8.18 8.18v32.7c0 4.5-3.72 3.43-8.18 3.43z"/><path id="xdu0eD" d="M647.4 428.45v-9.42h4.06v9.42z"/><path id="xdu0eF" d="M648.4 428.45v-9.42h2.58v9.42z"/><path id="xdu0eG" d="M647.23 419.36v-3.38h25.16v3.38z"/><path id="xdu0eI" d="M648.4 419.03v-2.57h24v2.57z"/><path id="xdu0eJ" d="M641.6 435.58a8.71 8.71 0 1 1 17.42 0 8.71 8.71 0 0 1-17.42 0z"/><path id="xdu0eL" d="M642.28 434.17a8.03 8.03 0 1 1 16.06 0 8.03 8.03 0 0 1-16.06 0z"/><path id="xdu0eM" d="M669.21 519.26V391.6h4.08v127.65z"/><path id="xdu0eO" d="M669.82 519.26V391.6h2.57v127.65z"/><path id="xdu0eP" d="M664.9 386.74a6.4 6.4 0 1 1 12.8 0 6.4 6.4 0 0 1-12.8 0z"/><path id="xdu0eQ" d="M636.67 429.92v-4.77h26.76v4.77z"/><path id="xdu0eS" d="M638.13 428.45v-2.57h23.98v2.57z"/><path id="xdu0eT" d="M671.44 557.97c5.19 0 9.43 1.16 9.43-3.69v-35.26c0-4.86-4.23-8.82-9.43-8.82-5.18 0-9.42 3.96-9.42 8.82v35.26c-.03 4.85 4.24 3.69 9.42 3.69z"/><path id="xdu0eV" d="M671.44 556.1c4.5 0 8.18 1.08 8.18-3.42v-32.71a8.2 8.2 0 0 0-8.18-8.18 8.2 8.2 0 0 0-8.17 8.18v32.7c0 4.5 3.65 3.43 8.17 3.43z"/><path id="xdu0eW" d="M483.5 586.92v-1.72h62.53v1.72z"/><path id="xdu0eX" d="M555.45 570.63v-1.7h18.84v1.7z"/><path id="xdu0eY" d="M618.85 610.04v-1.7h31.7v1.7z"/><path id="xdu0eZ" d="M641.12 598.9v-1.7h17.14v1.7z"/><path id="xdu0fa" d="M333.5 586.92v-1.72h62.53v1.72z"/><path id="xdu0fb" d="M405.45 570.63v-1.7h18.84v1.7z"/><path id="xdu0fc" d="M648.85 640.04v-1.7h31.7v1.7z"/><path id="xdu0fd" d="M671.12 628.9v-1.7h17.14v1.7z"/><path id="xdu0fe" d="M398.36 525v-20.38h27.59V525z"/><path id="xdu0ff" d="M401.08 522.4v-17.78h-2.72V525h27.59v-2.6z"/><path id="xdu0fg" d="M404.65 508.93a1.1 1.1 0 0 0-.67-.68c.37-.17.5-.3.67-.67.17.37.3.5.68.67-.37.17-.5.3-.68.68z"/><path id="xdu0fh" d="M402.53 511.97a1.1 1.1 0 0 0-.68-.68c.37-.16.5-.3.68-.67.16.37.3.5.67.67-.37.17-.5.3-.67.68z"/><path id="xdu0fi" d="M400.5 508.93a1.1 1.1 0 0 0-.68-.68c.37-.17.5-.3.68-.67.16.37.3.5.67.67-.37.17-.5.3-.67.68z"/><path id="xdu0fj" d="M406.95 510.62c.17.37.3.5.68.67-.38.17-.51.3-.68.68a1.1 1.1 0 0 0-.68-.68c.38-.16.51-.3.68-.67z"/><path id="xdu0fk" d="M409.08 507.58c.17.37.3.5.67.67-.37.17-.5.3-.67.68a1.1 1.1 0 0 0-.68-.68c.37-.17.51-.3.68-.67z"/><path id="xdu0fl" d="M411.1 510.62c.18.37.31.5.68.67-.37.17-.5.3-.67.68a1.1 1.1 0 0 0-.68-.68c.37-.16.51-.3.68-.67z"/><path id="xdu0fm" d="M417.36 508.93a1.1 1.1 0 0 0-.68-.68c.38-.17.51-.3.68-.67.17.37.3.5.68.67-.38.17-.51.3-.68.68z"/><path id="xdu0fn" d="M415.23 511.97a1.1 1.1 0 0 0-.67-.68c.37-.16.5-.3.67-.67.17.37.3.5.68.67-.37.17-.51.3-.68.68z"/><path id="xdu0fo" d="M413.2 508.93a1.1 1.1 0 0 0-.67-.68c.37-.17.5-.3.67-.67.17.37.3.5.68.67-.37.17-.51.3-.68.68z"/><path id="xdu0fp" d="M419.66 510.62c.16.37.3.5.67.67-.37.17-.5.3-.67.68a1.1 1.1 0 0 0-.68-.68c.37-.16.5-.3.68-.67z"/><path id="xdu0fq" d="M421.78 507.58c.17.37.3.5.68.67-.37.17-.5.3-.68.68a1.1 1.1 0 0 0-.67-.68c.37-.17.5-.3.67-.67z"/><path id="xdu0fr" d="M423.81 510.62c.17.37.3.5.68.67-.37.17-.5.3-.68.68a1.1 1.1 0 0 0-.67-.68c.37-.16.5-.3.67-.67z"/><path id="xdu0fs" d="M404.65 514.76a1.1 1.1 0 0 0-.67-.68c.37-.16.5-.3.67-.67.17.37.3.5.68.67-.37.17-.5.3-.68.68z"/><path id="xdu0ft" d="M402.53 517.8a1.1 1.1 0 0 0-.68-.67c.37-.17.5-.3.68-.68.16.37.3.51.67.68-.37.16-.5.3-.67.67z"/><path id="xdu0fu" d="M400.5 514.76a1.1 1.1 0 0 0-.68-.68c.37-.16.5-.3.68-.67.16.37.3.5.67.67-.37.17-.5.3-.67.68z"/><path id="xdu0fv" d="M406.95 516.45c.17.37.3.51.68.68-.38.16-.51.3-.68.67a1.1 1.1 0 0 0-.68-.67c.38-.17.51-.3.68-.68z"/><path id="xdu0fw" d="M409.08 513.4c.17.38.3.52.67.68-.37.17-.5.3-.67.68a1.1 1.1 0 0 0-.68-.68c.37-.16.51-.3.68-.67z"/><path id="xdu0fx" d="M411.1 516.45c.18.37.31.51.68.68-.37.17-.5.3-.67.67a1.1 1.1 0 0 0-.68-.67c.37-.17.51-.3.68-.68z"/><path id="xdu0fy" d="M417.36 514.76a1.1 1.1 0 0 0-.68-.68c.38-.16.51-.3.68-.67.17.37.3.5.68.67-.38.17-.51.3-.68.68z"/><path id="xdu0fz" d="M415.23 517.8a1.1 1.1 0 0 0-.67-.67c.37-.17.5-.3.67-.68.17.37.3.51.68.68-.37.16-.51.3-.68.67z"/><path id="xdu0fA" d="M413.2 514.76a1.1 1.1 0 0 0-.67-.68c.37-.16.5-.3.67-.67.17.37.3.5.68.67-.37.17-.51.3-.68.68z"/><path id="xdu0fB" d="M419.66 516.45c.16.37.3.51.67.68-.37.16-.5.3-.67.67a1.1 1.1 0 0 0-.68-.67c.37-.17.5-.3.68-.68z"/><path id="xdu0fC" d="M421.78 513.4c.17.38.3.52.68.68-.37.17-.5.3-.68.68a1.1 1.1 0 0 0-.67-.68c.37-.16.5-.3.67-.67z"/><path id="xdu0fD" d="M423.81 516.45c.17.37.3.51.68.68-.37.17-.5.3-.68.67a1.1 1.1 0 0 0-.67-.67c.37-.17.5-.3.67-.68z"/><path id="xdu0fE" d="M404.65 520.6a1.1 1.1 0 0 0-.67-.68c.37-.17.5-.3.67-.68.17.37.3.51.68.68-.37.16-.5.3-.68.67z"/><path id="xdu0fF" d="M402.53 523.64a1.1 1.1 0 0 0-.68-.68c.37-.17.5-.3.68-.68.16.38.3.51.67.68-.37.17-.5.3-.67.68z"/><path id="xdu0fG" d="M400.5 520.6a1.1 1.1 0 0 0-.68-.68c.37-.17.5-.3.68-.68.16.37.3.5.67.68-.37.16-.5.3-.67.67z"/><path id="xdu0fH" d="M406.95 522.28c.17.38.3.51.68.68-.38.17-.51.3-.68.68a1.1 1.1 0 0 0-.68-.68c.38-.17.51-.3.68-.68z"/><path id="xdu0fI" d="M409.08 519.24c.17.37.3.5.67.68-.37.16-.5.3-.67.67a1.1 1.1 0 0 0-.68-.67c.37-.17.51-.3.68-.68z"/><path id="xdu0fJ" d="M411.1 522.28c.18.38.31.51.68.68-.37.17-.5.3-.67.68a1.1 1.1 0 0 0-.68-.68c.37-.17.51-.3.68-.68z"/><path id="xdu0fK" d="M417.36 520.6a1.1 1.1 0 0 0-.68-.68c.38-.17.51-.3.68-.68.17.37.3.51.68.68-.38.16-.51.3-.68.67z"/><path id="xdu0fL" d="M415.23 523.64a1.1 1.1 0 0 0-.67-.68c.37-.17.5-.3.67-.68.17.38.3.51.68.68-.37.17-.51.3-.68.68z"/><path id="xdu0fM" d="M413.2 520.6a1.1 1.1 0 0 0-.67-.68c.37-.17.5-.3.67-.68.17.37.3.5.68.68-.37.16-.51.3-.68.67z"/><path id="xdu0fN" d="M419.66 522.28c.16.38.3.51.67.68-.37.17-.5.3-.67.68a1.1 1.1 0 0 0-.68-.68c.37-.17.5-.3.68-.68z"/><path id="xdu0fO" d="M421.78 519.24c.17.37.3.5.68.68-.37.16-.5.3-.68.67a1.1 1.1 0 0 0-.67-.67c.37-.17.5-.3.67-.68z"/><path id="xdu0fP" d="M423.81 522.28c.17.38.3.51.68.68-.37.17-.5.3-.68.68a1.1 1.1 0 0 0-.67-.68c.37-.17.5-.3.67-.68z"/><path id="xdu0fQ" d="M409.04 525v-20.38h6.23V525z"/><path id="xdu0fR" d="M427.31 505.67c0 .51-.42.93-.93.93h-28.45a.93.93 0 0 1-.93-.93v-4.33c0-.51.42-.93.93-.93h28.45c.51 0 .93.42.93.93v4.33z"/><path id="xdu0fS" d="M400.15 505.67v-4.33c0-.51.42-.93.93-.93h-3.15a.93.93 0 0 0-.93.93v4.33c0 .51.42.93.93.93h3.15a.93.93 0 0 1-.93-.93z"/><path id="xdu0fT" d="M420.4 495c1.83 0 3.32 1.26 3.32 2.81 0 1.17-.85 2.18-2.07 2.6h-5.72v6.19h-7.55v-6.19h-5.72c-1.22-.42-2.07-1.43-2.07-2.6 0-1.55 1.5-2.81 3.32-2.81 1.66 0 3.4.86 5.06 2.48.77.76 1.35 1.5 1.68 1.97a1.73 1.73 0 0 1 3 0c.34-.46.92-1.21 1.69-1.97 1.65-1.62 3.4-2.48 5.06-2.48zm-16.6 4.7h5.87c-.32-.44-.79-1-1.37-1.57-1.02-1-2.62-2.2-4.39-2.2-1.31 0-2.39.84-2.39 1.88 0 .99.98 1.81 2.23 1.88h.05zm16.76-.01c1.25-.07 2.23-.9 2.23-1.88 0-1.04-1.08-1.88-2.4-1.88-.97 0-2.52.38-4.38 2.2-.58.56-1.05 1.13-1.38 1.56h5.93z"/><path id="xdu0fU" d="M329 560v-7.6c0-1.17-.75-2.21-1.87-2.58l-24.54-8.18a2.73 2.73 0 0 0-3.6 2.58V560z"/><path id="xdu0fV" d="M144 630H74a5 5 0 0 1-5-5v-10h75z"/><path id="xdu0fW" d="M189.28 620H64a5 5 0 0 1-5-5v-10h165l-25.78 12.89a20 20 0 0 1-8.94 2.11z"/><path id="xdu0fX" d="M119 625a15 15 0 1 1 30 0 15 15 0 0 1-30 0z"/><path id="xdu0fY" d="M126.5 625a7.5 7.5 0 1 1 15 0 7.5 7.5 0 0 1-15 0z"/><path id="xdu0fZ" d="M89 625a15 15 0 1 1 30 0 15 15 0 0 1-30 0z"/><path id="xdu0ga" d="M96.5 625a7.5 7.5 0 1 1 15 0 7.5 7.5 0 0 1-15 0z"/><path id="xdu0gb" d="M239 630v-20h110v20z"/><path id="xdu0gc" d="M254 625a15 15 0 1 1 30 0 15 15 0 0 1-30 0z"/><path id="xdu0gd" d="M261.5 625a7.5 7.5 0 1 1 15 0 7.5 7.5 0 0 1-15 0z"/><path id="xdu0ge" d="M224 625a15 15 0 1 1 30 0 15 15 0 0 1-30 0z"/><path id="xdu0gf" d="M231.5 625a7.5 7.5 0 1 1 15 0 7.5 7.5 0 0 1-15 0z"/><path id="xdu0gg" d="M349 620h-25v-10h-25v-55h40.58a5 5 0 0 1 4.97 4.38l3.48 27.9c.65 5.14.97 10.32.97 15.5V620z"/><path id="xdu0gh" d="M324 620v-10h25v10z"/><path id="xdu0gi" d="M309 625a15 15 0 1 1 30 0 15 15 0 0 1-30 0z"/><path id="xdu0gj" d="M316.5 625a7.5 7.5 0 1 1 15 0 7.5 7.5 0 0 1-15 0z"/><path id="xdu0gk" d="M324 565h-12.5a2.5 2.5 0 0 0-2.5 2.5V582a3.75 3.75 0 0 0 2.94 3.65l12.06 2.68z"/><path id="xdu0gl" d="M348.03 587.28L345.25 565H311.5a2.5 2.5 0 0 0-2.5 2.5V582a3.75 3.75 0 0 0 2.94 3.65l36.7 8.16c-.15-2.18-.33-4.36-.6-6.53z"/><path id="xdu0gm" d="M324 588.33l24.65 5.48c-.16-2.18-.34-4.36-.62-6.53L345.25 565H324z"/><path id="xdu0gn" d="M59 540h230a5 5 0 0 1 5 5v60a5 5 0 0 1-5 5H59a5 5 0 0 1-5-5v-60a5 5 0 0 1 5-5z"/><path id="xdu0go" d="M279 600H69a5 5 0 0 1 0-10h210a5 5 0 0 1 0 10z"/><linearGradient id="xdu0d" x1="612.28" x2="612.28" y1="509.75" y2="420.37" gradientUnits="userSpaceOnUse"><stop offset="0" stop-color="gray" stop-opacity=".25"/><stop offset=".54" stop-color="gray" stop-opacity=".12"/><stop offset="1" stop-color="gray" stop-opacity=".1"/></linearGradient><linearGradient id="xdu0h" x1="608.67" x2="608.67" y1="547.22" y2="447.69" gradientUnits="userSpaceOnUse"><stop offset="0" stop-color="gray" stop-opacity=".25"/><stop offset=".54" stop-color="gray" stop-opacity=".12"/><stop offset="1" stop-color="gray" stop-opacity=".1"/></linearGradient><linearGradient id="xdu0o" x1="576.32" x2="576.32" y1="512.44" y2="421.1" gradientUnits="userSpaceOnUse"><stop offset="0" stop-color="gray" stop-opacity=".25"/><stop offset=".54" stop-color="gray" stop-opacity=".12"/><stop offset="1" stop-color="gray" stop-opacity=".1"/></linearGradient><linearGradient id="xdu0r" x1="579.68" x2="579.68" y1="549.05" y2="447.65" gradientUnits="userSpaceOnUse"><stop offset="0" stop-color="gray" stop-opacity=".25"/><stop offset=".54" stop-color="gray" stop-opacity=".12"/><stop offset="1" stop-color="gray" stop-opacity=".1"/></linearGradient><linearGradient id="xdu0w" x1="557.9" x2="557.9" y1="527.36" y2="466.46" gradientUnits="userSpaceOnUse"><stop offset="0" stop-color="gray" stop-opacity=".25"/><stop offset=".54" stop-color="gray" stop-opacity=".12"/><stop offset="1" stop-color="gray" stop-opacity=".1"/></linearGradient><linearGradient id="xdu0A" x1="555.44" x2="555.44" y1="552.9" y2="485.07" gradientUnits="userSpaceOnUse"><stop offset="0" stop-color="gray" stop-opacity=".25"/><stop offset=".54" stop-color="gray" stop-opacity=".12"/><stop offset="1" stop-color="gray" stop-opacity=".1"/></linearGradient><linearGradient id="xdu0H" x1="544.12" x2="544.12" y1="529.57" y2="468.26" gradientUnits="userSpaceOnUse"><stop offset="0" stop-color="gray" stop-opacity=".25"/><stop offset=".54" stop-color="gray" stop-opacity=".12"/><stop offset="1" stop-color="gray" stop-opacity=".1"/></linearGradient><linearGradient id="xdu0K" x1="546.38" x2="546.38" y1="554.14" y2="486.08" gradientUnits="userSpaceOnUse"><stop offset="0" stop-color="gray" stop-opacity=".25"/><stop offset=".54" stop-color="gray" stop-opacity=".12"/><stop offset="1" stop-color="gray" stop-opacity=".1"/></linearGradient><linearGradient id="xdu0P" x1="485.46" x2="485.46" y1="555.84" y2="452.7" gradientUnits="userSpaceOnUse"><stop offset="0" stop-color="gray" stop-opacity=".25"/><stop offset=".54" stop-color="gray" stop-opacity=".12"/><stop offset="1" stop-color="gray" stop-opacity=".1"/></linearGradient><linearGradient id="xdu0S" x1="456.7" x2="456.7" y1="462.56" y2="414.08" gradientUnits="userSpaceOnUse"><stop offset="0" stop-color="gray" stop-opacity=".25"/><stop offset=".54" stop-color="gray" stop-opacity=".12"/><stop offset="1" stop-color="gray" stop-opacity=".1"/></linearGradient><linearGradient id="xdu0V" x1="363.43" x2="363.43" y1="555.83" y2="361.48" gradientUnits="userSpaceOnUse"><stop offset="0" stop-color="gray" stop-opacity=".25"/><stop offset=".54" stop-color="gray" stop-opacity=".12"/><stop offset="1" stop-color="gray" stop-opacity=".1"/></linearGradient><linearGradient id="xdu0Z" x1="363.84" x2="363.84" y1="428.04" y2="356.98" gradientUnits="userSpaceOnUse"><stop offset="0" stop-color="gray" stop-opacity=".25"/><stop offset=".54" stop-color="gray" stop-opacity=".12"/><stop offset="1" stop-color="gray" stop-opacity=".1"/></linearGradient><linearGradient id="xdu0aj" x1="306.66" x2="306.66" y1="534.7" y2="483.94" gradientUnits="userSpaceOnUse"><stop offset="0" stop-color="gray" stop-opacity=".25"/><stop offset=".54" stop-color="gray" stop-opacity=".12"/><stop offset="1" stop-color="gray" stop-opacity=".1"/></linearGradient><linearGradient id="xdu0an" x1="304.62" x2="304.62" y1="556" y2="499.45" gradientUnits="userSpaceOnUse"><stop offset="0" stop-color="gray" stop-opacity=".25"/><stop offset=".54" stop-color="gray" stop-opacity=".12"/><stop offset="1" stop-color="gray" stop-opacity=".1"/></linearGradient><linearGradient id="xdu0au" x1="286.53" x2="286.53" y1="534.7" y2="483.94" gradientUnits="userSpaceOnUse"><stop offset="0" stop-color="gray" stop-opacity=".25"/><stop offset=".54" stop-color="gray" stop-opacity=".12"/><stop offset="1" stop-color="gray" stop-opacity=".1"/></linearGradient><linearGradient id="xdu0ay" x1="284.48" x2="284.48" y1="556" y2="499.45" gradientUnits="userSpaceOnUse"><stop offset="0" stop-color="gray" stop-opacity=".25"/><stop offset=".54" stop-color="gray" stop-opacity=".12"/><stop offset="1" stop-color="gray" stop-opacity=".1"/></linearGradient><linearGradient id="xdu0aF" x1="291.9" x2="291.9" y1="535.33" y2="484.21" gradientUnits="userSpaceOnUse"><stop offset="0" stop-color="gray" stop-opacity=".25"/><stop offset=".54" stop-color="gray" stop-opacity=".12"/><stop offset="1" stop-color="gray" stop-opacity=".1"/></linearGradient><linearGradient id="xdu0aI" x1="293.77" x2="293.77" y1="555.8" y2="499.06" gradientUnits="userSpaceOnUse"><stop offset="0" stop-color="gray" stop-opacity=".25"/><stop offset=".54" stop-color="gray" stop-opacity=".12"/><stop offset="1" stop-color="gray" stop-opacity=".1"/></linearGradient><linearGradient id="xdu0aN" x1="654.92" x2="654.92" y1="616.92" y2="586.25" gradientUnits="userSpaceOnUse"><stop offset="0" stop-color="gray" stop-opacity=".25"/><stop offset=".54" stop-color="gray" stop-opacity=".12"/><stop offset="1" stop-color="gray" stop-opacity=".1"/></linearGradient><linearGradient id="xdu0aR" x1="134.47" x2="134.47" y1="496.63" y2="344.01" gradientUnits="userSpaceOnUse"><stop offset="0" stop-color="gray" stop-opacity=".25"/><stop offset=".54" stop-color="gray" stop-opacity=".12"/><stop offset="1" stop-color="gray" stop-opacity=".1"/></linearGradient><linearGradient id="xdu0aU" x1="140.09" x2="140.09" y1="557.8" y2="388.37" gradientUnits="userSpaceOnUse"><stop offset="0" stop-color="gray" stop-opacity=".25"/><stop offset=".54" stop-color="gray" stop-opacity=".12"/><stop offset="1" stop-color="gray" stop-opacity=".1"/></linearGradient><linearGradient id="xdu0aZ" x1="202.75" x2="202.75" y1="503.4" y2="375.71" gradientUnits="userSpaceOnUse"><stop offset="0" stop-color="gray" stop-opacity=".25"/><stop offset=".54" stop-color="gray" stop-opacity=".12"/><stop offset="1" stop-color="gray" stop-opacity=".1"/></linearGradient><linearGradient id="xdu0bd" x1="197.6" x2="197.6" y1="556.95" y2="414.74" gradientUnits="userSpaceOnUse"><stop offset="0" stop-color="gray" stop-opacity=".25"/><stop offset=".54" stop-color="gray" stop-opacity=".12"/><stop offset="1" stop-color="gray" stop-opacity=".1"/></linearGradient><linearGradient id="xdu0bn" x1="405.69" x2="405.69" y1="508.09" y2="503.16" gradientUnits="userSpaceOnUse"><stop offset="0" stop-color="gray" stop-opacity=".25"/><stop offset=".54" stop-color="gray" stop-opacity=".12"/><stop offset="1" stop-color="gray" stop-opacity=".1"/></linearGradient><linearGradient id="xdu0bp" x1="405.69" x2="405.69" y1="515.13" y2="510.2" gradientUnits="userSpaceOnUse"><stop offset="0" stop-color="gray" stop-opacity=".25"/><stop offset=".54" stop-color="gray" stop-opacity=".12"/><stop offset="1" stop-color="gray" stop-opacity=".1"/></linearGradient><linearGradient id="xdu0br" x1="405.69" x2="405.69" y1="522.17" y2="517.24" gradientUnits="userSpaceOnUse"><stop offset="0" stop-color="gray" stop-opacity=".25"/><stop offset=".54" stop-color="gray" stop-opacity=".12"/><stop offset="1" stop-color="gray" stop-opacity=".1"/></linearGradient><linearGradient id="xdu0bt" x1="405.69" x2="405.69" y1="528.51" y2="523.58" gradientUnits="userSpaceOnUse"><stop offset="0" stop-color="gray" stop-opacity=".25"/><stop offset=".54" stop-color="gray" stop-opacity=".12"/><stop offset="1" stop-color="gray" stop-opacity=".1"/></linearGradient><linearGradient id="xdu0by" x1="405.68" x2="405.68" y1="501.05" y2="495.41" gradientUnits="userSpaceOnUse"><stop offset="0" stop-color="gray" stop-opacity=".25"/><stop offset=".54" stop-color="gray" stop-opacity=".12"/><stop offset="1" stop-color="gray" stop-opacity=".1"/></linearGradient><linearGradient id="xdu0bD" x1="405.69" x2="405.69" y1="536.26" y2="526.4" gradientUnits="userSpaceOnUse"><stop offset="0" stop-color="gray" stop-opacity=".25"/><stop offset=".54" stop-color="gray" stop-opacity=".12"/><stop offset="1" stop-color="gray" stop-opacity=".1"/></linearGradient><linearGradient id="xdu0bH" x1="452.87" x2="452.87" y1="556.68" y2="535.27" gradientUnits="userSpaceOnUse"><stop offset="0" stop-color="gray" stop-opacity=".25"/><stop offset=".54" stop-color="gray" stop-opacity=".12"/><stop offset="1" stop-color="gray" stop-opacity=".1"/></linearGradient><linearGradient id="xdu0bJ" x1="359.22" x2="359.22" y1="556.68" y2="535.27" gradientUnits="userSpaceOnUse"><stop offset="0" stop-color="gray" stop-opacity=".25"/><stop offset=".54" stop-color="gray" stop-opacity=".12"/><stop offset="1" stop-color="gray" stop-opacity=".1"/></linearGradient><linearGradient id="xdu0bL" x1="290.56" x2="290.56" y1="489.07" y2="448.23" gradientUnits="userSpaceOnUse"><stop offset="0" stop-color="gray" stop-opacity=".25"/><stop offset=".54" stop-color="gray" stop-opacity=".12"/><stop offset="1" stop-color="gray" stop-opacity=".1"/></linearGradient><linearGradient id="xdu0bP" x1="290.56" x2="290.56" y1="556.68" y2="488.04" gradientUnits="userSpaceOnUse"><stop offset="0" stop-color="gray" stop-opacity=".25"/><stop offset=".54" stop-color="gray" stop-opacity=".12"/><stop offset="1" stop-color="gray" stop-opacity=".1"/></linearGradient><linearGradient id="xdu0bZ" x1="524.46" x2="524.46" y1="551.29" y2="472.17" gradientUnits="userSpaceOnUse"><stop offset="0" stop-color="gray" stop-opacity=".25"/><stop offset=".54" stop-color="gray" stop-opacity=".12"/><stop offset="1" stop-color="gray" stop-opacity=".1"/></linearGradient><linearGradient id="xdu0cb" x1="562.72" x2="562.72" y1="538.03" y2="527.64" gradientUnits="userSpaceOnUse"><stop offset="0" stop-color="gray" stop-opacity=".25"/><stop offset=".54" stop-color="gray" stop-opacity=".12"/><stop offset="1" stop-color="gray" stop-opacity=".1"/></linearGradient><linearGradient id="xdu0cd" x1="500.77" x2="500.77" y1="516.53" y2="509.06" gradientUnits="userSpaceOnUse"><stop offset="0" stop-color="gray" stop-opacity=".25"/><stop offset=".54" stop-color="gray" stop-opacity=".12"/><stop offset="1" stop-color="gray" stop-opacity=".1"/></linearGradient><linearGradient id="xdu0cu" x1="533.71" x2="533.71" y1="551.04" y2="545.41" gradientUnits="userSpaceOnUse"><stop offset="0" stop-color="gray" stop-opacity=".25"/><stop offset=".54" stop-color="gray" stop-opacity=".12"/><stop offset="1" stop-color="gray" stop-opacity=".1"/></linearGradient><linearGradient id="xdu0cx" x1="521.13" x2="521.13" y1="555.4" y2="549.66" gradientUnits="userSpaceOnUse"><stop offset="0" stop-color="gray" stop-opacity=".25"/><stop offset=".54" stop-color="gray" stop-opacity=".12"/><stop offset="1" stop-color="gray" stop-opacity=".1"/></linearGradient><linearGradient id="xdu0cA" x1="544.25" x2="544.25" y1="555.42" y2="549.64" gradientUnits="userSpaceOnUse"><stop offset="0" stop-color="gray" stop-opacity=".25"/><stop offset=".54" stop-color="gray" stop-opacity=".12"/><stop offset="1" stop-color="gray" stop-opacity=".1"/></linearGradient><linearGradient id="xdu0cD" x1="426.2" x2="426.2" y1="557.08" y2="520.76" gradientUnits="userSpaceOnUse"><stop offset="0" stop-color="gray" stop-opacity=".25"/><stop offset=".54" stop-color="gray" stop-opacity=".12"/><stop offset="1" stop-color="gray" stop-opacity=".1"/></linearGradient><linearGradient id="xdu0cP" x1="572.53" x2="572.53" y1="618.32" y2="587.66" gradientUnits="userSpaceOnUse"><stop offset="0" stop-color="gray" stop-opacity=".25"/><stop offset=".54" stop-color="gray" stop-opacity=".12"/><stop offset="1" stop-color="gray" stop-opacity=".1"/></linearGradient><linearGradient id="xdu0cW" x1="608.75" x2="608.75" y1="599.76" y2="517.25" gradientUnits="userSpaceOnUse"><stop offset="0" stop-color="gray" stop-opacity=".25"/><stop offset=".54" stop-color="gray" stop-opacity=".12"/><stop offset="1" stop-color="gray" stop-opacity=".1"/></linearGradient><linearGradient id="xdu0dd" x1="616.78" x2="616.78" y1="534.35" y2="512.31" gradientUnits="userSpaceOnUse"><stop offset="0" stop-color="gray" stop-opacity=".25"/><stop offset=".54" stop-color="gray" stop-opacity=".12"/><stop offset="1" stop-color="gray" stop-opacity=".1"/></linearGradient><linearGradient id="xdu0dh" x1="660.29" x2="660.29" y1="601.24" y2="585.08" gradientUnits="userSpaceOnUse"><stop offset="0" stop-color="gray" stop-opacity=".25"/><stop offset=".54" stop-color="gray" stop-opacity=".12"/><stop offset="1" stop-color="gray" stop-opacity=".1"/></linearGradient><linearGradient id="xdu0dl" x1="620.65" x2="620.65" y1="610.17" y2="548.23" gradientUnits="userSpaceOnUse"><stop offset="0" stop-color="gray" stop-opacity=".25"/><stop offset=".54" stop-color="gray" stop-opacity=".12"/><stop offset="1" stop-color="gray" stop-opacity=".1"/></linearGradient><linearGradient id="xdu0do" x1="178.58" x2="178.58" y1="596.11" y2="593.15" gradientUnits="userSpaceOnUse"><stop offset="0" stop-color="gray" stop-opacity=".25"/><stop offset=".54" stop-color="gray" stop-opacity=".12"/><stop offset="1" stop-color="gray" stop-opacity=".1"/></linearGradient><linearGradient id="xdu0dq" x1="251.82" x2="251.82" y1="584.14" y2="581.18" gradientUnits="userSpaceOnUse"><stop offset="0" stop-color="gray" stop-opacity=".25"/><stop offset=".54" stop-color="gray" stop-opacity=".12"/><stop offset="1" stop-color="gray" stop-opacity=".1"/></linearGradient><linearGradient id="xdu0ds" x1="283.51" x2="283.51" y1="596.11" y2="593.15" gradientUnits="userSpaceOnUse"><stop offset="0" stop-color="gray" stop-opacity=".25"/><stop offset=".54" stop-color="gray" stop-opacity=".12"/><stop offset="1" stop-color="gray" stop-opacity=".1"/></linearGradient><linearGradient id="xdu0du" x1="304.64" x2="304.64" y1="629.92" y2="626.95" gradientUnits="userSpaceOnUse"><stop offset="0" stop-color="gray" stop-opacity=".25"/><stop offset=".54" stop-color="gray" stop-opacity=".12"/><stop offset="1" stop-color="gray" stop-opacity=".1"/></linearGradient><linearGradient id="xdu0dw" x1="141.61" x2="141.61" y1="636.25" y2="633.29" gradientUnits="userSpaceOnUse"><stop offset="0" stop-color="gray" stop-opacity=".25"/><stop offset=".54" stop-color="gray" stop-opacity=".12"/><stop offset="1" stop-color="gray" stop-opacity=".1"/></linearGradient><linearGradient id="xdu0dy" x1="158.16" x2="158.16" y1="644" y2="641.04" gradientUnits="userSpaceOnUse"><stop offset="0" stop-color="gray" stop-opacity=".25"/><stop offset=".54" stop-color="gray" stop-opacity=".12"/><stop offset="1" stop-color="gray" stop-opacity=".1"/></linearGradient><linearGradient id="xdu0dA" x1="293.02" x2="293.02" y1="636.96" y2="633.99" gradientUnits="userSpaceOnUse"><stop offset="0" stop-color="gray" stop-opacity=".25"/><stop offset=".54" stop-color="gray" stop-opacity=".12"/><stop offset="1" stop-color="gray" stop-opacity=".1"/></linearGradient><linearGradient id="xdu0dC" x1="394.43" x2="394.43" y1="617.24" y2="614.28" gradientUnits="userSpaceOnUse"><stop offset="0" stop-color="gray" stop-opacity=".25"/><stop offset=".54" stop-color="gray" stop-opacity=".12"/><stop offset="1" stop-color="gray" stop-opacity=".1"/></linearGradient><linearGradient id="xdu0dE" x1="444.77" x2="444.77" y1="601.04" y2="598.08" gradientUnits="userSpaceOnUse"><stop offset="0" stop-color="gray" stop-opacity=".25"/><stop offset=".54" stop-color="gray" stop-opacity=".12"/><stop offset="1" stop-color="gray" stop-opacity=".1"/></linearGradient><linearGradient id="xdu0dG" x1="529.98" x2="529.98" y1="629.92" y2="626.95" gradientUnits="userSpaceOnUse"><stop offset="0" stop-color="gray" stop-opacity=".25"/><stop offset=".54" stop-color="gray" stop-opacity=".12"/><stop offset="1" stop-color="gray" stop-opacity=".1"/></linearGradient><linearGradient id="xdu0dI" x1="515.54" x2="515.54" y1="641.18" y2="638.22" gradientUnits="userSpaceOnUse"><stop offset="0" stop-color="gray" stop-opacity=".25"/><stop offset=".54" stop-color="gray" stop-opacity=".12"/><stop offset="1" stop-color="gray" stop-opacity=".1"/></linearGradient><linearGradient id="xdu0dV" x1="363.86" x2="363.86" y1="495.76" y2="495.45" gradientUnits="userSpaceOnUse"><stop offset="0" stop-color="gray" stop-opacity=".25"/><stop offset=".54" stop-color="gray" stop-opacity=".12"/><stop offset="1" stop-color="gray" stop-opacity=".1"/></linearGradient><linearGradient id="xdu0dX" x1="383.27" x2="383.27" y1="556.84" y2="481.32" gradientUnits="userSpaceOnUse"><stop offset="0" stop-color="gray" stop-opacity=".25"/><stop offset=".54" stop-color="gray" stop-opacity=".12"/><stop offset="1" stop-color="gray" stop-opacity=".1"/></linearGradient><linearGradient id="xdu0el" x1="240.82" x2="240.82" y1="428.45" y2="419.03" gradientUnits="userSpaceOnUse"><stop offset="0" stop-color="gray" stop-opacity=".25"/><stop offset=".54" stop-color="gray" stop-opacity=".12"/><stop offset="1" stop-color="gray" stop-opacity=".1"/></linearGradient><linearGradient id="xdu0eo" x1="230.44" x2="230.44" y1="419.36" y2="415.98" gradientUnits="userSpaceOnUse"><stop offset="0" stop-color="gray" stop-opacity=".25"/><stop offset=".54" stop-color="gray" stop-opacity=".12"/><stop offset="1" stop-color="gray" stop-opacity=".1"/></linearGradient><linearGradient id="xdu0er" x1="239.93" x2="239.93" y1="444.29" y2="426.86" gradientUnits="userSpaceOnUse"><stop offset="0" stop-color="gray" stop-opacity=".25"/><stop offset=".54" stop-color="gray" stop-opacity=".12"/><stop offset="1" stop-color="gray" stop-opacity=".1"/></linearGradient><linearGradient id="xdu0eu" x1="219" x2="219" y1="519.26" y2="391.61" gradientUnits="userSpaceOnUse"><stop offset="0" stop-color="gray" stop-opacity=".25"/><stop offset=".54" stop-color="gray" stop-opacity=".12"/><stop offset="1" stop-color="gray" stop-opacity=".1"/></linearGradient><linearGradient id="xdu0ey" x1="240.2" x2="240.2" y1="429.92" y2="425.15" gradientUnits="userSpaceOnUse"><stop offset="0" stop-color="gray" stop-opacity=".25"/><stop offset=".54" stop-color="gray" stop-opacity=".12"/><stop offset="1" stop-color="gray" stop-opacity=".1"/></linearGradient><linearGradient id="xdu0eB" x1="218.8" x2="218.8" y1="558.09" y2="510.2" gradientUnits="userSpaceOnUse"><stop offset="0" stop-color="gray" stop-opacity=".25"/><stop offset=".54" stop-color="gray" stop-opacity=".12"/><stop offset="1" stop-color="gray" stop-opacity=".1"/></linearGradient><linearGradient id="xdu0eE" x1="439.82" x2="439.82" y1="595.31" y2="585.89" gradientUnits="userSpaceOnUse"><stop offset="0" stop-color="gray" stop-opacity=".25"/><stop offset=".54" stop-color="gray" stop-opacity=".12"/><stop offset="1" stop-color="gray" stop-opacity=".1"/></linearGradient><linearGradient id="xdu0eH" x1="429.64" x2="429.64" y1="586.6" y2="583.22" gradientUnits="userSpaceOnUse"><stop offset="0" stop-color="gray" stop-opacity=".25"/><stop offset=".54" stop-color="gray" stop-opacity=".12"/><stop offset="1" stop-color="gray" stop-opacity=".1"/></linearGradient><linearGradient id="xdu0eK" x1="439.16" x2="439.16" y1="611.17" y2="593.74" gradientUnits="userSpaceOnUse"><stop offset="0" stop-color="gray" stop-opacity=".25"/><stop offset=".54" stop-color="gray" stop-opacity=".12"/><stop offset="1" stop-color="gray" stop-opacity=".1"/></linearGradient><linearGradient id="xdu0eN" x1="418.03" x2="418.03" y1="686.16" y2="558.51" gradientUnits="userSpaceOnUse"><stop offset="0" stop-color="gray" stop-opacity=".25"/><stop offset=".54" stop-color="gray" stop-opacity=".12"/><stop offset="1" stop-color="gray" stop-opacity=".1"/></linearGradient><linearGradient id="xdu0eR" x1="439.4" x2="439.4" y1="596.66" y2="591.89" gradientUnits="userSpaceOnUse"><stop offset="0" stop-color="gray" stop-opacity=".25"/><stop offset=".54" stop-color="gray" stop-opacity=".12"/><stop offset="1" stop-color="gray" stop-opacity=".1"/></linearGradient><linearGradient id="xdu0eU" x1="310.37" x2="310.37" y1="558.09" y2="510.2" gradientUnits="userSpaceOnUse"><stop offset="0" stop-color="gray" stop-opacity=".25"/><stop offset=".54" stop-color="gray" stop-opacity=".12"/><stop offset="1" stop-color="gray" stop-opacity=".1"/></linearGradient><clipPath id="xdu0gp"><use fill="#fff" xlink:href="#xdu0a"/></clipPath></defs><g><g transform="translate(-54 -344)"><g opacity=".3"><use fill="#fff" fill-opacity="0" stroke="#ff9800" stroke-miterlimit="50" stroke-width="4" xlink:href="#xdu0b"/></g><g><g><use fill="url(#xdu0d)" xlink:href="#xdu0c"/></g></g><g><use fill="#009688" xlink:href="#xdu0e"/></g><g><use fill="#795548" xlink:href="#xdu0f"/></g><g><use fill="url(#xdu0h)" xlink:href="#xdu0g"/></g><g><use fill="#795548" xlink:href="#xdu0i"/></g><g><use fill="#795548" xlink:href="#xdu0j"/></g><g><use fill="#795548" xlink:href="#xdu0k"/></g><g><use fill="#795548" xlink:href="#xdu0l"/></g><g><use fill="#795548" xlink:href="#xdu0m"/></g><g><g><use fill="url(#xdu0o)" xlink:href="#xdu0n"/></g></g><g><use fill="#00897b" xlink:href="#xdu0p"/></g><g><use fill="url(#xdu0r)" xlink:href="#xdu0q"/></g><g><use fill="#795548" xlink:href="#xdu0s"/></g><g><use fill="#795548" xlink:href="#xdu0t"/></g><g><use fill="#795548" xlink:href="#xdu0u"/></g><g><g><use fill="url(#xdu0w)" xlink:href="#xdu0v"/></g></g><g><use fill="#009688" xlink:href="#xdu0x"/></g><g><use fill="#795548" xlink:href="#xdu0y"/></g><g><use fill="url(#xdu0A)" xlink:href="#xdu0z"/></g><g><use fill="#795548" xlink:href="#xdu0B"/></g><g><use fill="#795548" xlink:href="#xdu0C"/></g><g><use fill="#795548" xlink:href="#xdu0D"/></g><g><use fill="#795548" xlink:href="#xdu0E"/></g><g><use fill="#795548" xlink:href="#xdu0F"/></g><g><g><use fill="url(#xdu0H)" xlink:href="#xdu0G"/></g></g><g><use fill="#00897b" xlink:href="#xdu0I"/></g><g><use fill="url(#xdu0K)" xlink:href="#xdu0J"/></g><g><use fill="#795548" xlink:href="#xdu0L"/></g><g><use fill="#795548" xlink:href="#xdu0M"/></g><g><use fill="#795548" xlink:href="#xdu0N"/></g><g><use fill="url(#xdu0P)" xlink:href="#xdu0O"/></g><g><use fill="#fff" xlink:href="#xdu0Q"/></g><g><use fill="url(#xdu0S)" xlink:href="#xdu0R"/></g><g><use fill="#00aeef" xlink:href="#xdu0T"/></g><g opacity=".7"><use fill="#fff" xlink:href="#xdu0T"/></g><g><use fill="url(#xdu0V)" xlink:href="#xdu0U"/></g><g><use fill="#00aeef" xlink:href="#xdu0W"/></g><g opacity=".5"><use fill="#fff" xlink:href="#xdu0W"/></g><g><use fill="#fff" xlink:href="#xdu0X"/></g><g><use fill="url(#xdu0Z)" xlink:href="#xdu0Y"/></g><g><use fill="#00aeef" xlink:href="#xdu0aa"/></g><g opacity=".2"><use xlink:href="#xdu0aa"/></g><g><use fill="#f2f2f2" xlink:href="#xdu0ab"/></g><g><use fill="#00aeef" xlink:href="#xdu0ac"/></g><g><use fill="#00aeef" xlink:href="#xdu0ad"/></g><g><use fill="#0f0" xlink:href="#xdu0ae"/></g><g><use fill="#f2f2f2" xlink:href="#xdu0af"/></g><g><use fill="#f2f2f2" xlink:href="#xdu0ag"/></g><g opacity=".2"><use fill="#00aeef" xlink:href="#xdu0ah"/></g><g><g><use fill="url(#xdu0aj)" xlink:href="#xdu0ai"/></g></g><g><use fill="#009688" xlink:href="#xdu0ak"/></g><g><use fill="#795548" xlink:href="#xdu0al"/></g><g><use fill="url(#xdu0an)" xlink:href="#xdu0am"/></g><g><use fill="#795548" xlink:href="#xdu0ao"/></g><g><use fill="#795548" xlink:href="#xdu0ap"/></g><g><use fill="#795548" xlink:href="#xdu0aq"/></g><g><use fill="#795548" xlink:href="#xdu0ar"/></g><g><use fill="#795548" xlink:href="#xdu0as"/></g><g><g><use fill="url(#xdu0au)" xlink:href="#xdu0at"/></g></g><g><use fill="#009688" xlink:href="#xdu0av"/></g><g><use fill="#795548" xlink:href="#xdu0aw"/></g><g><use fill="url(#xdu0ay)" xlink:href="#xdu0ax"/></g><g><use fill="#795548" xlink:href="#xdu0az"/></g><g><use fill="#795548" xlink:href="#xdu0aA"/></g><g><use fill="#795548" xlink:href="#xdu0aB"/></g><g><use fill="#795548" xlink:href="#xdu0aC"/></g><g><use fill="#795548" xlink:href="#xdu0aD"/></g><g><g><use fill="url(#xdu0aF)" xlink:href="#xdu0aE"/></g></g><g><use fill="#00897b" xlink:href="#xdu0aG"/></g><g><use fill="url(#xdu0aI)" xlink:href="#xdu0aH"/></g><g><use fill="#795548" xlink:href="#xdu0aJ"/></g><g><use fill="#795548" xlink:href="#xdu0aK"/></g><g><use fill="#795548" xlink:href="#xdu0aL"/></g></g><g transform="translate(-54 -344)"><g><use fill="url(#xdu0aN)" xlink:href="#xdu0aM"/></g><g><use fill="#00aeef" xlink:href="#xdu0aO"/></g><g><use fill="#00aeef" xlink:href="#xdu0aP"/></g><g><g><use fill="url(#xdu0aR)" xlink:href="#xdu0aQ"/></g></g><g><use fill="#00897b" xlink:href="#xdu0aS"/></g><g><use fill="url(#xdu0aU)" xlink:href="#xdu0aT"/></g><g><use fill="#795548" xlink:href="#xdu0aV"/></g><g><use fill="#795548" xlink:href="#xdu0aW"/></g><g><use fill="#795548" xlink:href="#xdu0aX"/></g><g><g><use fill="url(#xdu0aZ)" xlink:href="#xdu0aY"/></g></g><g><use fill="#009688" xlink:href="#xdu0ba"/></g><g><use fill="#795548" xlink:href="#xdu0bb"/></g><g><use fill="url(#xdu0bd)" xlink:href="#xdu0bc"/></g><g><use fill="#795548" xlink:href="#xdu0be"/></g><g><use fill="#795548" xlink:href="#xdu0bf"/></g><g><use fill="#795548" xlink:href="#xdu0bg"/></g><g><use fill="#795548" xlink:href="#xdu0bh"/></g><g><use fill="#795548" xlink:href="#xdu0bi"/></g><g><use fill="#b0bec5" xlink:href="#xdu0bj"/></g><g><use fill="#00bcd4" xlink:href="#xdu0bk"/></g><g opacity=".3"><use xlink:href="#xdu0bk"/></g><g><use fill="#00bcd4" xlink:href="#xdu0bl"/></g><g opacity=".3"><use xlink:href="#xdu0bl"/></g><g><use fill="url(#xdu0bn)" xlink:href="#xdu0bm"/></g><g><use fill="url(#xdu0bp)" xlink:href="#xdu0bo"/></g><g><use fill="url(#xdu0br)" xlink:href="#xdu0bq"/></g><g><use fill="url(#xdu0bt)" xlink:href="#xdu0bs"/></g><g><use fill="#00bcd4" xlink:href="#xdu0bu"/></g><g><use fill="#00bcd4" xlink:href="#xdu0bv"/></g><g><use fill="#00bcd4" xlink:href="#xdu0bw"/></g><g><use fill="url(#xdu0by)" xlink:href="#xdu0bx"/></g><g><use fill="#00bcd4" xlink:href="#xdu0bz"/></g><g><use fill="#00bcd4" xlink:href="#xdu0bA"/></g><g><use fill="#00bcd4" xlink:href="#xdu0bB"/></g><g><g><use fill="url(#xdu0bD)" xlink:href="#xdu0bC"/></g></g><g opacity=".2"><use xlink:href="#xdu0bB"/></g><g><use fill="#00bcd4" xlink:href="#xdu0bE"/></g><g><use fill="#00bcd4" xlink:href="#xdu0bF"/></g><g opacity=".1"><use xlink:href="#xdu0bE"/></g><g><g><use fill="url(#xdu0bH)" xlink:href="#xdu0bG"/></g></g><g><g><use fill="url(#xdu0bJ)" xlink:href="#xdu0bI"/></g></g><g opacity=".1"><use xlink:href="#xdu0bF"/></g><g><g><g><use fill="url(#xdu0bL)" xlink:href="#xdu0bK"/></g></g><g><use fill="#00aeef" xlink:href="#xdu0bM"/></g><g><use fill="#fff" xlink:href="#xdu0bN"/></g><g><g><use fill="url(#xdu0bP)" xlink:href="#xdu0bO"/></g></g><g><use fill="#00838f" xlink:href="#xdu0bQ"/></g><g><use fill="#00aeef" xlink:href="#xdu0bR"/></g><g><use fill="#f3f9fe" xlink:href="#xdu0bS"/></g><g><use fill="#f3f9fe" xlink:href="#xdu0bT"/></g><g><use fill="#f3f9fe" xlink:href="#xdu0bU"/></g><g><use fill="#f3f9fe" xlink:href="#xdu0bV"/></g><g><use fill="#00aeef" xlink:href="#xdu0bW"/></g><g><use fill="#00aeef" xlink:href="#xdu0bX"/></g></g><g><use fill="url(#xdu0bZ)" xlink:href="#xdu0bY"/></g><g><use fill="url(#xdu0cb)" xlink:href="#xdu0ca"/></g><g><use fill="url(#xdu0cd)" xlink:href="#xdu0cc"/></g><g><use fill="#f6b9ad" xlink:href="#xdu0ce"/></g><g><use fill="#f6b9ad" xlink:href="#xdu0cf"/></g><g><use fill="#70b1e8" xlink:href="#xdu0cg"/></g><g/><g><use fill="#fff" fill-opacity="0" stroke="#f3f9fe" stroke-miterlimit="50" xlink:href="#xdu0ch"/></g><g><use fill="#00aeef" xlink:href="#xdu0ci"/></g><g><use fill="#00aeef" xlink:href="#xdu0cj"/></g><g><use fill="#00aeef" xlink:href="#xdu0ck"/></g><g><use fill="#f6b9ad" xlink:href="#xdu0cl"/></g><g><use fill="#00aeef" xlink:href="#xdu0cm"/></g><g><use fill="#f6b9ad" xlink:href="#xdu0cn"/></g><g><use fill="#00aeef" xlink:href="#xdu0co"/></g><g><use fill="#f6b9ad" xlink:href="#xdu0cp"/></g><g><use fill="#f6b9ad" xlink:href="#xdu0cq"/></g><g><use fill="#4a4a4a" xlink:href="#xdu0cr"/></g><g><use fill="#fff" xlink:href="#xdu0cs"/></g><g><use fill="url(#xdu0cu)" xlink:href="#xdu0ct"/></g><g><use fill="#00bcd4" xlink:href="#xdu0cv"/></g><g><g><use fill="url(#xdu0cx)" xlink:href="#xdu0cw"/></g></g><g><use fill="#00bcd4" xlink:href="#xdu0cy"/></g><g><g><use fill="url(#xdu0cA)" xlink:href="#xdu0cz"/></g></g><g><use fill="#00bcd4" xlink:href="#xdu0cB"/></g><g><g><g><g><use fill="url(#xdu0cD)" xlink:href="#xdu0cC"/></g></g><g><use fill="#ff9800" xlink:href="#xdu0cE"/></g><g><use fill="#ff9800" xlink:href="#xdu0cF"/></g><g><use fill="#ff9800" xlink:href="#xdu0cG"/></g><g><use fill="#ff9800" xlink:href="#xdu0cH"/></g></g><g><use fill="#fff" xlink:href="#xdu0cI"/></g></g><g><use fill="#00aeef" xlink:href="#xdu0cJ"/></g><g opacity=".6"><use xlink:href="#xdu0cJ"/></g><g><use fill="#00aeef" xlink:href="#xdu0cK"/></g><g><use fill="#00aeef" xlink:href="#xdu0cL"/></g><g><use fill="#00aeef" xlink:href="#xdu0cM"/></g><g opacity=".6"><use xlink:href="#xdu0cL"/></g><g opacity=".6"><use xlink:href="#xdu0cM"/></g><g><use fill="#00aeef" xlink:href="#xdu0cN"/></g><g><use fill="url(#xdu0cP)" xlink:href="#xdu0cO"/></g><g opacity=".6"><use xlink:href="#xdu0cK"/></g><g opacity=".6"><use xlink:href="#xdu0cN"/></g><g><use fill="#00aeef" xlink:href="#xdu0cQ"/></g><g><use fill="#00aeef" xlink:href="#xdu0cR"/></g><g><use fill="#00aeef" xlink:href="#xdu0cS"/></g><g><use fill="#70b1e8" xlink:href="#xdu0cT"/></g><g><use fill="#00aeef" xlink:href="#xdu0cU"/></g><g opacity=".4"><use fill="#fff" xlink:href="#xdu0cU"/></g><g><use fill="url(#xdu0cW)" xlink:href="#xdu0cV"/></g><g><use fill="#f6b9ad" xlink:href="#xdu0cX"/></g><g><use fill="#00aeef" xlink:href="#xdu0cY"/></g><g><use fill="#00aeef" xlink:href="#xdu0cZ"/></g><g><use fill="#00aeef" xlink:href="#xdu0da"/></g><g><use fill="#f3f9fe" xlink:href="#xdu0db"/></g><g><g><use fill="url(#xdu0dd)" xlink:href="#xdu0dc"/></g></g><g><use fill="#f44336" xlink:href="#xdu0de"/></g><g><use fill="#fff" fill-opacity="0" stroke="#f3f9fe" stroke-miterlimit="50" stroke-width="1.05" xlink:href="#xdu0df"/></g><g><g><use fill="url(#xdu0dh)" xlink:href="#xdu0dg"/></g></g><g><use fill="#00aeef" xlink:href="#xdu0di"/></g><g><use fill="#00aeef" xlink:href="#xdu0dj"/></g><g><use fill="url(#xdu0dl)" xlink:href="#xdu0dk"/></g><g opacity=".2"><use xlink:href="#xdu0dm"/></g><g><use fill="url(#xdu0do)" xlink:href="#xdu0dn"/></g><g><use fill="url(#xdu0dq)" xlink:href="#xdu0dp"/></g><g><use fill="url(#xdu0ds)" xlink:href="#xdu0dr"/></g><g><use fill="url(#xdu0du)" xlink:href="#xdu0dt"/></g><g><use fill="url(#xdu0dw)" xlink:href="#xdu0dv"/></g><g><use fill="url(#xdu0dy)" xlink:href="#xdu0dx"/></g><g><use fill="url(#xdu0dA)" xlink:href="#xdu0dz"/></g><g><use fill="url(#xdu0dC)" xlink:href="#xdu0dB"/></g><g><use fill="url(#xdu0dE)" xlink:href="#xdu0dD"/></g><g><use fill="url(#xdu0dG)" xlink:href="#xdu0dF"/></g><g><use fill="url(#xdu0dI)" xlink:href="#xdu0dH"/></g><g><use fill="#b0bec5" xlink:href="#xdu0dJ"/></g><g><use fill="#b0bec5" xlink:href="#xdu0dK"/></g><g><use fill="#b0bec5" xlink:href="#xdu0dL"/></g><g><use fill="#b0bec5" xlink:href="#xdu0dM"/></g><g><use fill="#b0bec5" xlink:href="#xdu0dN"/></g><g><use fill="#b0bec5" xlink:href="#xdu0dO"/></g><g><use fill="#b0bec5" xlink:href="#xdu0dP"/></g><g><use fill="#b0bec5" xlink:href="#xdu0dQ"/></g><g><use fill="#b0bec5" xlink:href="#xdu0dR"/></g><g><use fill="#b0bec5" xlink:href="#xdu0dS"/></g><g><use fill="#b0bec5" xlink:href="#xdu0dT"/></g><g><use fill="url(#xdu0dV)" xlink:href="#xdu0dU"/></g><g><use fill="url(#xdu0dX)" xlink:href="#xdu0dW"/></g><g><use fill="#f6b9ad" xlink:href="#xdu0dY"/></g><g><use fill="#f6b9ad" xlink:href="#xdu0dZ"/></g><g><use fill="#3d213c" xlink:href="#xdu0ea"/></g><g><use fill="#fff" xlink:href="#xdu0eb"/></g><g><use fill="#00aeef" xlink:href="#xdu0ec"/></g><g><use fill="#00aeef" xlink:href="#xdu0ed"/></g><g><use fill="#00aeef" xlink:href="#xdu0ee"/></g><g><use fill="#00aeef" xlink:href="#xdu0ef"/></g><g><use fill="#00aeef" xlink:href="#xdu0eg"/></g><g><use fill="#f6b9ad" xlink:href="#xdu0eh"/></g><g><use fill="#fff" fill-opacity="0" stroke="#f3f9fe" stroke-miterlimit="50" stroke-width=".5" xlink:href="#xdu0ei"/></g><g><use fill="#f6b9ad" xlink:href="#xdu0ej"/></g><g><use fill="url(#xdu0el)" xlink:href="#xdu0ek"/></g><g><use fill="#4dd0e1" xlink:href="#xdu0em"/></g><g><use fill="url(#xdu0eo)" xlink:href="#xdu0en"/></g><g><use fill="#4dd0e1" xlink:href="#xdu0ep"/></g><g><g><use fill="url(#xdu0er)" xlink:href="#xdu0eq"/></g></g><g><use fill="#ffeb3b" xlink:href="#xdu0es"/></g><g><use fill="url(#xdu0eu)" xlink:href="#xdu0et"/></g><g><use fill="#4dd0e1" xlink:href="#xdu0ev"/></g><g><use fill="#37474f" xlink:href="#xdu0ew"/></g><g><use fill="url(#xdu0ey)" xlink:href="#xdu0ex"/></g><g><use fill="#4dd0e1" xlink:href="#xdu0ez"/></g><g><g><use fill="url(#xdu0eB)" xlink:href="#xdu0eA"/></g></g><g><use fill="#4dd0e1" xlink:href="#xdu0eC"/></g><g><use fill="url(#xdu0eE)" xlink:href="#xdu0eD"/></g><g><use fill="#4dd0e1" xlink:href="#xdu0eF"/></g><g><use fill="url(#xdu0eH)" xlink:href="#xdu0eG"/></g><g><use fill="#4dd0e1" xlink:href="#xdu0eI"/></g><g><g><use fill="url(#xdu0eK)" xlink:href="#xdu0eJ"/></g></g><g><use fill="#ffeb3b" xlink:href="#xdu0eL"/></g><g><use fill="url(#xdu0eN)" xlink:href="#xdu0eM"/></g><g><use fill="#4dd0e1" xlink:href="#xdu0eO"/></g><g><use fill="#37474f" xlink:href="#xdu0eP"/></g><g><use fill="url(#xdu0eR)" xlink:href="#xdu0eQ"/></g><g><use fill="#4dd0e1" xlink:href="#xdu0eS"/></g><g><g><use fill="url(#xdu0eU)" xlink:href="#xdu0eT"/></g></g><g><use fill="#4dd0e1" xlink:href="#xdu0eV"/></g><g><use fill="#b0bec5" xlink:href="#xdu0eW"/></g><g><use fill="#b0bec5" xlink:href="#xdu0eX"/></g><g><use fill="#b0bec5" xlink:href="#xdu0eY"/></g><g><use fill="#b0bec5" xlink:href="#xdu0eZ"/></g><g><use fill="#b0bec5" xlink:href="#xdu0fa"/></g><g><use fill="#b0bec5" xlink:href="#xdu0fb"/></g><g><use fill="#b0bec5" xlink:href="#xdu0fc"/></g><g><use fill="#b0bec5" xlink:href="#xdu0fd"/></g></g><g transform="translate(-54 -344)"><g><use fill="#00b494" xlink:href="#xdu0fe"/></g><g opacity=".1"><g opacity=".1"><use fill="#414042" xlink:href="#xdu0ff"/></g></g><g><g><use fill="#00997c" xlink:href="#xdu0fg"/></g><g><use fill="#00997c" xlink:href="#xdu0fh"/></g><g><use fill="#00997c" xlink:href="#xdu0fi"/></g><g><use fill="#00997c" xlink:href="#xdu0fj"/></g><g><use fill="#00997c" xlink:href="#xdu0fk"/></g><g><use fill="#00997c" xlink:href="#xdu0fl"/></g><g><use fill="#00997c" xlink:href="#xdu0fm"/></g><g><use fill="#00997c" xlink:href="#xdu0fn"/></g><g><use fill="#00997c" xlink:href="#xdu0fo"/></g><g><use fill="#00997c" xlink:href="#xdu0fp"/></g><g><use fill="#00997c" xlink:href="#xdu0fq"/></g><g><use fill="#00997c" xlink:href="#xdu0fr"/></g><g><use fill="#00997c" xlink:href="#xdu0fs"/></g><g><use fill="#00997c" xlink:href="#xdu0ft"/></g><g><use fill="#00997c" xlink:href="#xdu0fu"/></g><g><use fill="#00997c" xlink:href="#xdu0fv"/></g><g><use fill="#00997c" xlink:href="#xdu0fw"/></g><g><use fill="#00997c" xlink:href="#xdu0fx"/></g><g><use fill="#00997c" xlink:href="#xdu0fy"/></g><g><use fill="#00997c" xlink:href="#xdu0fz"/></g><g><use fill="#00997c" xlink:href="#xdu0fA"/></g><g><use fill="#00997c" xlink:href="#xdu0fB"/></g><g><use fill="#00997c" xlink:href="#xdu0fC"/></g><g><use fill="#00997c" xlink:href="#xdu0fD"/></g><g><use fill="#00997c" xlink:href="#xdu0fE"/></g><g><use fill="#00997c" xlink:href="#xdu0fF"/></g><g><use fill="#00997c" xlink:href="#xdu0fG"/></g><g><use fill="#00997c" xlink:href="#xdu0fH"/></g><g><use fill="#00997c" xlink:href="#xdu0fI"/></g><g><use fill="#00997c" xlink:href="#xdu0fJ"/></g><g><use fill="#00997c" xlink:href="#xdu0fK"/></g><g><use fill="#00997c" xlink:href="#xdu0fL"/></g><g><use fill="#00997c" xlink:href="#xdu0fM"/></g><g><use fill="#00997c" xlink:href="#xdu0fN"/></g><g><use fill="#00997c" xlink:href="#xdu0fO"/></g><g><use fill="#00997c" xlink:href="#xdu0fP"/></g></g><g><use fill="#f0d355" xlink:href="#xdu0fQ"/></g><g><use fill="#ed5d51" xlink:href="#xdu0fR"/></g><g opacity=".1"><g opacity=".1"><use fill="#414042" xlink:href="#xdu0fS"/></g></g><g><use fill="#dac04e" xlink:href="#xdu0fT"/></g></g><g transform="translate(-54 -344)"><g><use fill="#ff7d5a" xlink:href="#xdu0fU"/></g><g><use fill="#8d8a94" xlink:href="#xdu0fV"/></g><g><use fill="#a7a5ac" xlink:href="#xdu0fW"/></g><g><use fill="#504b5a" xlink:href="#xdu0fX"/></g><g><use fill="#dcdbde" xlink:href="#xdu0fY"/></g><g><use fill="#504b5a" xlink:href="#xdu0fZ"/></g><g><use fill="#dcdbde" xlink:href="#xdu0ga"/></g><g><use fill="#b9b7bd" xlink:href="#xdu0gb"/></g><g><use fill="#504b5a" xlink:href="#xdu0gc"/></g><g><use fill="#dcdbde" xlink:href="#xdu0gd"/></g><g><use fill="#504b5a" xlink:href="#xdu0ge"/></g><g><use fill="#dcdbde" xlink:href="#xdu0gf"/></g><g><use fill="#ff9164" xlink:href="#xdu0gg"/></g><g><use fill="#ff7d5a" xlink:href="#xdu0gh"/></g><g><use fill="#504b5a" xlink:href="#xdu0gi"/></g><g><use fill="#dcdbde" xlink:href="#xdu0gj"/></g><g><g><use fill="#ff7d5a" xlink:href="#xdu0gk"/></g><g><use fill="#ff7d5a" xlink:href="#xdu0gl"/></g></g><g><use fill="#625d6b" xlink:href="#xdu0gm"/></g><g><use fill="#ffb47d" xlink:href="#xdu0gn"/></g><g><use fill="#ff9164" xlink:href="#xdu0go"/></g></g><g transform="translate(-54 -344)"><use fill="#fff" xlink:href="#xdu0a"/><use fill="#fff" fill-opacity="0" stroke="#00aeef" stroke-miterlimit="50" clip-path="url(&quot;#xdu0gp&quot;)" xlink:href="#xdu0a"/></g><g transform="translate(-54 -344)"/></g></svg>