<svg xmlns="http://www.w3.org/2000/svg" xmlns:xlink="http://www.w3.org/1999/xlink" width="27" height="16" viewBox="0 0 27 16"><defs><path id="dc58a" d="M85.85 706.6c.51 0 .93.42.93.93v3.53c0 .52-.42.93-.93.93h-3.27l-1.08 1.08a.37.37 0 0 1-.64-.27v-.8h-.18a.93.93 0 0 1-.92-.94v-3.53c0-.5.41-.92.92-.92zm0 4.91c.25 0 .45-.2.45-.45v-3.53c0-.24-.2-.44-.45-.44h-5.17c-.24 0-.45.2-.45.44v3.53c0 .25.2.45.45.45h.2c.25 0 .46.21.46.47v.58l.9-.91c.1-.09.21-.14.33-.14z"/><path id="dc58b" d="M83.52 710.3a.3.3 0 0 0-.22-.1.31.31 0 0 0-.23.09.3.3 0 0 0-.1.22c0 .09.04.16.1.22.06.07.14.1.23.1a.3.3 0 0 0 .22-.1.3.3 0 0 0 .1-.22.3.3 0 0 0-.1-.22z"/><path id="dc58c" d="M83.99 708a.99.99 0 0 0-.64-.2.9.9 0 0 0-.6.18c-.13.12-.2.24-.2.37 0 .08.02.13.07.17.05.04.1.07.17.07.05 0 .09-.02.12-.05a.37.37 0 0 0 .08-.1.26.26 0 0 1 .12-.1.5.5 0 0 1 .23-.05c.1 0 .2.03.26.07.07.05.1.12.1.2a.3.3 0 0 1-.04.16.58.58 0 0 1-.08.11 1.6 1.6 0 0 1-.13.11l-.1.09a.77.77 0 0 0-.28.61c0 .1.01.18.05.22.03.03.09.05.17.05.16 0 .24-.05.24-.17l.01-.2.07-.14a.68.68 0 0 1 .16-.17c.3-.24.46-.49.46-.75a.6.6 0 0 0-.24-.49z"/><path id="dc58d" d="M79.8 718.5c1.03.2 1.75.98 1.75 1.88v1.2c0 .12-.11.23-.24.23h-9.5a.24.24 0 0 1-.25-.24v-1.2c0-.9.72-1.66 1.75-1.86l1.1-.22a.96.96 0 0 0 .39-.16c.17-.13.27-.3.27-.5v-.4a2.5 2.5 0 0 1-.97-1.42h-.31a.65.65 0 0 1-.65-.65v-1.22c0-.26.16-.5.4-.6a2.88 2.88 0 0 1 .43-1.62 3.05 3.05 0 0 1 2.66-1.54 2.9 2.9 0 0 1 1.89.88c.5.48.86 1.15 1.09 2a.24.24 0 0 1-.14.28c.24.09.42.33.42.6v1.22c0 .29-.2.53-.45.62a1 1 0 0 1-.98.97c-.13.15-.27.3-.43.42v.46a.63.63 0 0 0 .3.51c.1.07.23.12.36.15l1.11.22zm-.84-2.69h-.04l-.08.28a.52.52 0 0 0 .12-.28zm.45-1.87c0-.1-.08-.17-.17-.17H79v1.56h.24c.1 0 .17-.07.17-.17zm-4.94-2.13l.76.82c.65.52 1.42.8 2.21.8.32 0 .93-.1 1.19-.27a.24.24 0 0 1 .36.13h.23a.24.24 0 0 1-.07-.11 3.8 3.8 0 0 0-.97-1.78 2.44 2.44 0 0 0-1.57-.75 2.61 2.61 0 0 0-2.14 1.16zm-.45 1.96h-.23c-.1 0-.17.08-.17.17v1.22c0 .1.07.17.17.17h.23zm.29-.7c.07-.03.22-.12.4-.26a4.88 4.88 0 0 1-.5-.52 2.4 2.4 0 0 0-.2.92 2.44 2.44 0 0 0 .3-.13zm.2 2.13a2.01 2.01 0 0 0 3.28 1.55h-1.05a.24.24 0 0 1 0-.48h1.47a2 2 0 0 0 .31-1.07v-1.47c-.36.12-.81.18-1.08.18-.84 0-1.66-.28-2.36-.79-.24.2-.45.33-.55.38l-.03.02v1.68zm6.56 6.13v-.95c0-.67-.56-1.25-1.36-1.4l-1.11-.22a1.48 1.48 0 0 1-.39-.14 2.72 2.72 0 0 1-1.99.55.24.24 0 1 1 .06-.48 2.28 2.28 0 0 0 1.54-.37c-.17-.2-.26-.44-.26-.7v-.16a2.47 2.47 0 0 1-2 .04v.13c0 .25-.1.5-.27.69l.28.16a.24.24 0 0 1-.21.43 2.73 2.73 0 0 1-.46-.29c-.12.07-.25.11-.4.14l-1.1.22c-.8.15-1.36.73-1.36 1.4v.95h1.32v-.4a.24.24 0 1 1 .48 0v.4h5.43v-.4a.24.24 0 1 1 .48 0v.4z"/><path id="dc58e" d="M76.51 716.25c.3 0 .59-.11.8-.33a.22.22 0 1 0-.3-.32.7.7 0 0 1-.98 0 .22.22 0 1 0-.32.32c.22.22.51.33.8.33z"/><path id="dc58f" d="M75.4 714.24a.22.22 0 1 1 .44 0 .22.22 0 0 1-.44 0z"/><path id="dc58g" d="M77.1 714.24a.22.22 0 1 1 .44 0 .22.22 0 0 1-.45 0z"/><path id="dc58h" d="M67.09 713.34a.23.23 0 0 0-.33 0 1.13 1.13 0 0 1-1.6 0 .23.23 0 0 0-.32.33 1.58 1.58 0 0 0 2.25 0 .23.23 0 0 0 0-.33z"/><path id="dc58i" d="M69.76 717.4a2.52 2.52 0 0 1 1.95 2.47v1.63c0 .12-.1.23-.23.23H60.61a.23.23 0 0 1-.24-.23v-1.63c0-1.19.8-2.2 1.96-2.47l1.27-.3c.46-.1.8-.52.8-1v-.42a3.32 3.32 0 0 1-1.64-2.15h-.5a.8.8 0 0 1-.8-.8v-1.1a2.98 2.98 0 0 1 2.9-5.22 4 4 0 0 1 1.79-.4c.9.04 1.75.44 2.51 1.18a5.74 5.74 0 0 1 1.47 2.68.23.23 0 0 1-.45.12 5.29 5.29 0 0 0-1.34-2.47 3.43 3.43 0 0 0-2.22-1.05s-1.13-.05-2.15.72a.23.23 0 0 1-.28-.37l.17-.12a2.53 2.53 0 0 0-3.4 2.37c0 .8.38 1.54 1 2a.8.8 0 0 1 .55-.76 3.84 3.84 0 0 1 .58-2.24c.14-.24.3-.46.47-.66a.23.23 0 1 1 .35.3l-.33.45 1.1 1.18c.9.73 1.96 1.12 3.07 1.12.45 0 1.3-.13 1.68-.38a.23.23 0 0 1 .36.2h.42c.44 0 .8.35.8.79v1.66a.8.8 0 0 1-.61.77v.03c0 .7-.57 1.28-1.28 1.28h-.02c-.25.32-.55.6-.9.8v.5c0 .47.32.88.79 1l1.27.29zm-.47-4.34h.42c.18 0 .33-.15.33-.33v-1.66a.33.33 0 0 0-.33-.33h-.42zm-.35 1.22c.29-.13.5-.42.5-.75h-.23c-.06.26-.15.51-.27.75zm-6.26-3.54h-.42a.33.33 0 0 0-.33.33v1.66c0 .18.15.33.33.33h.42zm.19-.7a3.4 3.4 0 0 0 .79-.52c-.3-.26-.59-.57-.85-.9a3.37 3.37 0 0 0-.34 1.58 3.48 3.48 0 0 0 .4-.16zm.27 2.75a2.85 2.85 0 0 0 4.84 2.02H66.3a.23.23 0 1 1 0-.47h2.06c.3-.45.47-.98.47-1.55v-2.15c-.5.2-1.18.29-1.58.29-1.15 0-2.27-.4-3.22-1.11a4.34 4.34 0 0 1-.89.6v2.37zm8.11 7.08c0-.97-.66-1.8-1.6-2.02l-.23-.05a3.87 3.87 0 0 1-5.2 1.5.23.23 0 0 1 .21-.4 3.42 3.42 0 0 0 4.51-1.21l-.56-.13a1.49 1.49 0 0 1-1.15-1.46v-.25a3.29 3.29 0 0 1-2.37.04v.21c0 .7-.48 1.3-1.16 1.46l-.55.13c.15.24.33.46.54.66a.23.23 0 0 1-.32.34c-.28-.27-.51-.56-.7-.9l-.24.06a2.06 2.06 0 0 0-1.6 2.02v1.4h1.59v-.53a.23.23 0 1 1 .46 0v.52h6.33v-.52a.23.23 0 1 1 .46 0v.52h1.58z"/><path id="dc58j" d="M64.54 711.47a.23.23 0 1 1 .46 0 .23.23 0 0 1-.46 0z"/><path id="dc58k" d="M66.85 711.47a.23.23 0 1 1 .46 0 .23.23 0 0 1-.46 0z"/></defs><g><g transform="translate(-60 -706)"><g><g><g><g><use fill="#707070" xlink:href="#dc58a"/></g></g></g><g><g><g><use fill="#707070" xlink:href="#dc58b"/></g></g></g><g><g><g><use fill="#707070" xlink:href="#dc58c"/></g></g></g><g><g><g><g><use fill="#707070" xlink:href="#dc58d"/></g><g><use fill="#707070" xlink:href="#dc58e"/></g></g></g></g><g><g><g><use fill="#707070" xlink:href="#dc58f"/></g></g></g><g><g><g><use fill="#707070" xlink:href="#dc58g"/></g></g></g></g><g><g><g><g><use fill="#707070" xlink:href="#dc58h"/></g></g></g><g><g><g><use fill="#707070" xlink:href="#dc58i"/></g></g></g><g><g><g><use fill="#707070" xlink:href="#dc58j"/></g></g></g><g><g><g><use fill="#707070" xlink:href="#dc58k"/></g></g></g></g></g></g></svg>