<svg xmlns="http://www.w3.org/2000/svg" xmlns:xlink="http://www.w3.org/1999/xlink" width="176" height="104" viewBox="0 0 176 104"><defs><path id="6s4ya" d="M1165.91 2607a6.1 6.1 0 0 1 6.09 6.09v23.2a6.1 6.1 0 0 1-6.09 6.08h-21.49l-7.08 7.09a2.46 2.46 0 0 1-4.22-1.75v-5.34h-1.17a6.1 6.1 0 0 1-6.09-6.08v-23.2a6.1 6.1 0 0 1 6.09-6.09h33.96zm0 32.23a2.95 2.95 0 0 0 2.95-2.94v-23.2a2.95 2.95 0 0 0-2.95-2.95h-33.97a2.95 2.95 0 0 0-2.94 2.95v23.2a2.95 2.95 0 0 0 2.94 2.94h1.28a3.04 3.04 0 0 1 3.04 3.04v3.82l5.97-5.97a3.02 3.02 0 0 1 2.15-.89h21.53z"/><path id="6s4yb" d="M1150.6 2631.2c-.41-.41-.9-.62-1.48-.62-.57 0-1.07.2-1.48.6-.42.41-.63.9-.63 1.48a2 2 0 0 0 .63 1.46c.41.41.9.62 1.48.62s1.07-.2 1.47-.62c.4-.42.61-.9.61-1.46 0-.56-.2-1.04-.6-1.46z"/><path id="6s4yc" d="M1153.66 2616.1a6.48 6.48 0 0 0-4.16-1.27c-1.67 0-2.98.39-3.92 1.16-.93.78-1.4 1.6-1.4 2.46 0 .49.16.87.5 1.14.33.27.7.4 1.11.4.33 0 .6-.1.81-.3.22-.2.39-.42.51-.66.13-.24.39-.46.78-.66.4-.2.9-.3 1.51-.3.72 0 1.3.16 1.75.47.45.31.67.76.67 1.34 0 .34-.1.67-.3 1-.2.33-.37.57-.53.73-.17.16-.45.4-.87.72-.41.32-.65.5-.7.56a5.06 5.06 0 0 0-1.81 4.04c0 .7.1 1.17.32 1.41.22.25.6.38 1.16.38 1.07 0 1.6-.37 1.6-1.11 0-.58.02-1 .07-1.28.04-.28.18-.6.4-.98.23-.37.57-.74 1.04-1.12 2.04-1.56 3.05-3.21 3.05-4.94 0-1.28-.53-2.34-1.59-3.19z"/><path id="6s4yd" d="M1126.15 2685.2c6.75 1.33 11.47 6.39 11.47 12.31v7.84c0 .86-.7 1.57-1.57 1.57h-62.48c-.87 0-1.57-.7-1.57-1.57v-7.84c0-5.92 4.72-10.98 11.47-12.3l7.3-1.43a6.33 6.33 0 0 0 2.49-1.06c1.13-.83 1.82-2.01 1.82-3.3v-2.6a16.4 16.4 0 0 1-6.4-9.33h-2.06a4.27 4.27 0 0 1-4.27-4.27v-8.01a4.27 4.27 0 0 1 2.6-3.93 18.92 18.92 0 0 1 2.85-10.68l.01-.02.01-.01a21.4 21.4 0 0 1 4.49-5.41 20.07 20.07 0 0 1 13.01-4.75c4.46.23 8.63 2.2 12.39 5.83 3.26 3.16 5.67 7.57 7.17 13.11.21.78-.2 1.58-.94 1.87a4.27 4.27 0 0 1 2.77 3.99v8.01a4.27 4.27 0 0 1-2.92 4.05 6.6 6.6 0 0 1-6.46 6.36 16.49 16.49 0 0 1-2.8 2.76v3.03a4.12 4.12 0 0 0 1.99 3.4c.66.45 1.45.78 2.34.96l7.29 1.42zm-6.35-15.9c.44-.5.73-1.12.82-1.81h-.24c-.16.62-.35 1.22-.58 1.82zm3.76-14.09c0-.62-.5-1.13-1.12-1.13h-1.56v10.27h1.56c.62 0 1.12-.5 1.12-1.13zm-29.22-17.66c-1.18 1-2.26 2.23-3.21 3.66l4.98 5.38a23.2 23.2 0 0 0 14.52 5.27c2.13 0 6.14-.68 7.82-1.78l.01-.01a1.56 1.56 0 0 1 2.35.87h1.52c-.23-.2-.4-.46-.48-.77-1.35-4.99-3.48-8.91-6.33-11.67-3.2-3.1-6.68-4.76-10.36-4.95-.05 0-5.87-.21-10.82 4zm-6.16 16.53h-1.56c-.63 0-1.13.51-1.13 1.13v8.01c0 .62.5 1.13 1.13 1.13h1.56zm1.87-4.55a17.5 17.5 0 0 0 2.6-1.76 32.08 32.08 0 0 1-3.26-3.45 15.75 15.75 0 0 0-1.3 6.1l.74-.3a15.81 15.81 0 0 0 1.21-.59zm1.27 13.95a13.23 13.23 0 0 0 21.64 10.16h-6.9a1.57 1.57 0 1 1 0-3.14h9.65a13.13 13.13 0 0 0 2.03-7.02v-9.66c-2.4.8-5.35 1.18-7.11 1.18-5.55 0-10.9-1.83-15.5-5.2a21.2 21.2 0 0 1-3.6 2.5l-.21.1v11.08zm43.16 34.03c0-4.4-3.67-8.2-8.93-9.22l-7.3-1.43a9.7 9.7 0 0 1-2.56-.88 17.9 17.9 0 0 1-13.07 3.55 1.57 1.57 0 1 1 .38-3.12 14.77 14.77 0 0 0 10.11-2.45 6.97 6.97 0 0 1-1.71-4.54v-1.11a16.25 16.25 0 0 1-13.18.25v.86c0 1.7-.63 3.27-1.72 4.55.59.4 1.2.75 1.83 1.06a1.57 1.57 0 0 1-1.38 2.82 17.95 17.95 0 0 1-3.03-1.87c-.77.4-1.63.7-2.56.88l-7.29 1.43c-5.26 1.03-8.93 4.82-8.93 9.22v6.27h8.7v-2.67a1.57 1.57 0 1 1 3.14 0v2.67h35.67v-2.67a1.57 1.57 0 1 1 3.14 0v2.67h8.69z"/><path id="6s4ye" d="M1104.55 2670.35c1.9 0 3.82-.72 5.28-2.18a1.46 1.46 0 1 0-2.08-2.07 4.54 4.54 0 0 1-6.41 0 1.46 1.46 0 0 0-2.07 2.07 7.44 7.44 0 0 0 5.28 2.18z"/><path id="6s4yf" d="M1097.2 2657.16a1.46 1.46 0 1 1 2.93 0 1.46 1.46 0 0 1-2.93 0z"/><path id="6s4yg" d="M1108.34 2657.16a1.46 1.46 0 1 1 2.93 0 1.46 1.46 0 0 1-2.93 0z"/><path id="6s4yh" d="M1042.6 2651.24c-.6-.59-1.55-.59-2.14 0a7.4 7.4 0 0 1-5.27 2.18 7.4 7.4 0 0 1-5.27-2.18 1.51 1.51 0 1 0-2.14 2.14 10.4 10.4 0 0 0 7.4 3.07c2.8 0 5.44-1.09 7.42-3.07.59-.59.59-1.55 0-2.14z"/><path id="6s4yi" d="M1060.15 2677.93a16.58 16.58 0 0 1 12.85 16.2v10.72c0 .85-.68 1.53-1.53 1.53h-71.49c-.84 0-1.53-.68-1.53-1.53v-10.71c0-7.77 5.29-14.44 12.86-16.2l8.34-1.96a6.73 6.73 0 0 0 5.21-6.58v-2.76a21.82 21.82 0 0 1-10.71-14.17h-3.3a5.22 5.22 0 0 1-5.22-5.22v-7.2a19.6 19.6 0 0 1-9.63-16.9 19.66 19.66 0 0 1 28.64-17.45 26.35 26.35 0 0 1 11.76-2.69c5.94.3 11.5 2.93 16.53 7.8 4.38 4.23 7.62 10.17 9.64 17.64a1.53 1.53 0 0 1-2.95.8c-1.87-6.93-4.84-12.4-8.81-16.25-4.49-4.34-9.39-6.67-14.57-6.94-.07 0-7.46-.29-14.17 4.76a1.53 1.53 0 0 1-1.84-2.44l1.13-.8a16.6 16.6 0 0 0-15.72 28.8v-.08c0-2.3 1.5-4.27 3.58-4.95a25.26 25.26 0 0 1 3.79-14.72c.94-1.6 2-3.07 3.12-4.38a1.53 1.53 0 1 1 2.31 1.99c-.77.9-1.52 1.9-2.2 2.98l7.18 7.75c5.95 4.76 12.97 7.36 20.26 7.36 2.93 0 8.54-.9 11.03-2.53l.04-.02a1.53 1.53 0 0 1 2.33 1.3h2.75a5.22 5.22 0 0 1 5.22 5.22v10.95c0 2.46-1.7 4.52-4 5.07l.01.16a8.4 8.4 0 0 1-8.4 8.4h-.12a21.9 21.9 0 0 1-5.95 5.32v3.2a6.73 6.73 0 0 0 5.21 6.58l8.35 1.95zm-3.07-28.52h2.75c1.2 0 2.16-.97 2.16-2.16v-10.95c0-1.2-.97-2.16-2.16-2.16h-2.75zm-.55 3.06c-.4 1.73-1 3.38-1.79 4.93a5.35 5.35 0 0 0 3.27-4.92v-.01h-1.48zm-42.93-18.33h-2.75c-1.2 0-2.16.97-2.16 2.16v10.95c0 1.2.97 2.16 2.16 2.16h2.75zm2.23-5.06c.71-.39 2.36-1.35 4.23-2.94a43.32 43.32 0 0 1-5.56-5.91 22.16 22.16 0 0 0-2.26 10.39c.66-.22 1.31-.47 1.95-.75.18-.14.4-.25.65-.3.33-.15.67-.32 1-.5zm.83 18.52a18.7 18.7 0 0 0 18.68 18.68c5.12 0 9.76-2.06 13.13-5.4h-11.04a1.53 1.53 0 1 1 0-3.06h13.54a18.58 18.58 0 0 0 3.05-10.22v-14.08a33.03 33.03 0 0 1-10.34 1.87 35.2 35.2 0 0 1-21.21-7.29 28.5 28.5 0 0 1-5.81 3.99zm53.28 46.54c0-6.35-4.31-11.79-10.49-13.23l-1.55-.37a25.55 25.55 0 0 1-34.2 9.88 1.53 1.53 0 1 1 1.44-2.69 22.49 22.49 0 0 0 29.64-7.92l-3.67-.86a9.77 9.77 0 0 1-7.58-9.55v-1.66a21.62 21.62 0 0 1-15.61.3v1.36c0 4.58-3.12 8.51-7.58 9.55l-3.67.86c1 1.6 2.2 3.06 3.56 4.37a1.53 1.53 0 0 1-2.1 2.2 25.56 25.56 0 0 1-4.58-5.84l-1.55.37a13.54 13.54 0 0 0-10.5 13.23v9.18h10.39v-3.46a1.53 1.53 0 1 1 3.05 0v3.46h41.57v-3.46a1.53 1.53 0 1 1 3.05 0v3.46h10.38z"/><path id="6s4yj" d="M1025.81 2638.96a1.51 1.51 0 1 1 3.03 0 1.51 1.51 0 0 1-3.03 0z"/><path id="6s4yk" d="M1041.04 2638.96a1.51 1.51 0 1 1 3.03 0 1.51 1.51 0 0 1-3.03 0z"/></defs><g><g transform="translate(-996 -2603)"><g><g><g><g><use fill="#0093ff" xlink:href="#6s4ya"/></g></g></g><g><g><g><use fill="#0093ff" xlink:href="#6s4yb"/></g></g></g><g><g><g><use fill="#0093ff" xlink:href="#6s4yc"/></g></g></g><g><g><g><g><use fill="#00aeef" xlink:href="#6s4yd"/></g><g><use fill="#0093ff" xlink:href="#6s4ye"/></g></g></g></g><g><g><g><use fill="#0093ff" xlink:href="#6s4yf"/></g></g></g><g><g><g><use fill="#0093ff" xlink:href="#6s4yg"/></g></g></g></g><g><g><g><g><use fill="#0093ff" xlink:href="#6s4yh"/></g></g></g><g><g><g><use fill="#00aeef" xlink:href="#6s4yi"/></g></g></g><g><g><g><use fill="#0093ff" xlink:href="#6s4yj"/></g></g></g><g><g><g><use fill="#0093ff" xlink:href="#6s4yk"/></g></g></g></g></g></g></svg>