<svg xmlns="http://www.w3.org/2000/svg" xmlns:xlink="http://www.w3.org/1999/xlink" width="20" height="20" viewBox="0 0 20 20"><defs><path id="9tk9a" d="M82.47 457.86c.7.71.7 1.86 0 2.57l-9.74 9.74h4.44a.42.42 0 0 1 0 .83h-8.34a.42.42 0 0 1 0-.83h.73l-5.25-5.25-.78-.78a1.8 1.8 0 0 1-.53-1.29c0-.48.19-.94.53-1.28l10.04-10.04a1.8 1.8 0 0 1 2.57 0l6.33 6.33zm-.59.6l-3.49-3.5-9.64 9.64a.42.42 0 0 1-.59 0 .42.42 0 0 1 0-.59l9.64-9.64-2.25-2.25a.97.97 0 0 0-.7-.29c-.26 0-.5.1-.7.29l-10.03 10.04a.97.97 0 0 0-.29.7c0 .26.1.5.29.69l.49.48 9.64-9.64a.42.42 0 1 1 .59.6l-9.64 9.63 5.25 5.26c.19.18.43.29.7.29.26 0 .5-.1.7-.29l10.03-10.04c.38-.38.38-1 0-1.39z"/><path id="9tk9b" d="M73.27 463.03a.42.42 0 0 0-.6 0l-3.27 3.28a.42.42 0 0 0 .59.6l3.28-3.29a.42.42 0 0 0 0-.59z"/><path id="9tk9c" d="M71.92 466.15l-1.34 1.34a.42.42 0 0 0 .59.59l1.34-1.35a.42.42 0 0 0-.59-.58z"/><path id="9tk9d" d="M73.16 464.9l-.18.19a.42.42 0 0 0 .6.58l.17-.17a.42.42 0 0 0-.6-.6z"/><path id="9tk9e" d="M80.08 458.58c.16.16.16.42 0 .59l-1.77 1.76a.42.42 0 0 1-.59 0l-1.18-1.18a.42.42 0 0 1 0-.58l1.77-1.77a.42.42 0 0 1 .6 0zm-.88.3l-.6-.6-1.17 1.18.59.59z"/><path id="9tk9f" d="M75.51 454.13c.11 0 .22-.04.3-.12l.17-.18a.42.42 0 0 0-.58-.59l-.18.18a.42.42 0 0 0 .3.71z"/><path id="9tk9g" d="M67.19 464.99l-.18.17a.42.42 0 0 0 .6.6l.17-.18a.42.42 0 0 0-.6-.6z"/></defs><g><g transform="translate(-63 -451)"><g><g><g><use fill="#707070" xlink:href="#9tk9a"/></g><g><use fill="#707070" xlink:href="#9tk9b"/></g><g><use fill="#707070" xlink:href="#9tk9c"/></g><g><use fill="#707070" xlink:href="#9tk9d"/></g><g><use fill="#707070" xlink:href="#9tk9e"/></g><g><use fill="#707070" xlink:href="#9tk9f"/></g><g><use fill="#707070" xlink:href="#9tk9g"/></g></g></g></g></g></svg>