<svg xmlns="http://www.w3.org/2000/svg" xmlns:xlink="http://www.w3.org/1999/xlink" width="23" height="18" viewBox="0 0 23 18"><defs><path id="ps7fa" d="M65.34 549.69a1.02 1.02 0 1 1-.98-1.02 1 1 0 0 1 .98 1.02zm-.98.28c.16 0 .28-.13.28-.28a.29.29 0 1 0-.28.28z"/><path id="ps7fb" d="M60.88 539.48a.34.34 0 0 0-.5 0 .37.37 0 0 0 0 .52.34.34 0 0 0 .5 0 .37.37 0 0 0 0-.52z"/><path id="ps7fc" d="M60.88 546.2a.34.34 0 0 0-.5 0 .37.37 0 0 0 0 .5.34.34 0 0 0 .5 0 .37.37 0 0 0 0-.5z"/><path id="ps7fd" d="M72.9 539.48a.34.34 0 0 0-.5 0 .37.37 0 0 0 0 .52.34.34 0 0 0 .5 0 .37.37 0 0 0 0-.52z"/><path id="ps7fe" d="M72.9 546.2a.34.34 0 0 0-.5 0 .37.37 0 0 0 0 .5.34.34 0 0 0 .5 0 .37.37 0 0 0 0-.5z"/><path id="ps7ff" d="M69.43 543.81c.2 0 .36-.17.35-.36v-2.75a.6.6 0 0 0-.58-.6h-4.81a.6.6 0 0 0-.59.6v4.97c0 .33.26.6.59.6h4.8a.6.6 0 0 0 .6-.6v-.82a.35.35 0 1 0-.7 0v.7H64.5v-4.73h4.58v2.63c0 .2.16.36.35.36z"/><path id="ps7fg" d="M66.66 542.02l-.66-.69a.34.34 0 0 0-.5 0l-.66.7a.37.37 0 0 0 0 .5.34.34 0 0 0 .5 0l.06-.06v1.17a.35.35 0 1 0 .7 0v-1.17l.06.07a.34.34 0 0 0 .5 0 .37.37 0 0 0 0-.52z"/><path id="ps7fh" d="M68.75 542.02l-.66-.69a.34.34 0 0 0-.5 0l-.67.7a.37.37 0 0 0 0 .5.34.34 0 0 0 .5 0l.06-.06v1.17a.35.35 0 1 0 .7 0v-1.17l.07.07a.34.34 0 0 0 .5 0 .37.37 0 0 0 0-.52z"/><path id="ps7fi" d="M68.4 544.32h-3.21a.36.36 0 1 0 0 .73h3.2a.36.36 0 1 0 0-.73z"/><path id="ps7fj" d="M81.64 553H65.9a.36.36 0 0 0 0 .72h15.74a.36.36 0 0 0 0-.73z"/><path id="ps7fk" d="M64.36 553h-5a.36.36 0 0 0 0 .72h5a.36.36 0 1 0 0-.73z"/><path id="ps7fl" d="M81.64 554.67h-4.1a.36.36 0 1 0 0 .73h4.1a.36.36 0 1 0 0-.73z"/><path id="ps7fm" d="M75.9 554.67H59.35a.36.36 0 1 0 0 .73H75.9a.36.36 0 0 0 0-.73z"/><path id="ps7fn" d="M79.3 543.7l-.85-1.15a.66.66 0 0 0-.5-.26h-2.28a.5.5 0 0 0-.49.5v2.19c0 .27.22.5.5.5h1.1a.36.36 0 1 0 0-.72h-.9V543h2.03l.82 1.12.02.06v.57h-.47a.36.36 0 1 0 0 .72h.68a.5.5 0 0 0 .5-.5v-.8a.88.88 0 0 0-.16-.48z"/><path id="ps7fo" d="M76.64 545.88h-1.1a.36.36 0 0 0 0 .73h1.1a.36.36 0 0 0 0-.73z"/><path id="ps7fp" d="M78.2 549.69a1.02 1.02 0 1 1-.98-1.02 1 1 0 0 1 .98 1.02zm-.98.28c.16 0 .28-.13.28-.28a.29.29 0 1 0-.28.28z"/><path id="ps7fq" d="M81.99 548.65a.6.6 0 0 1-.59.6h-1.94a2.44 2.44 0 0 1-.6 2.07h2.78a.36.36 0 0 1 0 .73H59.36a.36.36 0 1 1 0-.73h3.36a2.4 2.4 0 0 1-.6-2.07H59.6a.6.6 0 0 1-.59-.6v-.91c0-.22.11-.42.3-.53V539c-.01-.33.25-.6.58-.61h3.9a.36.36 0 0 1 0 .73h-3.78v1.65h.63a.36.36 0 0 1 0 .73H60v.6h.63a.36.36 0 1 1 0 .72H60v.6h.63a.36.36 0 0 1 0 .73H60v.6h.63a.36.36 0 0 1 0 .72H60v1.67h13.33v-8.02H65.2a.36.36 0 1 1 0-.73h8.26c.33 0 .59.28.58.6v8.15h.18v-5.24c0-.32.25-.6.58-.6h3.54c.25 0 .5.13.65.34l2.47 3.38c.13.2.2.42.2.65v1.64c.2.1.33.31.33.54v.8zm-20.6-.8h-1.67v.68h1.68zm.99.68c.14-.26.32-.48.54-.67h-.82v.67zm1.98 2.8a1.63 1.63 0 0 0 0-3.27 1.63 1.63 0 0 0 0 3.26zm11.22 0a2.4 2.4 0 0 1-.6-2.07h-5.46a.36.36 0 0 1 0-.73h4.7v-.67H65.8c.22.19.4.41.54.67h1.77a.36.36 0 0 1 0 .73h-1.5a2.44 2.44 0 0 1-.6 2.06zm1.64-.01a1.6 1.6 0 0 0 1.58-1.63 1.63 1.63 0 1 0-1.58 1.63zm2.8-5.17c-.01-.33.25-.6.58-.6h.34a.4.4 0 0 0-.05-.1l-2.46-3.39a.21.21 0 0 0-.1-.04h-3.41v6.5h.32a2.24 2.24 0 0 1 3.96 0h.38v-.68c0-.27.18-.51.43-.59v-1.1zm.7.12v.96h.24v-.96zm.56 1.69h-1v.57h1z"/></defs><g><g transform="translate(-59 -538)"><g><g><g><use fill="#00aeef" xlink:href="#ps7fa"/></g></g></g><g><g><g><use fill="#00aeef" xlink:href="#ps7fb"/></g></g></g><g><g><g><use fill="#00aeef" xlink:href="#ps7fc"/></g></g></g><g><g><g><use fill="#00aeef" xlink:href="#ps7fd"/></g></g></g><g><g><g><use fill="#00aeef" xlink:href="#ps7fe"/></g></g></g><g><g><g><use fill="#00aeef" xlink:href="#ps7ff"/></g></g></g><g><g><g><use fill="#00aeef" xlink:href="#ps7fg"/></g></g></g><g><g><g><use fill="#00aeef" xlink:href="#ps7fh"/></g></g></g><g><g><g><use fill="#00aeef" xlink:href="#ps7fi"/></g></g></g><g><g><g><use fill="#00aeef" xlink:href="#ps7fj"/></g></g></g><g><g><g><use fill="#00aeef" xlink:href="#ps7fk"/></g></g></g><g><g><g><use fill="#00aeef" xlink:href="#ps7fl"/></g></g></g><g><g><g><use fill="#00aeef" xlink:href="#ps7fm"/></g></g></g><g><g><g><use fill="#00aeef" xlink:href="#ps7fn"/></g></g></g><g><g><g><use fill="#00aeef" xlink:href="#ps7fo"/></g></g></g><g><g><g><use fill="#00aeef" xlink:href="#ps7fp"/></g></g></g><g><g><g><use fill="#00aeef" xlink:href="#ps7fq"/></g></g></g></g></g></svg>