<svg xmlns="http://www.w3.org/2000/svg" xmlns:xlink="http://www.w3.org/1999/xlink" width="21" height="13" viewBox="0 0 21 13"><defs><path id="o85ja" d="M891.66 204.32c.56.26.93.82.93 1.44v3.94a.3.3 0 0 1-.6 0v-3.94-.1l-.8.8a.65.65 0 0 0-.19.46v2.78a.3.3 0 1 1-.6 0v-2.78c0-.34.14-.65.37-.89l.95-.95a.97.97 0 0 0-.3-.21l-1.7-.76-1.26 1.26v4.33a.3.3 0 0 1-.6 0v-4.33l-1.26-1.26-1.7.76a.97.97 0 0 0-.3.21l.94.95c.24.24.37.55.37.89v2.78a.3.3 0 0 1-.6 0v-2.78a.65.65 0 0 0-.19-.47l-.8-.8v4.05a.3.3 0 0 1-.6 0v-3.94c0-.62.37-1.18.94-1.44l1.73-.77c.12-.05.2-.17.2-.3v-.48a2.52 2.52 0 0 1-.96-1.97v-.14a.62.62 0 0 1-.32-.55v-.59c0-1.39 1.14-2.52 2.53-2.52h.64c1.39 0 2.52 1.13 2.52 2.52v.07c0 .23-.13.43-.32.54v.67c0 .8-.37 1.5-.95 1.97v.48c0 .13.08.25.2.3l1.73.77zm-2.4-.6a.93.93 0 0 1-.13-.47v-.13a2.51 2.51 0 0 1-1.95 0v.13c0 .17-.04.33-.13.47l1.1 1.1zm-1.1-1c1.06 0 1.93-.86 1.93-1.92v-.54c-.82.1-2.17.08-3.1-.84a.3.3 0 1 1 .42-.42c.3.3 1.2.96 2.98.6l.01-.01v-.07c0-1.06-.86-1.92-1.92-1.92h-.64c-1.06 0-1.93.86-1.93 1.92v.62h.01c.15-.04.3-.13.45-.27a.3.3 0 0 1 .4.44c-.17.16-.36.28-.54.35v.14c0 1.06.86 1.93 1.93 1.93z"/><path id="o85jb" d="M883.37 202.7a2.2 2.2 0 0 1-.96 1.82v.65c0 .13.07.25.19.3l.28.15a.3.3 0 1 1-.26.53l-.29-.14a.94.94 0 0 1-.14-.1l-.73.73v3.06a.3.3 0 1 1-.6 0v-3.06l-.72-.72a.95.95 0 0 1-.15.09l-1.03.51a.66.66 0 0 0-.14.1l.68.68c.24.24.37.55.37.89v1.51a.3.3 0 0 1-.6 0v-1.51a.65.65 0 0 0-.19-.47l-.48-.48v2.46a.3.3 0 0 1-.6 0v-2.59c0-.48.27-.9.7-1.12l1.02-.51a.34.34 0 0 0 .19-.3v-.66a2.2 2.2 0 0 1-.96-1.82v-.63c0-.78.4-1.46 1.02-1.85a1.25 1.25 0 1 1 2.39 0 2.2 2.2 0 0 1 1 1.85zm-2.21-3.51a.66.66 0 0 0-.64.77 2.2 2.2 0 0 1 1.29 0v-.12c0-.36-.29-.65-.65-.65zm0 1.27c-.87 0-1.59.7-1.6 1.57.2-.07.47-.2.75-.49a.3.3 0 0 1 .45.03c.03.04.77.99 2.01.6v-.1c0-.89-.72-1.61-1.61-1.61zm.69 4.95a.94.94 0 0 1-.03-.24v-.36a2.2 2.2 0 0 1-1.32 0v.36c0 .09 0 .17-.03.24l.69.7zm-.69-1.1c.86 0 1.56-.67 1.6-1.52a2.37 2.37 0 0 1-1.71-.22 2.69 2.69 0 0 1-.54-.4c-.37.3-.72.42-.96.47v.06c0 .9.72 1.62 1.61 1.62z"/><path id="o85jc" d="M897.62 205.36c.43.2.7.64.7 1.12v3.22a.3.3 0 0 1-.6 0v-3.22c0-.06 0-.12-.02-.17l-.46.46a.65.65 0 0 0-.2.46v2.47a.3.3 0 1 1-.6 0v-2.47c0-.33.14-.64.37-.88l.5-.49-1.62-.8a.94.94 0 0 1-.15-.1l-.72.73v4.01a.3.3 0 0 1-.6 0v-4l-.73-.74a.95.95 0 0 1-.14.1.3.3 0 0 1-.4-.14.3.3 0 0 1 .13-.4.34.34 0 0 0 .19-.3v-.42a1.88 1.88 0 0 1-.64-1.41v-.34h-.02a.3.3 0 0 1-.3-.3v-.64c0-1.04.85-1.88 1.9-1.88h.63c1.04 0 1.89.84 1.89 1.88v.64a.3.3 0 0 1-.3.3h-.02v.34c0 .56-.25 1.06-.64 1.4v.43c0 .13.07.25.19.3l1.66.84zm-4.71-3.97c.2-.06.48-.2.76-.49a.3.3 0 0 1 .38-.03s.79.5 2.08.57v-.33c0-.7-.58-1.29-1.3-1.29h-.63c-.71 0-1.3.58-1.3 1.3v.27zm2.3 3.07a.94.94 0 0 1-.03-.24v-.06a1.88 1.88 0 0 1-1.32 0v.06c0 .08 0 .16-.03.24l.69.69zm-.7-.78c.72 0 1.3-.58 1.3-1.3v-.36a5.29 5.29 0 0 1-1.89-.54c-.24.21-.48.34-.7.43v.48c0 .71.59 1.29 1.3 1.29z"/></defs><g><g transform="translate(-878 -197)"><g><g><g><use fill="#8280ff" xlink:href="#o85ja"/></g></g></g><g><g><g><use fill="#8280ff" xlink:href="#o85jb"/></g></g></g><g><g><g><use fill="#8280ff" xlink:href="#o85jc"/></g></g></g></g></g></svg>