<svg xmlns="http://www.w3.org/2000/svg" xmlns:xlink="http://www.w3.org/1999/xlink" width="105" height="91" viewBox="0 0 105 91"><defs><path id="kdlya" d="M1074.01 1221.97h-5.7a1.52 1.52 0 0 0 0 3.05h5.7a1.52 1.52 0 1 0 0-3.05z"/><path id="kdlyb" d="M1107.58 1205.66a10.07 10.07 0 0 1 6.44 9.8l-1.18 29.08a1.52 1.52 0 1 1-3.04-.13l1.18-29.07a7.03 7.03 0 0 0-.25-2.13l-4.62 4.63a6.98 6.98 0 0 0-2.06 4.97v21.67a1.52 1.52 0 0 1-3.05 0v-21.67c0-2.7 1.05-5.22 2.95-7.13l5.27-5.27a7.01 7.01 0 0 0-2.74-1.9l-7.7-2.98-5.89 8.84a4.36 4.36 0 0 1-5.79 1.38l1.27 28.66a1.52 1.52 0 0 1-3.05.13l-1.17-26.6h-3.17l-1.17 26.6a1.52 1.52 0 0 1-3.04-.13l1.26-28.66a4.35 4.35 0 0 1-5.79-1.38l-5.89-8.84-7.7 2.97c-.5.2-.98.45-1.42.75a1.52 1.52 0 0 1-2.12-.4c-.47-.7-.29-1.65.4-2.12.64-.43 1.33-.8 2.04-1.07l8.3-3.2 4.23-4.23c.27-.27.62-.42.98-.44v-3.37c-2-2.13-3.41-4.82-3.98-7.85-.36.01-.72-.01-1.07-.09a4.51 4.51 0 0 1-3.5-4.47v-1.1c0-1.79 1-3.36 2.48-4.08a38.05 38.05 0 0 1-1.06-8.86c0-4.4 2.02-6.52 3.71-7.54a8.03 8.03 0 0 1 3.14-1.07 20.41 20.41 0 0 1 11.7-4.31c6.85-.37 12.24 1.47 15.58 5.33 3.46 4 4.57 9.96 3.22 17.28a4.57 4.57 0 0 1 1.34 3.24v1.11a4.51 4.51 0 0 1-3.5 4.47c-.35.08-.7.1-1.06.09-.58 3.03-2 5.72-3.99 7.85v3.37c.36.02.7.17.98.44l4.23 4.23 8.3 3.2zm-37.52-19.72a12.71 12.71 0 0 0 25.01 0 2.97 2.97 0 0 1 3.09-2.42c.11.01.23 0 .35-.02.6-.13 1.07-.77 1.07-1.49v-1.11c0-.7-.47-1.3-1.08-1.43a3.29 3.29 0 0 0-1.15.08 2.5 2.5 0 0 1-2.89-1.48l-1.1-2.66c-3.99.8-15.94 2.43-21.97-5.07a1.52 1.52 0 1 1 2.38-1.91c5.9 7.34 19.97 3.78 20.11 3.74.74-.2 1.5.19 1.8.89l1.43 3.44c.44-.08.89-.1 1.3-.1.98-6.04.07-10.87-2.65-14.02-2.7-3.12-7.24-4.6-13.11-4.29-6.42.35-10.16 3.82-10.2 3.86-.28.27-.66.42-1.05.42 0 0-1.17.03-2.28.73-1.42.9-2.14 2.54-2.14 4.87 0 3.88.7 7.1 1.09 8.6.6.16 1.17.46 1.65.88.44-.38.84-.81 1.19-1.29a1.52 1.52 0 1 1 2.44 1.82c-.7.95-1.54 1.77-2.5 2.44a2.14 2.14 0 0 1-2.91-.45c-.31-.4-.8-.6-1.3-.5-.61.1-1.08.74-1.08 1.45v1.1c0 .71.45 1.35 1.06 1.48.12.02.24.03.35.02 1.47-.1 2.82.96 3.09 2.42zm10.28 23.42l-9.11-7.97-2.39 2.39 5.94 8.9c.3.45.74.56.97.58.23.02.68 0 1.07-.38zm3.67 5.53l-.09-2.1-1.35-1.35-1.36 1.36-.1 2.09zm7.01-15.03v-2.91a15.72 15.72 0 0 1-16.91 0v2.91l8.46 7.4zm5.27 3.92l-2.39-2.39-9.1 7.97 3.51 3.52c.39.38.84.4 1.07.38.24-.02.67-.13.98-.59z"/><path id="kdlyc" d="M1058.33 1213.65a10.14 10.14 0 0 1 6.03 9.66l-.9 21.23a1.52 1.52 0 1 1-3.04-.13l.9-21.23c.06-1.37-.3-2.7-.97-3.84l-4 4.8a8.47 8.47 0 0 0-1.96 5.42v14.92a1.52 1.52 0 0 1-3.05 0v-14.92c0-2.69.95-5.3 2.67-7.37l4.25-5.1a6.92 6.92 0 0 0-1.15-.65l-6.49-2.83-4.58 7.44a2.95 2.95 0 0 1-4.43.7l-2.9-2.48v25.2a1.52 1.52 0 0 1-3.05 0v-25.2l-2.9 2.47a2.95 2.95 0 0 1-4.43-.7l-4.58-7.43-6.48 2.83c-.42.18-.8.4-1.16.65l4.25 5.1a11.53 11.53 0 0 1 2.67 7.36v14.93a1.52 1.52 0 0 1-3.05 0v-14.93c0-1.97-.7-3.9-1.96-5.4l-4-4.8a7.02 7.02 0 0 0-.97 3.83l.9 21.23a1.52 1.52 0 1 1-3.04.13l-.9-21.23a10.14 10.14 0 0 1 6.04-9.66l7.44-3.25 4.06-4.07c.28-.27.63-.42.98-.44v-2.4a15.74 15.74 0 0 1-6.83-10.25c-.4.02-.8-.02-1.2-.11a4.54 4.54 0 0 1-3.37-4.44v-1.1c0-1.57.76-2.96 1.95-3.77a17.23 17.23 0 0 1-.53-4.21c0-6.32 3.42-11.88 8.56-15.07.06-5.27 4.55-9.54 10.08-9.54 5.52 0 10.02 4.27 10.07 9.54a17.77 17.77 0 0 1 8.56 15.07c0 1.42-.18 2.84-.53 4.22a4.54 4.54 0 0 1 1.95 3.75v1.1a4.54 4.54 0 0 1-3.36 4.45c-.4.1-.8.13-1.2.11a15.74 15.74 0 0 1-6.84 10.25v2.4c.35.02.7.17.98.44l4.07 4.07 7.44 3.25zm-27.93-50.73a19.19 19.19 0 0 1 13.57 0 6.98 6.98 0 0 0-6.78-4.87 6.98 6.98 0 0 0-6.79 4.87zm6.79 40.11c6.13 0 11.4-4.38 12.5-10.41a2.97 2.97 0 0 1 3.09-2.42c.13 0 .26 0 .4-.04.58-.13 1.02-.77 1.02-1.47v-1.11c0-.7-.47-1.31-1.08-1.43a3.36 3.36 0 0 0-1.5.2c-.56.32-1.25.26-1.74-.15l-1.79-1.47c-1.46.09-5.2.17-9.4-.71-5.5-1.16-9.76-3.51-12.66-6.98a1.52 1.52 0 1 1 2.34-1.96c5.88 7.04 17.36 6.74 19.6 6.61.73-.04 1.45.2 2.03.67l1.14.94c.38-.1.79-.17 1.2-.2.28-1.14.43-2.31.43-3.5 0-8.2-7-14.86-15.58-14.86-8.6 0-15.59 6.67-15.59 14.87 0 1.18.15 2.35.44 3.5.85.1 1.65.45 2.3 1.01.43-.37.82-.79 1.17-1.25a1.52 1.52 0 0 1 2.43 1.83c-.7.93-1.53 1.74-2.46 2.4a2.14 2.14 0 0 1-2.93-.46c-.3-.4-.79-.59-1.3-.5-.6.1-1.07.75-1.07 1.45v1.1c0 .7.43 1.34 1.02 1.47.13.04.26.05.4.04 1.45-.11 2.81.95 3.08 2.42a12.71 12.71 0 0 0 12.5 10.41zm-2.25 12.84l-6.3-6.3-2.36 2.34 4.59 7.44zm7.85-7.67v-3.15a15.73 15.73 0 0 1-11.2 0v3.15l5.6 5.6zm5.3 3.71l-2.35-2.35-6.31 6.31 4.07 3.48z"/><path id="kdlyd" d="M1031.48 1228.7h-4.27a1.52 1.52 0 0 0 0 3.04h4.27a1.52 1.52 0 0 0 0-3.04z"/></defs><g><g transform="translate(-1010 -1155)"><g><g><g><use fill="#0093ff" xlink:href="#kdlya"/></g></g></g><g><g><g><use fill="#00aeef" xlink:href="#kdlyb"/></g></g></g><g><g><g><use fill="#00aeef" xlink:href="#kdlyc"/></g></g></g><g><g><g><use fill="#0093ff" xlink:href="#kdlyd"/></g></g></g></g></g></svg>