<svg xmlns="http://www.w3.org/2000/svg" xmlns:xlink="http://www.w3.org/1999/xlink" width="20" height="13" viewBox="0 0 20 13"><defs><path id="tsk8a" d="M896.6 470.36c.8.12 1.4.8 1.4 1.63v3.34c0 .18-.14.32-.31.32h-1.03v.02a1.99 1.99 0 0 1-3.96 0v-.02h-7.06v.02a1.99 1.99 0 0 1-3.97 0v-.02h-1.69a.65.65 0 0 1-.64-.65v-.69h-1.03a.31.31 0 1 1 0-.63h3a.31.31 0 1 1 0 .63h-1.35v.69l.02.02h1.8a1.99 1.99 0 0 1 3.75 0h6.5v-2.36a.31.31 0 0 1 .63 0v2.36h.15a1.99 1.99 0 0 1 3.74 0h.82v-1.38h-.35a.98.98 0 0 1-.98-.98V472c0-.17.14-.3.31-.3h.97a1.02 1.02 0 0 0-.97-.72h-3.7v.36a.31.31 0 0 1-.62 0v-5.68l-.02-.02h-12.03s-.02 0-.02.02v5.68a.31.31 0 0 1-.62 0v-5.68c0-.36.29-.65.64-.65h12.03c.36 0 .65.29.65.65v.69H895c.73 0 1.32.59 1.32 1.31v.34c0 .15-.1.27-.25.3l.52 2.07zm-3.94-2.69h3.04v-.02c0-.38-.3-.69-.69-.69h-2.35zm3.29 2.67l-.51-2.04h-2.78v2.04zm-10.94 5.33a1.36 1.36 0 1 0-2.71 0 1.36 1.36 0 0 0 2.71 0zm11.03 0a1.36 1.36 0 1 0-2.72 0 1.36 1.36 0 0 0 2.72 0zm1.33-2.65v-.71h-.7v.35c0 .2.15.36.35.36z"/><path id="tsk8b" d="M883.66 475.02a.65.65 0 1 0 0 1.3.65.65 0 0 0 0-1.3z"/><path id="tsk8c" d="M894.68 475.02a.65.65 0 1 0 0 1.3.65.65 0 0 0 0-1.3z"/><path id="tsk8d" d="M891 473.68h-4.67a.31.31 0 0 0 0 .63h4.68a.31.31 0 0 0 0-.63z"/><path id="tsk8e" d="M882.99 472.35h-4a.31.31 0 0 0 0 .63h4a.31.31 0 1 0 0-.63z"/><path id="tsk8f" d="M888.89 468.1a.31.31 0 0 0-.44 0l-2.79 2.78-1.45-1.45a.31.31 0 1 0-.44.45l1.67 1.67a.31.31 0 0 0 .44 0l3-3a.31.31 0 0 0 .01-.45z"/></defs><g><g transform="translate(-878 -465)"><g><g><g><use fill="#08f748" xlink:href="#tsk8a"/></g></g></g><g><g><g><use fill="#08f748" xlink:href="#tsk8b"/></g></g></g><g><g><g><use fill="#08f748" xlink:href="#tsk8c"/></g></g></g><g><g><g><use fill="#08f748" xlink:href="#tsk8d"/></g></g></g><g><g><g><use fill="#08f748" xlink:href="#tsk8e"/></g></g></g><g><g><g><use fill="#08f748" xlink:href="#tsk8f"/></g></g></g></g></g></svg>