<svg xmlns="http://www.w3.org/2000/svg" xmlns:xlink="http://www.w3.org/1999/xlink" width="141" height="89" viewBox="0 0 141 89"><defs><path id="tsvma" d="M313.29 2830.57c5.54.84 9.8 5.64 9.8 11.42v23.4a2.2 2.2 0 0 1-2.19 2.2h-7.17v.14a13.9 13.9 0 0 1-13.89 13.89 13.9 13.9 0 0 1-13.89-13.9v-.14h-49.43v.15a13.9 13.9 0 0 1-13.89 13.89 13.9 13.9 0 0 1-13.9-13.9l.01-.14H196.9a4.54 4.54 0 0 1-4.53-4.53v-4.83h-7.17a2.2 2.2 0 1 1 0-4.39h21.06a2.2 2.2 0 1 1 0 4.4h-9.5v4.82c0 .08.06.14.14.14h12.61a13.91 13.91 0 0 1 13.13-9.36c6.07 0 11.25 3.92 13.13 9.36h45.51v-16.52a2.2 2.2 0 0 1 4.39 0v16.52h1.05a13.91 13.91 0 0 1 13.13-9.35c6.08 0 11.25 3.91 13.13 9.35h5.74v-9.65h-2.49a6.88 6.88 0 0 1-6.87-6.87v-4.68c0-1.21.98-2.2 2.2-2.2h6.81a7.18 7.18 0 0 0-6.81-4.97h-25.89v2.5a2.2 2.2 0 0 1-4.39 0v-39.79a.15.15 0 0 0-.14-.14h-84.24a.15.15 0 0 0-.14.14v39.78a2.2 2.2 0 0 1-4.4 0v-39.78c0-2.5 2.04-4.53 4.54-4.53h84.24c2.5 0 4.53 2.03 4.53 4.53v4.83h16.52a9.22 9.22 0 0 1 9.22 9.21v2.34a2.2 2.2 0 0 1-1.74 2.15l3.63 14.5zm-27.63-18.85H307v-.15a4.83 4.83 0 0 0-4.83-4.82h-16.52zm0 18.72h23.07l-3.58-14.33h-19.5zm-53.52 37.29a9.52 9.52 0 0 0-19.01 0 9.52 9.52 0 0 0 19 0zm77.21 0a9.52 9.52 0 0 0-19.01 0 9.52 9.52 0 0 0 19.01 0zm9.36-18.57v-4.98h-4.97v2.49a2.49 2.49 0 0 0 2.48 2.49z"/><path id="tsvmb" d="M222.63 2863.2a4.54 4.54 0 1 0 .01 9.07 4.54 4.54 0 0 0 0-9.08z"/><path id="tsvmc" d="M299.84 2863.2a4.54 4.54 0 1 0 .01 9.07 4.54 4.54 0 0 0 0-9.08z"/><path id="tsvmd" d="M274.1 2853.84h-32.75a2.2 2.2 0 1 0 0 4.38h32.76a2.2 2.2 0 0 0 0-4.38z"/><path id="tsvme" d="M217.95 2844.48h-28.08a2.2 2.2 0 0 0 0 4.38h28.08a2.2 2.2 0 0 0 0-4.38z"/><path id="tsvmf" d="M259.28 2814.7a2.2 2.2 0 0 0-3.1 0l-19.51 19.5-10.15-10.14a2.2 2.2 0 1 0-3.1 3.1l11.7 11.7a2.19 2.19 0 0 0 3.1 0l21.06-21.06a2.2 2.2 0 0 0 0-3.1z"/></defs><g><g transform="translate(-183 -2793)"><g><g><g><use fill="#00aeef" xlink:href="#tsvma"/></g></g></g><g><g><g><use fill="#29a4ff" xlink:href="#tsvmb"/></g></g></g><g><g><g><use fill="#29a4ff" xlink:href="#tsvmc"/></g></g></g><g><g><g><use fill="#29a4ff" xlink:href="#tsvmd"/></g></g></g><g><g><g><use fill="#29a4ff" xlink:href="#tsvme"/></g></g></g><g><g><g><use fill="#29a4ff" xlink:href="#tsvmf"/></g></g></g></g></g></svg>