<svg xmlns="http://www.w3.org/2000/svg" xmlns:xlink="http://www.w3.org/1999/xlink" width="17" height="17" viewBox="0 0 17 17"><defs><path id="hkina" d="M897 270.5a8.51 8.51 0 0 1-17 0 8.51 8.51 0 0 1 17 0zm-.65 0a7.86 7.86 0 0 0-15.7 0 7.86 7.86 0 0 0 15.7 0z"/><path id="hkinb" d="M891.67 267.33a.33.33 0 0 0-.46 0l-2.71 2.7-2.71-2.7a.33.33 0 1 0-.46.46l2.7 2.71-2.7 2.71a.33.33 0 1 0 .46.46l2.71-2.7 2.71 2.7a.33.33 0 0 0 .46 0 .33.33 0 0 0 0-.46l-2.7-2.71 2.7-2.71a.33.33 0 0 0 0-.46z"/></defs><g><g transform="translate(-880 -262)"><g><use fill="#f71108" xlink:href="#hkina"/></g><g><use fill="#f71108" xlink:href="#hkinb"/></g></g></g></svg>