<svg xmlns="http://www.w3.org/2000/svg" xmlns:xlink="http://www.w3.org/1999/xlink" width="19" height="13" viewBox="0 0 19 13"><defs><path id="mosba" d="M897.97 534.11v6.93c0 .6-.5 1.1-1.1 1.1h-5.24a1.25 1.25 0 0 1 .07 1.26l-.84 1.64a1.26 1.26 0 0 1-2.14.17 1.26 1.26 0 0 1-2.12-1.21l-.57.43c-.2.2-.66.51-1.72.65-.37.04-.94.06-1.75.06-1.33 0-2.83-.06-2.85-.06-.31-.01-.67-.27-.67-.58l-.04-5.82a.6.6 0 0 1 .2-.46l4.04-3.53c.07-.06.14-.1.23-.13.04-.01.4-.11.85-.11.36 0 .64.07.86.16v-.5c0-.61.5-1.1 1.1-1.1l10.6-.01c.6 0 1.1.5 1.1 1.11zm-8.87 8.42a.47.47 0 0 0-.44-.32c-.36 0-.58.55-.58.55l-.69 1.35a.48.48 0 0 0 .21.64c.23.12.52.02.64-.2l.83-1.66a.45.45 0 0 0 .03-.36zm.13-3.4l-.01-.02h-.09c-.76 0-2.5.8-3.43 1.3a.57.57 0 0 1-.46.02l-.06.02v-.04c-.02 0-.05 0-.07-.02a.6.6 0 0 1-.29-.5v-4.12c-.09-.1-.25-.14-.5-.14-.16 0-.31.03-.41.05l-3.72 3.25v4.99c.55.02 1.56 0 2.37 0 .94 0 1.39 0 1.6-.02.8-.1 1.02-.3 1.03-.3.03-.06.04-.05.09-.09.7-.51 1.26-.97 1.73-1.38l.75-.69c1.56-1.55 1.48-2.23 1.47-2.31zm1.79 3.54a.48.48 0 0 0-.45-.33c-.18 0-.34.1-.42.26l-.84 1.65a.47.47 0 0 0 .2.64c.24.11.53.02.64-.21l.84-1.65a.46.46 0 0 0 .03-.36zm6.22-5.4H886v1.65c.9-.43 2.25-1 3.12-1 .67 0 .96.32 1.09.56.1.14.24.44.2.9-.06.59-.42 1.27-1.03 2.02h7.48c.2 0 .37-.16.37-.36zm0-3.16c0-.2-.17-.38-.37-.38h-10.59c-.2 0-.36.17-.36.38v.98h11.32z"/><path id="mosbb" d="M896.4 540.72v-1h-2.9v1z"/></defs><g><g transform="translate(-879 -533)"><g><g><use fill="#00aeef" xlink:href="#mosba"/></g><g><use fill="#00aeef" xlink:href="#mosbb"/></g></g></g></g></svg>