<svg xmlns="http://www.w3.org/2000/svg" xmlns:xlink="http://www.w3.org/1999/xlink" width="21" height="16" viewBox="0 0 21 16"><defs><path id="u5kia" d="M63 45.22a2.51 2.51 0 1 1 5.03 0 2.51 2.51 0 0 1-5.03 0z"/><path id="u5kib" d="M70.54 45.22a2.51 2.51 0 1 1 5.03 0 2.51 2.51 0 0 1-5.03 0z"/><path id="u5kic" d="M78.08 45.22a2.51 2.51 0 1 1 5.03 0 2.51 2.51 0 0 1-5.03 0z"/><path id="u5kid" d="M63 38.51a2.51 2.51 0 1 1 5.03 0 2.51 2.51 0 0 1-5.03 0z"/><path id="u5kie" d="M70.54 38.51a2.51 2.51 0 1 1 5.03 0 2.51 2.51 0 0 1-5.03 0z"/><path id="u5kif" d="M78.08 38.51a2.51 2.51 0 1 1 5.03 0 2.51 2.51 0 0 1-5.03 0z"/><path id="u5kim" d="M63.42 51.5h20.1"/><clipPath id="u5kig"><use fill="#fff" xlink:href="#u5kia"/></clipPath><clipPath id="u5kih"><use fill="#fff" xlink:href="#u5kib"/></clipPath><clipPath id="u5kii"><use fill="#fff" xlink:href="#u5kic"/></clipPath><clipPath id="u5kij"><use fill="#fff" xlink:href="#u5kid"/></clipPath><clipPath id="u5kik"><use fill="#fff" xlink:href="#u5kie"/></clipPath><clipPath id="u5kil"><use fill="#fff" xlink:href="#u5kif"/></clipPath></defs><g><g transform="translate(-63 -36)"><g><g><use fill="#fff" xlink:href="#u5kia"/><use fill="#fff" fill-opacity="0" stroke="#707070" stroke-miterlimit="50" stroke-width="2" clip-path="url(&quot;#u5kig&quot;)" xlink:href="#u5kia"/></g><g><use fill="#fff" xlink:href="#u5kib"/><use fill="#fff" fill-opacity="0" stroke="#707070" stroke-miterlimit="50" stroke-width="2" clip-path="url(&quot;#u5kih&quot;)" xlink:href="#u5kib"/></g><g><use fill="#fff" xlink:href="#u5kic"/><use fill="#fff" fill-opacity="0" stroke="#707070" stroke-miterlimit="50" stroke-width="2" clip-path="url(&quot;#u5kii&quot;)" xlink:href="#u5kic"/></g><g><use fill="#fff" xlink:href="#u5kid"/><use fill="#fff" fill-opacity="0" stroke="#707070" stroke-miterlimit="50" stroke-width="2" clip-path="url(&quot;#u5kij&quot;)" xlink:href="#u5kid"/></g><g><use fill="#fff" xlink:href="#u5kie"/><use fill="#fff" fill-opacity="0" stroke="#707070" stroke-miterlimit="50" stroke-width="2" clip-path="url(&quot;#u5kik&quot;)" xlink:href="#u5kie"/></g><g><use fill="#fff" xlink:href="#u5kif"/><use fill="#fff" fill-opacity="0" stroke="#707070" stroke-miterlimit="50" stroke-width="2" clip-path="url(&quot;#u5kil&quot;)" xlink:href="#u5kif"/></g></g><g><use fill="#fff" fill-opacity="0" stroke="#707070" stroke-miterlimit="50" xlink:href="#u5kim"/></g></g></g></svg>