<svg xmlns="http://www.w3.org/2000/svg" xmlns:xlink="http://www.w3.org/1999/xlink" width="93" height="95" viewBox="0 0 93 95"><defs><path id="earua" d="M1046.02 2016.1l-13.3 15.04-13.32-15.04c-7.2-8.13-7.2-21.37 0-29.5 3.54-4 8.27-6.21 13.31-6.21 5.04 0 9.77 2.2 13.31 6.2 7.2 8.14 7.2 21.38 0 29.51zm-2.34-27.43a14.59 14.59 0 0 0-10.97-5.16 14.6 14.6 0 0 0-10.97 5.16c-6.2 6.99-6.2 18.37 0 25.36l10.97 12.4 10.98-12.4c6.19-7 6.19-18.37 0-25.36z"/><path id="earub" d="M1079.22 1968.24c-5.43-6.12-5.43-16.07 0-22.19a13.41 13.41 0 0 1 10.09-4.69c3.82 0 7.4 1.67 10.09 4.7 5.43 6.11 5.43 16.06 0 22.18l-10.1 11.38zm2.33-20.12a13.95 13.95 0 0 0 0 18.05l7.76 8.74 7.75-8.74a13.95 13.95 0 0 0 0-18.05 10.33 10.33 0 0 0-7.75-3.64c-2.92 0-5.68 1.3-7.76 3.64z"/><path id="earuc" d="M1095.33 2026.47a1.56 1.56 0 0 0-1.87 1.18c-.18.8-.52 1.53-1.03 2.17a1.56 1.56 0 1 0 2.45 1.93 8.6 8.6 0 0 0 1.63-3.42 1.56 1.56 0 0 0-1.18-1.86z"/><path id="earud" d="M1063.16 1989.75a5.5 5.5 0 0 1-1.96-.35c-.8-.3-1.7.1-2.01.9-.31.8.1 1.7.9 2.01.98.37 2 .57 3.06.57h.56a1.56 1.56 0 1 0 0-3.13z"/><path id="earue" d="M1059.45 1979.88c.28 0 .57-.07.82-.23.7-.43 1.46-.7 2.27-.79a1.56 1.56 0 0 0-.34-3.1 8.47 8.47 0 0 0-3.58 1.24 1.56 1.56 0 0 0 .83 2.88z"/><path id="earuf" d="M1041.4 2031.9h-3.11a1.56 1.56 0 1 0 0 3.13h3.12a1.56 1.56 0 1 0 0-3.13z"/><path id="earug" d="M1069.4 2003.8l-.4.01a1.56 1.56 0 0 0 .06 3.12H1072.18a1.56 1.56 0 1 0 0-3.13z"/><path id="earuh" d="M1068.62 1978.83h3.12a1.56 1.56 0 1 0 0-3.13h-3.12a1.56 1.56 0 1 0 0 3.13z"/><path id="earui" d="M1087.8 2003.8a1.56 1.56 0 1 0 0 3.13h3.12a1.56 1.56 0 1 0 0-3.13z"/><path id="earuj" d="M1093.37 1991.32c0-.87-.7-1.57-1.56-1.57h-3.12a1.56 1.56 0 1 0 0 3.13h3.12c.86 0 1.56-.7 1.56-1.56z"/><path id="earuk" d="M1078.43 2006.93h3.12a1.56 1.56 0 1 0 0-3.13h-3.12a1.56 1.56 0 1 0 0 3.13z"/><path id="earul" d="M1081.1 1978.83a1.56 1.56 0 1 0 0-3.13h-3.12a1.56 1.56 0 1 0 0 3.13z"/><path id="earum" d="M1069.96 1989.75a1.56 1.56 0 1 0 0 3.13h3.12a1.56 1.56 0 1 0 0-3.13z"/><path id="earun" d="M1084 1991.32c0-.87-.7-1.57-1.55-1.57h-3.13a1.56 1.56 0 1 0 0 3.13h3.13c.86 0 1.56-.7 1.56-1.56z"/><path id="earuo" d="M1105.98 1996.99a1.56 1.56 0 1 0-3.08.5 5.47 5.47 0 0 1-.16 2.4 1.56 1.56 0 1 0 3 .87 8.6 8.6 0 0 0 .24-3.77z"/><path id="earup" d="M1078.88 2031.9h-3.13a1.56 1.56 0 1 0 0 3.13h3.13a1.56 1.56 0 1 0 0-3.13z"/><path id="earuq" d="M1069.5 2031.9h-3.11a1.56 1.56 0 1 0 0 3.13h3.12a1.56 1.56 0 1 0 0-3.13z"/><path id="earur" d="M1086.68 2019.42c0-.87-.7-1.57-1.56-1.57H1082a1.56 1.56 0 1 0 0 3.13h3.12c.86 0 1.56-.7 1.56-1.56z"/><path id="earus" d="M1077.32 2019.42c0-.87-.7-1.57-1.57-1.57h-3.12a1.56 1.56 0 1 0 0 3.13h3.12c.87 0 1.57-.7 1.57-1.56z"/><path id="earut" d="M1088.13 2031.9h-3.01a1.56 1.56 0 1 0 0 3.13h3.07l.05-1.57v1.57c.86 0 1.5-.7 1.5-1.57a1.6 1.6 0 0 0-1.6-1.56z"/><path id="earuu" d="M1093.65 2023.66a1.56 1.56 0 0 0 1.23-2.53c-.79-1-1.8-1.82-2.93-2.38a1.56 1.56 0 1 0-1.4 2.8c.73.35 1.37.88 1.87 1.52.31.39.77.59 1.23.59z"/><path id="earuv" d="M1099.6 2003.38c-.66.28-1.37.42-2.1.42h-.34a1.56 1.56 0 1 0 0 3.13h.34c1.15 0 2.26-.23 3.31-.67a1.56 1.56 0 1 0-1.2-2.88z"/><path id="earuw" d="M1056.96 1987.97a1.56 1.56 0 0 0 1-1.97 5.45 5.45 0 0 1-.23-2.4 1.56 1.56 0 1 0-3.1-.4 8.6 8.6 0 0 0 .36 3.77 1.56 1.56 0 0 0 1.97 1z"/><path id="earux" d="M1050.78 2031.9h-3.13a1.56 1.56 0 1 0 0 3.13h3.13a1.56 1.56 0 1 0 0-3.13z"/><path id="earuy" d="M1066.48 2020.34a1.56 1.56 0 0 0 .65-2.98 5.52 5.52 0 0 1-1.92-1.46 1.56 1.56 0 1 0-2.39 2.01 8.64 8.64 0 0 0 3 2.3c.22.09.44.13.66.13z"/><path id="earuz" d="M1101.8 1990.9a8.49 8.49 0 0 0-3.62-1.12 1.56 1.56 0 0 0-.25 3.11c.82.07 1.6.3 2.3.72.25.14.52.2.78.2a1.56 1.56 0 0 0 .79-2.9z"/><path id="earuA" d="M1060.14 2031.9h-3.12a1.56 1.56 0 1 0 0 3.13h3.12a1.56 1.56 0 1 0 0-3.13z"/><path id="earuB" d="M1064.03 2011.36c.16-.8.48-1.55.97-2.2a1.56 1.56 0 0 0-2.52-1.86 8.55 8.55 0 0 0-1.52 3.47 1.56 1.56 0 0 0 3.07.59z"/><path id="earuC" d="M1081.1 1956.2a8.6 8.6 0 0 1 17.18 0 8.6 8.6 0 0 1-17.17 0zm3.13 0a5.47 5.47 0 1 0 10.94-.02 5.47 5.47 0 0 0-10.94.01z"/><path id="earuD" d="M1042.08 1999.12a9.38 9.38 0 0 1-18.74 0 9.38 9.38 0 0 1 18.74 0zm-3.12 0a6.25 6.25 0 1 0-12.5.01 6.25 6.25 0 0 0 12.5 0z"/></defs><g><g transform="translate(-1014 -1941)"><use fill="#00aeef" xlink:href="#earua"/></g><g transform="translate(-1014 -1941)"><use fill="#00aeef" xlink:href="#earub"/></g><g transform="translate(-1014 -1941)"><use fill="#0093ff" xlink:href="#earuc"/></g><g transform="translate(-1014 -1941)"><use fill="#0093ff" xlink:href="#earud"/></g><g transform="translate(-1014 -1941)"><use fill="#0093ff" xlink:href="#earue"/></g><g transform="translate(-1014 -1941)"><use fill="#0093ff" xlink:href="#earuf"/></g><g transform="translate(-1014 -1941)"><use fill="#0093ff" xlink:href="#earug"/></g><g transform="translate(-1014 -1941)"><use fill="#0093ff" xlink:href="#earuh"/></g><g transform="translate(-1014 -1941)"><use fill="#0093ff" xlink:href="#earui"/></g><g transform="translate(-1014 -1941)"><use fill="#0093ff" xlink:href="#earuj"/></g><g transform="translate(-1014 -1941)"><use fill="#0093ff" xlink:href="#earuk"/></g><g transform="translate(-1014 -1941)"><use fill="#0093ff" xlink:href="#earul"/></g><g transform="translate(-1014 -1941)"><use fill="#0093ff" xlink:href="#earum"/></g><g transform="translate(-1014 -1941)"><use fill="#0093ff" xlink:href="#earun"/></g><g transform="translate(-1014 -1941)"><use fill="#0093ff" xlink:href="#earuo"/></g><g transform="translate(-1014 -1941)"><use fill="#0093ff" xlink:href="#earup"/></g><g transform="translate(-1014 -1941)"><use fill="#0093ff" xlink:href="#earuq"/></g><g transform="translate(-1014 -1941)"><use fill="#0093ff" xlink:href="#earur"/></g><g transform="translate(-1014 -1941)"><use fill="#0093ff" xlink:href="#earus"/></g><g transform="translate(-1014 -1941)"><use fill="#0093ff" xlink:href="#earut"/></g><g transform="translate(-1014 -1941)"><use fill="#0093ff" xlink:href="#earuu"/></g><g transform="translate(-1014 -1941)"><use fill="#0093ff" xlink:href="#earuv"/></g><g transform="translate(-1014 -1941)"><use fill="#0093ff" xlink:href="#earuw"/></g><g transform="translate(-1014 -1941)"><use fill="#0093ff" xlink:href="#earux"/></g><g transform="translate(-1014 -1941)"><use fill="#0093ff" xlink:href="#earuy"/></g><g transform="translate(-1014 -1941)"><use fill="#0093ff" xlink:href="#earuz"/></g><g transform="translate(-1014 -1941)"><use fill="#0093ff" xlink:href="#earuA"/></g><g transform="translate(-1014 -1941)"><use fill="#0093ff" xlink:href="#earuB"/></g><g transform="translate(-1014 -1941)"><use fill="#00aeef" xlink:href="#earuC"/></g><g transform="translate(-1014 -1941)"><use fill="#00aeef" xlink:href="#earuD"/></g></g></svg>