<svg xmlns="http://www.w3.org/2000/svg" xmlns:xlink="http://www.w3.org/1999/xlink" width="20" height="20" viewBox="0 0 20 20"><defs><path id="9zsha" d="M82.73 634.05a2.42 2.42 0 1 1-.65-.24 8.27 8.27 0 0 0-3.75-8.83.34.34 0 1 1 .36-.58 8.91 8.91 0 0 1 4.04 9.65zm.58 2.12a1.73 1.73 0 1 0-3.45 0 1.73 1.73 0 0 0 3.45 0z"/><path id="9zshb" d="M77.16 639.68a.35.35 0 0 1 .27.64 8.9 8.9 0 0 1-9.85-2.04 2.42 2.42 0 1 1 .55-.42 8.3 8.3 0 0 0 9.03 1.82zm-10.75-1.78a1.73 1.73 0 1 0 0-3.46 1.73 1.73 0 0 0 0 3.46z"/><path id="9zshc" d="M65.38 631.76a.34.34 0 0 1-.32-.36 8.92 8.92 0 0 1 6.53-8 2.42 2.42 0 1 1 .1.7 8.23 8.23 0 0 0-5.94 7.34.34.34 0 0 1-.37.32zm6.9-8.35a1.73 1.73 0 1 0 3.45 0 1.73 1.73 0 0 0-3.45 0z"/></defs><g><g transform="translate(-64 -621)"><g><use fill="#707070" xlink:href="#9zsha"/></g><g><use fill="#707070" xlink:href="#9zshb"/></g><g><use fill="#707070" xlink:href="#9zshc"/></g></g></g></svg>