<svg xmlns="http://www.w3.org/2000/svg" xmlns:xlink="http://www.w3.org/1999/xlink" width="20" height="13" viewBox="0 0 20 13"><defs><path id="9v1ma" d="M896.6 403.36c.8.12 1.4.8 1.4 1.63v3.34c0 .18-.14.32-.31.32h-1.03v.02a1.99 1.99 0 0 1-3.96 0v-.02h-7.06v.02a1.99 1.99 0 0 1-3.97 0v-.02h-1.69a.65.65 0 0 1-.64-.65v-.69h-1.03a.31.31 0 1 1 0-.63h3.01a.31.31 0 1 1 0 .63h-1.36v.69l.02.02h1.8a1.99 1.99 0 0 1 3.75 0h6.5v-2.36a.31.31 0 0 1 .63 0v2.36h.15a1.99 1.99 0 0 1 3.74 0h.82v-1.38h-.35a.98.98 0 0 1-.98-.98V405c0-.17.14-.3.31-.3h.97a1.02 1.02 0 0 0-.97-.72h-3.7v.36a.31.31 0 0 1-.62 0v-5.68l-.02-.02h-12.03s-.02 0-.02.02v5.68a.31.31 0 0 1-.62 0v-5.68c0-.36.29-.65.64-.65h12.03c.36 0 .65.29.65.65v.69H895c.73 0 1.32.59 1.32 1.31v.34c0 .15-.1.27-.25.3l.52 2.07zm-3.94-2.69h3.04v-.02c0-.38-.3-.69-.69-.69h-2.35zm3.29 2.67l-.51-2.04h-2.78v2.04zm-10.94 5.33a1.36 1.36 0 1 0-2.71 0 1.36 1.36 0 0 0 2.71 0zm11.03 0a1.36 1.36 0 1 0-2.72 0 1.36 1.36 0 0 0 2.72 0zm1.33-2.65v-.71h-.7v.35c0 .2.15.36.35.36z"/><path id="9v1mb" d="M883.66 408.02a.65.65 0 1 0 0 1.3.65.65 0 0 0 0-1.3z"/><path id="9v1mc" d="M894.68 408.02a.65.65 0 1 0 0 1.3.65.65 0 0 0 0-1.3z"/><path id="9v1md" d="M891 406.68h-4.67a.31.31 0 0 0 0 .63h4.68a.31.31 0 1 0 0-.63z"/><path id="9v1me" d="M882.99 405.35h-4a.31.31 0 0 0 0 .63h4a.31.31 0 0 0 0-.63z"/><path id="9v1mf" d="M888.98 402.66a2.99 2.99 0 1 1-5.98-.01 2.99 2.99 0 0 1 5.98 0zm-.63 0a2.36 2.36 0 1 0-4.72 0 2.36 2.36 0 0 0 4.72 0z"/><path id="9v1mg" d="M887.22 403.44l-.91-.91v-1.21a.31.31 0 0 0-.63 0v1.34c0 .08.04.16.1.22l1 1a.31.31 0 0 0 .44 0 .31.31 0 0 0 0-.44z"/></defs><g><g transform="translate(-878 -398)"><g><g><g><use fill="#f7f708" xlink:href="#9v1ma"/></g></g></g><g><g><g><use fill="#f7f708" xlink:href="#9v1mb"/></g></g></g><g><g><g><use fill="#f7f708" xlink:href="#9v1mc"/></g></g></g><g><g><g><use fill="#f7f708" xlink:href="#9v1md"/></g></g></g><g><g><g><use fill="#f7f708" xlink:href="#9v1me"/></g></g></g><g><g><g><use fill="#f7f708" xlink:href="#9v1mf"/></g></g></g><g><g><g><use fill="#f7f708" xlink:href="#9v1mg"/></g></g></g></g></g></svg>