<svg xmlns="http://www.w3.org/2000/svg" xmlns:xlink="http://www.w3.org/1999/xlink" width="22" height="15" viewBox="0 0 22 15"><defs><path id="d5tqa" d="M83.93 294.68c.05.08.07.17.07.26v3.46c0 .3-.24.53-.53.53h-1.68a1.87 1.87 0 0 1-3.58 0H67.7a1.87 1.87 0 0 1-3.58 0h-1.6a.53.53 0 0 1-.53-.53v-11.87c0-.3.24-.53.53-.53h14.54c.3 0 .54.24.54.53v4.42h2.94c.82 0 1.58.45 1.98 1.17l1.4 2.56zm-20.86 3.19h1.06a1.87 1.87 0 0 1 3.58 0h8.83v-10.8H63.07zm2.85-.27a.8.8 0 1 0 0 1.6.8.8 0 0 0 0-1.6zm14.08 0a.8.8 0 1 0 0 1.6.8.8 0 0 0 0-1.6zm2.93.27v-2.8l-1.34-2.44a1.2 1.2 0 0 0-1.04-.62H77.6v5.86h.6a1.87 1.87 0 0 1 3.58 0z"/><path id="d5tqb" d="M68.55 291.63h3.8l-.72.72a.53.53 0 0 0 .76.76l1.48-1.49a.74.74 0 0 0 0-1.04l-1.48-1.49a.53.53 0 0 0-.76.76l.72.72h-3.8a.53.53 0 0 0 0 1.06z"/><path id="d5tqc" d="M67.22 295.84a.53.53 0 0 0 .75 0c.21-.21.21-.55 0-.76l-.71-.71h3.8a.53.53 0 0 0 0-1.07h-3.8l.71-.72a.53.53 0 0 0-.75-.75l-1.49 1.48a.73.73 0 0 0 0 1.05z"/></defs><g><g transform="translate(-62 -286)"><g><use fill="#707070" xlink:href="#d5tqa"/></g><g><use fill="#707070" xlink:href="#d5tqb"/></g><g><use fill="#707070" xlink:href="#d5tqc"/></g></g></g></svg>