<svg xmlns="http://www.w3.org/2000/svg" viewBox="3093 1227 20 20">
  <defs>
    <style>
      .cls-1 {
        fill: #fff;
      }
    </style>
  </defs>
  <g id="twitter-logo-button" transform="translate(3093 1227)">
    <g id="Group_109" data-name="Group 109">
      <path id="Path_152" data-name="Path 152" class="cls-1" d="M10,0A10,10,0,1,0,20,10,10.011,10.011,0,0,0,10,0Zm4.461,7.711c0,.1.007.2.007.3A6.547,6.547,0,0,1,4.391,13.525,4.647,4.647,0,0,0,7.8,12.571a2.3,2.3,0,0,1-2.15-1.6,2.311,2.311,0,0,0,1.039-.039A2.3,2.3,0,0,1,4.841,8.677c0-.01,0-.02,0-.029a2.292,2.292,0,0,0,1.042.288,2.305,2.305,0,0,1-.712-3.073A6.535,6.535,0,0,0,9.915,8.268a2.3,2.3,0,0,1,3.922-2.1A4.594,4.594,0,0,0,15.3,5.61a2.312,2.312,0,0,1-1.013,1.274,4.576,4.576,0,0,0,1.322-.362A4.63,4.63,0,0,1,14.461,7.711Z"/>
    </g>
  </g>
</svg>
