<svg xmlns="http://www.w3.org/2000/svg" xmlns:xlink="http://www.w3.org/1999/xlink" width="79" height="92" viewBox="0 0 79 92"><defs><path id="m0fia" d="M678.91 2688.56a1.5 1.5 0 0 1-.09 1.81c-.27.55-.9.91-1.54.91h-14.54l-6.63 11.81c-.27.55-.9.91-1.54.91s-1.18-.36-1.55-.9l-12.99-22.45-12.99 22.17c-.27.54-.9.9-1.54.9s-1.18-.36-1.55-.9l-6.63-11.54h-14.54c-.63 0-1.18-.36-1.54-.9-.27-.55-.36-1.28 0-1.82l13.54-23.99a3.74 3.74 0 0 1-2.37-3.81l1.19-8.45-5.73-6.18a3.74 3.74 0 0 1 .1-5l5.72-6-1-8.35a3.73 3.73 0 0 1 3-4.09l8.26-1.45 4.09-7.36a3.55 3.55 0 0 1 4.81-1.45l7.45 3.63 7.64-3.54h.09c1.81-.73 3.81 0 4.63 1.72l4 7.36 8.26 1.64a3.76 3.76 0 0 1 2.91 4l-1.18 8.44 5.72 6.18a3.74 3.74 0 0 1-.09 5l-5.72 6 1 8.35a3.79 3.79 0 0 1-2.1 3.73l13.45 23.62zm-41.06-11.63l-1.82-3.18-3.72 1.72h-.1c-1.8.73-3.8 0-4.62-1.72l-4-7.36-5.18-.9-12.54 22.16h12.54c.64 0 1.18.36 1.54.9l5.64 9.73zm.55-8.27c1-.54 2.27-.54 3.27 0l7.45 3.63 4.08-7.35c.55-1 1.55-1.64 2.55-1.82l8.17-1.36-1-8.36a3.41 3.41 0 0 1 1-3l5.82-6-5.72-6.17a3.54 3.54 0 0 1-.91-3l1.18-8.36-8.27-1.63c-1-.1-1.9-.82-2.45-1.73l-4-7.54h-.09l-7.54 3.45c-1 .55-2.27.55-3.27 0l-7.45-3.63-4.09 7.36a3.68 3.68 0 0 1-2.54 1.81l-8.27 1.46c-.09.09-.09.18-.09.18l1 8.27a3.41 3.41 0 0 1-1 3l-5.72 5.99 5.63 6.18c.73.72 1.09 1.9.9 3l-1.17 8.35 8.35 1.55c1.1.09 2 .81 2.55 1.72l4 7.54h.09zm35.88 18.99l-12.44-21.9-5.46 1-4.08 7.36a3.59 3.59 0 0 1-3.18 1.82c-.55 0-1.1-.1-1.64-.37l-7.45-3.63-.63.27 2 3.55c.18.18.27.36.36.63l12.8 22.17 5.64-10c.27-.54.9-.9 1.54-.9z"/><path id="m0fib" d="M640.03 2662.21c-10 0-18.17-8.18-18.17-18.17 0-10 8.18-18.17 18.17-18.17 10 0 18.17 8.18 18.17 18.17 0 10-8.18 18.17-18.17 18.17zm14.54-18.17c0-8-6.54-14.53-14.54-14.53-8 0-14.53 6.54-14.53 14.53 0 8 6.54 14.54 14.53 14.54 8 0 14.54-6.54 14.54-14.54z"/></defs><g><g transform="translate(-601 -2612)"><g><g><g><use fill="#00aeef" xlink:href="#m0fia"/></g><g><use fill="#0093ff" xlink:href="#m0fib"/></g></g></g></g></g></svg>